<svg width="81" height="70" viewBox="0 0 81 70" fill="none" xmlns="http://www.w3.org/2000/svg">
<path d="M0.632183 4.08355C0.454106 3.8725 0.480839 3.55704 0.691891 3.37897L4.1312 0.477039C4.34225 0.298962 4.6577 0.325695 4.83578 0.536748C5.01385 0.7478 4.98712 1.06325 4.77607 1.24133L1.71891 3.82082L4.2984 6.87798C4.47648 7.08903 4.44974 7.40448 4.23869 7.58256C4.02764 7.76064 3.71219 7.73391 3.53411 7.52285L0.632183 4.08355ZM79.5196 69.3236C78.0304 58.6552 73.064 43.633 61.1464 30.6611C49.2381 17.6993 30.3581 6.74959 0.972107 4.25933L1.05655 3.2629C30.6708 5.77251 49.7909 16.8229 61.8828 29.9845C73.9653 43.136 78.999 58.3606 80.51 69.1854L79.5196 69.3236Z" fill="white"/>
</svg>
