<svg width="1440" height="367" viewBox="0 0 1440 367" fill="none" xmlns="http://www.w3.org/2000/svg">
<g opacity="0.5">
<path d="M19.4927 247.81H0V364.568H22.5791V288.351L76.1841 364.568H95.6768V247.81H73.2601V324.027L19.4927 247.81Z" fill="#372B43" fill-opacity="0.62"/>
<path d="M171.871 367C188.115 367 204.196 360.838 214.917 347.865C224.501 336.189 228.237 322.405 228.562 306.189C228.237 290.621 224.826 276.35 214.917 264.35C204.521 251.701 188.765 245.377 171.871 245.377C154.977 245.377 139.058 251.539 128.825 264.35C119.403 275.702 115.18 290.621 115.18 306.189C115.18 321.756 119.403 336.513 128.825 347.865C138.896 360.513 155.14 367 171.871 367ZM171.871 346.243C161.8 346.405 152.053 342.351 146.368 334.567C140.358 326.783 138.571 316.405 138.408 306.189C138.571 295.972 140.358 285.432 146.368 277.81C152.053 270.026 161.8 265.972 171.871 266.134C181.942 265.972 191.526 270.026 197.374 277.81C203.222 285.432 205.171 295.972 205.171 306.189C205.171 316.405 203.222 326.783 197.374 334.567C191.526 342.351 181.942 346.405 171.871 346.243Z" fill="#372B43" fill-opacity="0.62"/>
<path d="M329.346 247.81H233.507V269.864H270.38V364.568H292.472V269.864H329.346V247.81Z" fill="#372B43" fill-opacity="0.62"/>
<path d="M410.342 364.568H433.084L397.347 247.81H364.372L328.635 364.568H351.377L356.9 346.405H404.657L410.342 364.568ZM363.235 325.648L380.616 268.567L398.322 325.648H363.235Z" fill="#372B43" fill-opacity="0.62"/>
<path d="M525.583 307.648C523.796 305.378 521.847 303.27 519.735 301.324C519.897 301.161 520.222 300.837 520.385 300.513C524.77 294.999 527.369 287.864 527.207 281.053C527.045 273.918 524.77 266.783 520.385 261.269C516.486 255.593 510.476 251.377 503.653 249.431C500.405 248.296 496.993 247.81 493.582 247.81H446.962V364.568H496.344C500.08 364.568 503.816 363.757 507.389 362.784C514.537 360.513 521.034 356.135 525.583 350.135C530.131 343.811 532.568 336.351 532.568 328.891C532.568 321.108 530.131 313.648 525.583 307.648ZM493.42 268.404C496.019 268.404 499.917 270.512 501.542 272.621C503.653 274.891 504.628 277.972 504.79 281.053C504.953 283.81 503.816 286.567 502.029 288.675C500.242 290.945 496.993 292.729 494.719 293.215H469.379V268.404H493.42ZM510.313 328.891C510.151 333.108 508.689 337.162 505.44 339.919C502.841 342.189 499.592 343.811 496.019 343.811H469.379V313.972H496.019C499.755 313.972 502.841 314.783 506.09 318.027C508.851 320.945 510.476 325 510.313 328.891Z" fill="#372B43" fill-opacity="0.62"/>
</g>
<g opacity="0.5">
<path d="M816.281 2.43246H796.788V119.19H819.367V42.9734L872.972 119.19H892.465V2.43246H870.048V78.6495L816.281 2.43246Z" fill="#372B43" fill-opacity="0.62"/>
<path d="M968.659 121.623C984.903 121.623 1000.98 115.461 1011.71 102.488C1021.29 90.8118 1025.03 77.0279 1025.35 60.8115C1025.03 45.2437 1021.61 30.9733 1011.71 18.9732C1001.31 6.3244 985.553 0 968.659 0C951.765 0 935.846 6.16223 925.613 18.9732C916.191 30.3246 911.968 45.2437 911.968 60.8115C911.968 76.3792 916.191 91.1361 925.613 102.488C935.684 115.136 951.928 121.623 968.659 121.623ZM968.659 100.866C958.588 101.028 948.841 96.974 943.156 89.1901C937.146 81.4063 935.359 71.0278 935.197 60.8115C935.359 50.5951 937.146 40.0545 943.156 32.4328C948.841 24.6489 958.588 20.5948 968.659 20.757C978.73 20.5948 988.314 24.6489 994.162 32.4328C1000.01 40.0545 1001.96 50.5951 1001.96 60.8115C1001.96 71.0278 1000.01 81.4063 994.162 89.1901C988.314 96.974 978.73 101.028 968.659 100.866Z" fill="#372B43" fill-opacity="0.62"/>
<path d="M1126.13 2.43246H1030.29V24.4868H1067.17V119.19H1089.26V24.4868H1126.13V2.43246Z" fill="#372B43" fill-opacity="0.62"/>
<path d="M1207.13 119.19H1229.87L1194.14 2.43246H1161.16L1125.42 119.19H1148.16L1153.69 101.028H1201.44L1207.13 119.19ZM1160.02 80.2711L1177.4 23.1894L1195.11 80.2711H1160.02Z" fill="#372B43" fill-opacity="0.62"/>
<path d="M1322.37 62.2709C1320.58 60.0006 1318.63 57.8925 1316.52 55.9465C1316.69 55.7844 1317.01 55.4601 1317.17 55.1357C1321.56 49.6222 1324.16 42.4869 1324 35.6761C1323.83 28.5408 1321.56 21.4056 1317.17 15.8921C1313.27 10.2163 1307.26 6.00006 1300.44 4.0541C1297.19 2.91895 1293.78 2.43246 1290.37 2.43246H1243.75V119.19H1293.13C1296.87 119.19 1300.6 118.38 1304.18 117.407C1311.32 115.136 1317.82 110.758 1322.37 104.758C1326.92 98.4335 1329.36 90.9739 1329.36 83.5144C1329.36 75.7305 1326.92 68.271 1322.37 62.2709ZM1290.21 23.0273C1292.81 23.0273 1296.71 25.1354 1298.33 27.2435C1300.44 29.5138 1301.42 32.5949 1301.58 35.6761C1301.74 38.4328 1300.6 41.1896 1298.82 43.2978C1297.03 45.5681 1293.78 47.3519 1291.51 47.8384H1266.17V23.0273H1290.21ZM1307.1 83.5144C1306.94 87.7307 1305.48 91.7848 1302.23 94.5415C1299.63 96.8118 1296.38 98.4335 1292.81 98.4335H1266.17V68.5953H1292.81C1296.54 68.5953 1299.63 69.4062 1302.88 72.6494C1305.64 75.5684 1307.26 79.6225 1307.1 83.5144Z" fill="#372B43" fill-opacity="0.62"/>
</g>
<g opacity="0.5">
<path d="M926.925 215.192H907.432V331.95H930.011V255.733L983.616 331.95H1003.11V215.192H980.693V291.409L926.925 215.192Z" fill="#372B43" fill-opacity="0.62"/>
<path d="M1079.3 334.382C1095.55 334.382 1111.63 328.22 1122.35 315.247C1131.93 303.571 1135.67 289.787 1135.99 273.571C1135.67 258.003 1132.26 243.732 1122.35 231.732C1111.95 219.084 1096.2 212.759 1079.3 212.759C1062.41 212.759 1046.49 218.921 1036.26 231.732C1026.84 243.084 1022.61 258.003 1022.61 273.571C1022.61 289.138 1026.84 303.895 1036.26 315.247C1046.33 327.896 1062.57 334.382 1079.3 334.382ZM1079.3 313.625C1069.23 313.787 1059.49 309.733 1053.8 301.949C1047.79 294.165 1046 283.787 1045.84 273.571C1046 263.354 1047.79 252.814 1053.8 245.192C1059.49 237.408 1069.23 233.354 1079.3 233.516C1089.37 233.354 1098.96 237.408 1104.81 245.192C1110.65 252.814 1112.6 263.354 1112.6 273.571C1112.6 283.787 1110.65 294.165 1104.81 301.949C1098.96 309.733 1089.37 313.787 1079.3 313.625Z" fill="#372B43" fill-opacity="0.62"/>
<path d="M1236.78 215.192H1140.94V237.246H1177.81V331.95H1199.9V237.246H1236.78V215.192Z" fill="#372B43" fill-opacity="0.62"/>
<path d="M1317.77 331.95H1340.52L1304.78 215.192H1271.8L1236.07 331.95H1258.81L1264.33 313.787H1312.09L1317.77 331.95ZM1270.67 293.03L1288.05 235.949L1305.75 293.03H1270.67Z" fill="#372B43" fill-opacity="0.62"/>
<path d="M1433.01 275.03C1431.23 272.76 1429.28 270.652 1427.17 268.706C1427.33 268.544 1427.65 268.219 1427.82 267.895C1432.2 262.381 1434.8 255.246 1434.64 248.435C1434.48 241.3 1432.2 234.165 1427.82 228.651C1423.92 222.975 1417.91 218.759 1411.09 216.813C1407.84 215.678 1404.43 215.192 1401.01 215.192H1354.39V331.95H1403.78C1407.51 331.95 1411.25 331.139 1414.82 330.166C1421.97 327.896 1428.47 323.517 1433.01 317.517C1437.56 311.193 1440 303.733 1440 296.274C1440 288.49 1437.56 281.03 1433.01 275.03ZM1400.85 235.786C1403.45 235.786 1407.35 237.895 1408.97 240.003C1411.09 242.273 1412.06 245.354 1412.22 248.435C1412.39 251.192 1411.25 253.949 1409.46 256.057C1407.67 258.327 1404.43 260.111 1402.15 260.598H1376.81V235.786H1400.85ZM1417.75 296.274C1417.58 300.49 1416.12 304.544 1412.87 307.301C1410.27 309.571 1407.02 311.193 1403.45 311.193H1376.81V281.354H1403.45C1407.19 281.354 1410.27 282.165 1413.52 285.409C1416.28 288.328 1417.91 292.382 1417.75 296.274Z" fill="#372B43" fill-opacity="0.62"/>
</g>
<g opacity="0.5">
<path d="M154.642 2.43246H135.15V119.19H157.729V42.9734L211.334 119.19H230.826V2.43246H208.41V78.6495L154.642 2.43246Z" fill="#372B43" fill-opacity="0.62"/>
<path d="M307.021 121.623C323.265 121.623 339.346 115.461 350.067 102.488C359.651 90.8118 363.387 77.0279 363.712 60.8115C363.387 45.2437 359.976 30.9733 350.067 18.9732C339.671 6.3244 323.914 0 307.021 0C290.127 0 274.208 6.16223 263.974 18.9732C254.553 30.3246 250.329 45.2437 250.329 60.8115C250.329 76.3792 254.553 91.1361 263.974 102.488C274.045 115.136 290.289 121.623 307.021 121.623ZM307.021 100.866C296.949 101.028 287.203 96.974 281.518 89.1901C275.507 81.4063 273.721 71.0278 273.558 60.8115C273.721 50.5951 275.507 40.0545 281.518 32.4328C287.203 24.6489 296.949 20.5948 307.021 20.757C317.092 20.5948 326.676 24.6489 332.524 32.4328C338.371 40.0545 340.321 50.5951 340.321 60.8115C340.321 71.0278 338.371 81.4063 332.524 89.1901C326.676 96.974 317.092 101.028 307.021 100.866Z" fill="#372B43" fill-opacity="0.62"/>
<path d="M464.495 2.43246H368.656V24.4868H405.53V119.19H427.622V24.4868H464.495V2.43246Z" fill="#372B43" fill-opacity="0.62"/>
<path d="M545.492 119.19H568.233L532.497 2.43246H499.521L463.785 119.19H486.526L492.049 101.028H539.806L545.492 119.19ZM498.384 80.2711L515.765 23.1894L533.471 80.2711H498.384Z" fill="#372B43" fill-opacity="0.62"/>
<path d="M660.732 62.2709C658.945 60.0006 656.996 57.8925 654.884 55.9465C655.047 55.7844 655.372 55.4601 655.534 55.1357C659.92 49.6222 662.519 42.4869 662.357 35.6761C662.194 28.5408 659.92 21.4056 655.534 15.8921C651.636 10.2163 645.625 6.00006 638.803 4.0541C635.554 2.91895 632.143 2.43246 628.732 2.43246H582.112V119.19H631.493C635.229 119.19 638.965 118.38 642.539 117.407C649.686 115.136 656.184 110.758 660.732 104.758C665.281 98.4335 667.717 90.9739 667.717 83.5144C667.717 75.7305 665.281 68.271 660.732 62.2709ZM628.569 23.0273C631.168 23.0273 635.067 25.1354 636.691 27.2435C638.803 29.5138 639.778 32.5949 639.94 35.6761C640.102 38.4328 638.965 41.1896 637.179 43.2978C635.392 45.5681 632.143 47.3519 629.869 47.8384H604.528V23.0273H628.569ZM645.463 83.5144C645.301 87.7307 643.839 91.7848 640.59 94.5415C637.991 96.8118 634.742 98.4335 631.168 98.4335H604.528V68.5953H631.168C634.904 68.5953 637.991 69.4062 641.24 72.6494C644.001 75.5684 645.625 79.6225 645.463 83.5144Z" fill="#372B43" fill-opacity="0.62"/>
</g>
</svg>
