<svg width="183" height="194" viewBox="0 0 183 194" fill="none" xmlns="http://www.w3.org/2000/svg">
<rect x="0.356201" y="0.491211" width="182.491" height="193.035" rx="14.7953" fill="black"/>
<rect x="0.664437" y="0.799446" width="181.875" height="192.418" rx="14.4871" stroke="white" stroke-opacity="0.5" stroke-width="0.616471"/>
<path d="M107.799 29.6899C101.01 29.6899 94.4405 30.5983 88.179 32.2691C81.6986 33.9967 75.575 36.5759 69.8975 39.8527C64.147 43.1781 58.8588 47.2253 54.1952 51.889C49.5315 56.5526 45.4843 61.8489 42.1508 67.5994C38.8659 73.2688 36.2948 79.4005 34.5672 85.8809C32.8964 92.1424 31.988 98.7121 31.988 105.501H40.8044C40.8044 99.5069 41.6073 93.6997 43.0916 88.16C44.6245 82.442 46.9036 77.024 49.8073 72.0197C52.7515 66.9424 56.3283 62.2707 60.4485 58.1504C64.5688 54.0302 69.2405 50.4534 74.3178 47.5092C79.3302 44.6055 84.7401 42.3264 90.4581 40.7935C95.9896 39.3092 101.805 38.5063 107.799 38.5063V29.6899Z" fill="url(#paint0_radial_479_2635)"/>
<path d="M90.4582 40.7936C84.7402 42.3265 79.3222 44.6056 74.3179 47.5092C69.2406 50.4534 64.5688 54.0302 60.4486 58.1505C56.3283 62.2707 52.7515 66.9425 49.8073 72.0198C46.9037 77.0322 44.6246 82.4421 43.0917 88.1601C41.6074 93.6916 40.8044 99.507 40.8044 105.501C40.8044 111.495 41.6074 117.302 43.0917 122.842C44.6246 128.56 46.9037 133.978 49.8073 138.982C52.7515 144.059 56.3283 148.731 60.4486 152.851L66.6776 146.622C63.0927 143.037 59.9944 138.99 57.4395 134.578C54.9171 130.23 52.9381 125.526 51.6079 120.554C50.3183 115.753 49.6208 110.7 49.6208 105.501C49.6208 100.294 50.3183 95.2489 51.6079 90.4473C52.9381 85.4836 54.9171 80.7794 57.4395 76.4239C59.9944 72.0117 63.1008 67.9644 66.6776 64.3795C70.2625 60.7946 74.3098 57.6963 78.722 55.1414C83.0694 52.619 87.7736 50.64 92.7454 49.3098C97.547 48.0202 102.6 47.3227 107.799 47.3227V38.5063C101.805 38.5063 95.9978 39.3093 90.4582 40.7936Z" fill="url(#paint1_linear_479_2635)"/>
<path d="M60.1159 92.7265C61.2433 88.5089 62.9222 84.5266 65.0634 80.8281C67.229 77.0891 69.8649 73.6501 72.9065 70.6086C75.948 67.5671 79.3869 64.9392 83.1259 62.7655C86.8163 60.6243 90.8068 58.9454 95.0244 57.818C99.104 56.7231 103.386 56.131 107.799 56.131V47.3228C102.592 47.3228 97.5468 48.0203 92.7452 49.3099C87.7815 50.64 83.0773 52.619 78.7218 55.1415C74.3096 57.6964 70.2624 60.8028 66.6774 64.3796C63.0925 67.9645 59.9942 72.0118 57.4393 76.424C54.9169 80.7713 52.9379 85.4755 51.6077 90.4474C50.3181 95.2489 49.6206 100.294 49.6206 105.501C49.6206 110.708 50.3181 115.753 51.6077 120.554C52.9379 125.518 54.9169 130.222 57.4393 134.578C59.9942 138.99 63.1006 143.037 66.6774 146.622C70.2624 150.207 74.3096 153.305 78.7218 155.86C83.0692 158.383 87.7734 160.362 92.7452 161.692C97.5549 162.981 102.6 163.679 107.799 163.679V154.871C103.378 154.871 99.104 154.279 95.0244 153.184C90.8068 152.056 86.8244 150.377 83.1259 148.236C79.3869 146.071 75.948 143.435 72.9065 140.393C69.8649 137.352 67.2371 133.913 65.0634 130.174C62.9222 126.483 61.2433 122.493 60.1159 118.275C59.0209 114.196 58.4288 109.913 58.4288 105.501C58.4288 101.081 59.0209 96.8062 60.1159 92.7265Z" fill="url(#paint2_radial_479_2635)"/>
<path d="M142.902 125.769C141.118 128.843 138.96 131.666 136.462 134.164C133.964 136.662 131.141 138.828 128.068 140.604C125.034 142.364 121.757 143.743 118.294 144.667C114.944 145.568 111.432 146.054 107.799 146.054C104.173 146.054 100.653 145.568 97.3036 144.667C93.8403 143.743 90.5636 142.364 87.5302 140.604C84.4562 138.82 81.6337 136.662 79.1356 134.164C76.6375 131.666 74.48 128.843 72.6957 125.769C70.9357 122.736 69.5568 119.459 68.6322 115.996C67.7319 112.646 67.2453 109.126 67.2453 105.501C67.2453 101.875 67.7319 98.3552 68.6322 95.0055C69.5568 91.5422 70.9357 88.2655 72.6957 85.2321C74.48 82.1581 76.6375 79.3356 79.1356 76.8375C81.6337 74.3394 84.4562 72.182 87.5302 70.3976C90.5636 68.6376 93.8403 67.2588 97.3036 66.3341C100.653 65.4338 104.173 64.9472 107.799 64.9472V56.1309C103.379 56.1309 99.1042 56.7229 95.0245 57.8179C90.8069 58.9453 86.8246 60.6242 83.1261 62.7654C79.387 64.931 75.9481 67.567 72.9066 70.6085C69.8651 73.65 67.2372 77.0889 65.0635 80.828C62.9223 84.5183 61.2434 88.5088 60.116 92.7264C59.021 96.8061 58.429 101.089 58.429 105.501C58.429 109.921 59.021 114.195 60.116 118.275C61.2434 122.493 62.9223 126.475 65.0635 130.174C67.2291 133.913 69.8651 137.352 72.9066 140.393C75.9481 143.435 79.387 146.062 83.1261 148.236C86.8164 150.377 90.8069 152.056 95.0245 153.184C99.1042 154.279 103.387 154.871 107.799 154.871C112.219 154.871 116.494 154.279 120.573 153.184C124.791 152.056 128.773 150.377 132.472 148.236C136.211 146.071 139.65 143.435 142.691 140.393C145.733 137.352 148.361 133.913 150.534 130.174L142.902 125.769Z" fill="url(#paint3_linear_479_2635)"/>
<path d="M139.536 105.501C139.536 108.34 139.155 111.089 138.449 113.717C137.719 116.426 136.641 118.989 135.27 121.365C133.875 123.774 132.18 125.98 130.233 127.935C128.278 129.89 126.072 131.585 123.663 132.98C121.287 134.359 118.724 135.437 116.015 136.159C113.395 136.865 110.646 137.246 107.799 137.246C104.96 137.246 102.211 136.865 99.5827 136.159C96.8737 135.429 94.3107 134.351 91.9343 132.98C89.5254 131.585 87.3193 129.89 85.3646 127.943C83.41 125.997 81.7148 123.774 80.3279 121.373C78.9491 118.997 77.8703 116.434 77.1485 113.725C76.4429 111.105 76.0617 108.356 76.0617 105.509C76.0617 102.67 76.4429 99.9207 77.1485 97.2928C77.8784 94.5838 78.9572 92.0208 80.3279 89.6444C81.7229 87.2355 83.4181 85.0294 85.3727 83.0747C87.3274 81.12 89.5335 79.4249 91.9424 78.0379C94.3189 76.6591 96.8818 75.5804 99.5908 74.8586C102.211 74.1529 104.96 73.7717 107.807 73.7717V64.9473C104.181 64.9473 100.661 65.4339 97.3117 66.3342C93.8484 67.2588 90.5717 68.6376 87.5383 70.3977C84.4643 72.182 81.6418 74.3395 79.1437 76.8376C76.6456 79.3357 74.4882 82.1582 72.7038 85.2322C70.9438 88.2656 69.565 91.5423 68.6403 95.0056C67.7401 98.3553 67.2534 101.867 67.2534 105.501C67.2534 109.126 67.7401 112.646 68.6403 115.996C69.565 119.459 70.9438 122.736 72.7038 125.769C74.4882 128.843 76.6456 131.666 79.1437 134.164C81.6418 136.662 84.4643 138.82 87.5383 140.604C90.5717 142.364 93.8484 143.743 97.3117 144.667C100.661 145.568 104.181 146.054 107.807 146.054C111.432 146.054 114.953 145.568 118.302 144.667C121.766 143.743 125.042 142.364 128.076 140.604C131.15 138.82 133.972 136.662 136.47 134.164C138.968 131.666 141.126 128.843 142.91 125.769C144.67 122.736 146.049 119.459 146.974 115.996C147.874 112.646 148.361 109.134 148.361 105.501H139.536Z" fill="url(#paint4_radial_479_2635)"/>
<path opacity="0.77" d="M145.505 104.925C144.776 102.216 143.697 99.6529 142.326 97.2765C140.931 94.8676 139.236 92.6615 137.289 90.7068C135.335 88.7521 133.129 87.057 130.72 85.67C128.343 84.2912 125.78 83.2125 123.071 82.4906C120.452 81.785 117.702 81.4038 114.855 81.4038C112.016 81.4038 109.267 81.785 106.639 82.4906C103.93 83.2206 101.367 84.2993 98.9906 85.67C96.5817 87.0651 94.3756 88.7602 92.4209 90.7068C90.4662 92.6615 88.7711 94.8676 87.3842 97.2765C86.0053 99.6529 84.9266 102.216 84.2048 104.925C83.4991 107.545 83.1179 110.294 83.1179 113.141C83.1179 115.98 83.4991 118.729 84.2048 121.357C84.9347 124.066 86.0134 126.629 87.3842 129.006C88.7792 131.414 90.4743 133.621 92.4209 135.575C94.3675 137.53 96.5898 139.225 98.9906 140.612C101.367 141.991 103.93 143.07 106.639 143.791C109.259 144.497 112.008 144.878 114.855 144.878C117.694 144.878 120.443 144.497 123.071 143.791C125.78 143.061 128.343 141.983 130.72 140.612C133.129 139.217 135.335 137.522 137.289 135.567C139.244 133.612 140.939 131.406 142.326 128.997C143.705 126.621 144.784 124.058 145.505 121.349C146.211 118.729 146.592 115.98 146.592 113.133C146.592 110.302 146.211 107.553 145.505 104.925Z" fill="url(#paint5_radial_479_2635)"/>
<path d="M138.449 97.2847C137.719 94.5758 136.64 92.0128 135.27 89.6363C133.875 87.2274 132.18 85.0213 130.233 83.0667C128.278 81.112 126.072 79.4168 123.663 78.0299C121.287 76.6511 118.724 75.5724 116.015 74.8505C113.395 74.1449 110.646 73.7637 107.799 73.7637C104.96 73.7637 102.211 74.1449 99.5826 74.8505C96.8737 75.5805 94.3107 76.6592 91.9342 78.0299C89.5254 79.4249 87.3192 81.1201 85.3646 83.0667C83.4099 85.0213 81.7147 87.2274 80.3197 89.6363C78.9409 92.0128 77.8622 94.5758 77.1403 97.2847C76.4347 99.9045 76.0535 102.654 76.0535 105.501C76.0535 108.34 76.4347 111.089 77.1403 113.717C77.8703 116.426 78.949 118.989 80.3197 121.365C81.7147 123.774 83.4099 125.98 85.3565 127.935C87.303 129.89 89.5172 131.585 91.9261 132.972C94.3026 134.351 96.8655 135.429 99.5745 136.151C102.194 136.857 104.944 137.238 107.791 137.238C110.629 137.238 113.379 136.857 116.007 136.151C118.716 135.421 121.279 134.343 123.655 132.972C126.064 131.577 128.27 129.882 130.225 127.927C132.18 125.972 133.875 123.766 135.262 121.357C136.64 118.981 137.719 116.418 138.441 113.709C139.147 111.089 139.528 108.34 139.528 105.493C139.536 102.662 139.155 99.9126 138.449 97.2847Z" fill="url(#paint6_linear_479_2635)"/>
<path d="M131.287 99.2066C130.728 97.1302 129.901 95.1674 128.846 93.3506C127.775 91.5095 126.478 89.8144 124.985 88.3139C123.485 86.8134 121.798 85.5238 119.949 84.4532C118.132 83.3988 116.169 82.5715 114.093 82.0119C112.081 81.4766 109.972 81.1846 107.799 81.1846C105.625 81.1846 103.516 81.4766 101.505 82.0119C99.4286 82.5715 97.4658 83.3988 95.649 84.4532C93.8078 85.5238 92.1127 86.8215 90.6122 88.3139C89.1117 89.8144 87.8221 91.5014 86.7515 93.3506C85.6971 95.1674 84.8698 97.1302 84.3102 99.2066C83.7749 101.218 83.4829 103.327 83.4829 105.5C83.4829 107.674 83.7749 109.783 84.3102 111.794C84.8698 113.871 85.6971 115.834 86.7515 117.65C87.8221 119.491 89.1199 121.187 90.6122 122.687C92.1127 124.188 93.7997 125.477 95.649 126.548C97.4658 127.602 99.4286 128.429 101.505 128.989C103.516 129.524 105.625 129.816 107.799 129.816C109.972 129.816 112.081 129.524 114.093 128.989C116.169 128.429 118.132 127.602 119.949 126.548C121.79 125.477 123.485 124.179 124.985 122.687C126.486 121.187 127.775 119.5 128.846 117.65C129.901 115.834 130.728 113.871 131.287 111.794C131.823 109.783 132.115 107.674 132.115 105.5C132.115 103.327 131.823 101.218 131.287 99.2066Z" fill="#F5F7F6"/>
<path d="M131.231 36.2922L135.197 34.0293L131.231 31.7583V33.8022H112.057V34.2483H131.231V36.2922Z" fill="#F5F7F6"/>
<path d="M131.231 42.6916H112.057V43.1377H131.231V45.0762L135.197 42.8052L131.231 40.5342V42.6916Z" fill="#F5F7F6"/>
<path d="M131.231 51.5486H112.057V51.9866H131.231V54.0386L135.197 51.7676L131.231 49.4966V51.5486Z" fill="#F5F7F6"/>
<path d="M131.231 60.9084H112.057V61.3545H131.231V63.1794L135.197 60.9084L131.231 58.6455V60.9084Z" fill="#F5F7F6"/>
<path d="M131.231 69.9438H112.057V70.3899H131.231V72.4419L135.197 70.1709L131.231 67.8999V69.9438Z" fill="#F5F7F6"/>
<path d="M141.632 67.6543L140.023 71.2607H139.506L141.109 67.7824H139.007V67.3769H141.632V67.6543ZM142.419 69.3135L142.616 67.3769H144.606V67.833H143.035L142.918 68.892C143.108 68.78 143.324 68.724 143.566 68.724C143.92 68.724 144.201 68.8414 144.409 69.0761C144.617 69.309 144.721 69.6247 144.721 70.023C144.721 70.4232 144.612 70.7388 144.395 70.97C144.18 71.1994 143.879 71.3141 143.491 71.3141C143.148 71.3141 142.868 71.219 142.651 71.0287C142.434 70.8384 142.31 70.5752 142.28 70.2391H142.747C142.777 70.4614 142.856 70.6294 142.984 70.7433C143.112 70.8553 143.281 70.9113 143.491 70.9113C143.721 70.9113 143.9 70.8331 144.03 70.6766C144.162 70.5201 144.227 70.304 144.227 70.0284C144.227 69.7687 144.156 69.5607 144.014 69.4042C143.873 69.2459 143.686 69.1668 143.451 69.1668C143.236 69.1668 143.067 69.2139 142.944 69.3082L142.814 69.4149L142.419 69.3135ZM145.217 68.1238C145.217 67.8908 145.291 67.6988 145.438 67.5476C145.588 67.3965 145.779 67.3209 146.012 67.3209C146.248 67.3209 146.44 67.3974 146.585 67.5503C146.733 67.7015 146.807 67.898 146.807 68.1398V68.3292C146.807 68.5639 146.732 68.756 146.583 68.9054C146.435 69.053 146.247 69.1268 146.017 69.1268C145.786 69.1268 145.595 69.053 145.444 68.9054C145.293 68.756 145.217 68.5577 145.217 68.3105V68.1238ZM145.585 68.3292C145.585 68.4679 145.624 68.5826 145.702 68.6733C145.781 68.7622 145.886 68.8067 146.017 68.8067C146.144 68.8067 146.245 68.7631 146.321 68.676C146.4 68.5888 146.439 68.4697 146.439 68.3185V68.1238C146.439 67.9851 146.4 67.8704 146.324 67.7797C146.248 67.689 146.144 67.6437 146.012 67.6437C145.88 67.6437 145.776 67.689 145.7 67.7797C145.623 67.8704 145.585 67.9887 145.585 68.1345V68.3292ZM147.108 70.3085C147.108 70.0755 147.182 69.8843 147.33 69.735C147.479 69.5838 147.67 69.5082 147.903 69.5082C148.136 69.5082 148.327 69.5829 148.477 69.7323C148.626 69.8817 148.701 70.0799 148.701 70.3271V70.5165C148.701 70.7495 148.626 70.9415 148.477 71.0927C148.329 71.2421 148.14 71.3168 147.908 71.3168C147.677 71.3168 147.486 71.243 147.335 71.0954C147.184 70.946 147.108 70.7477 147.108 70.5005V70.3085ZM147.476 70.5165C147.476 70.657 147.515 70.7726 147.594 70.8633C147.672 70.9522 147.777 70.9967 147.908 70.9967C148.037 70.9967 148.139 70.9531 148.215 70.866C148.292 70.777 148.33 70.657 148.33 70.5058V70.3085C148.33 70.168 148.291 70.0533 148.213 69.9644C148.136 69.8754 148.033 69.831 147.903 69.831C147.777 69.831 147.674 69.8754 147.594 69.9644C147.515 70.0515 147.476 70.1697 147.476 70.3191V70.5165ZM146.129 70.9673L145.849 70.7913L147.746 67.7557L148.026 67.9317L146.129 70.9673Z" fill="#F5F7F6"/>
<path d="M141.061 58.6487V59.0675H140.97C140.586 59.0746 140.28 59.1884 140.053 59.4089C139.825 59.6294 139.694 59.9397 139.658 60.3398C139.863 60.1051 140.142 59.9877 140.496 59.9877C140.833 59.9877 141.103 60.1069 141.304 60.3452C141.507 60.5835 141.608 60.8911 141.608 61.2681C141.608 61.6682 141.499 61.9883 141.28 62.2284C141.063 62.4685 140.771 62.5885 140.405 62.5885C140.033 62.5885 139.732 62.4462 139.501 62.1617C139.269 61.8754 139.154 61.5073 139.154 61.0574V60.868C139.154 60.1531 139.306 59.6072 139.61 59.2302C139.916 58.8514 140.37 58.6576 140.973 58.6487H141.061ZM140.413 60.3985C140.244 60.3985 140.088 60.4492 139.946 60.5506C139.804 60.6519 139.705 60.7791 139.65 60.932V61.1134C139.65 61.4335 139.722 61.6913 139.866 61.887C140.01 62.0826 140.19 62.1804 140.405 62.1804C140.627 62.1804 140.801 62.0986 140.928 61.935C141.056 61.7714 141.12 61.5571 141.12 61.2921C141.12 61.0254 141.055 60.8102 140.925 60.6466C140.797 60.4812 140.626 60.3985 140.413 60.3985ZM144.628 60.8787C144.628 61.4566 144.529 61.8861 144.331 62.167C144.134 62.448 143.825 62.5885 143.406 62.5885C142.991 62.5885 142.685 62.4516 142.486 62.1777C142.286 61.9021 142.183 61.4913 142.176 60.9453V60.2865C142.176 59.7156 142.275 59.2915 142.472 59.0141C142.67 58.7367 142.979 58.598 143.4 58.598C143.818 58.598 144.126 58.7322 144.323 59.0008C144.521 59.2675 144.622 59.6801 144.628 60.2385V60.8787ZM144.134 60.2038C144.134 59.7859 144.075 59.4818 143.958 59.2915C143.841 59.0995 143.655 59.0034 143.4 59.0034C143.148 59.0034 142.964 59.0986 142.848 59.2889C142.733 59.4791 142.673 59.7717 142.67 60.1664V60.956C142.67 61.3757 142.73 61.686 142.851 61.887C142.974 62.0861 143.159 62.1857 143.406 62.1857C143.649 62.1857 143.83 62.0915 143.947 61.903C144.066 61.7145 144.129 61.4175 144.134 61.012V60.2038ZM145.217 59.3982C145.217 59.1653 145.291 58.9732 145.438 58.822C145.588 58.6709 145.779 58.5953 146.012 58.5953C146.248 58.5953 146.44 58.6718 146.585 58.8247C146.733 58.9759 146.807 59.1724 146.807 59.4142V59.6036C146.807 59.8383 146.732 60.0304 146.583 60.1798C146.435 60.3274 146.247 60.4012 146.017 60.4012C145.786 60.4012 145.595 60.3274 145.444 60.1798C145.293 60.0304 145.217 59.8321 145.217 59.5849V59.3982ZM145.585 59.6036C145.585 59.7423 145.624 59.857 145.702 59.9477C145.781 60.0366 145.886 60.0811 146.017 60.0811C146.144 60.0811 146.245 60.0375 146.321 59.9504C146.4 59.8632 146.439 59.7441 146.439 59.5929V59.3982C146.439 59.2595 146.4 59.1448 146.324 59.0541C146.248 58.9634 146.144 58.9181 146.012 58.9181C145.88 58.9181 145.776 58.9634 145.7 59.0541C145.623 59.1448 145.585 59.2631 145.585 59.4089V59.6036ZM147.108 61.5829C147.108 61.3499 147.182 61.1587 147.33 61.0094C147.479 60.8582 147.67 60.7826 147.903 60.7826C148.136 60.7826 148.327 60.8573 148.477 61.0067C148.626 61.1561 148.701 61.3544 148.701 61.6015V61.7909C148.701 62.0239 148.626 62.2159 148.477 62.3671C148.329 62.5165 148.14 62.5912 147.908 62.5912C147.677 62.5912 147.486 62.5174 147.335 62.3698C147.184 62.2204 147.108 62.0221 147.108 61.7749V61.5829ZM147.476 61.7909C147.476 61.9314 147.515 62.047 147.594 62.1377C147.672 62.2266 147.777 62.2711 147.908 62.2711C148.037 62.2711 148.139 62.2275 148.215 62.1404C148.292 62.0515 148.33 61.9314 148.33 61.7803V61.5829C148.33 61.4424 148.291 61.3277 148.213 61.2388C148.136 61.1499 148.033 61.1054 147.903 61.1054C147.777 61.1054 147.674 61.1499 147.594 61.2388C147.515 61.3259 147.476 61.4442 147.476 61.5935V61.7909ZM146.129 62.2417L145.849 62.0657L147.746 59.0301L148.026 59.2062L146.129 62.2417Z" fill="#F5F7F6"/>
<path d="M139.351 51.711L139.549 49.7744H141.539V50.2305H139.967L139.85 51.2895C140.04 51.1775 140.256 51.1214 140.498 51.1214C140.852 51.1214 141.133 51.2388 141.341 51.4735C141.549 51.7065 141.653 52.0222 141.653 52.4205C141.653 52.8206 141.545 53.1363 141.328 53.3674C141.113 53.5969 140.811 53.7116 140.424 53.7116C140.08 53.7116 139.8 53.6164 139.583 53.4261C139.366 53.2359 139.243 52.9727 139.213 52.6366H139.679C139.71 52.8589 139.789 53.0269 139.917 53.1407C140.045 53.2527 140.214 53.3088 140.424 53.3088C140.653 53.3088 140.833 53.2305 140.962 53.074C141.094 52.9175 141.16 52.7015 141.16 52.4258C141.16 52.1662 141.089 51.9581 140.946 51.8016C140.806 51.6434 140.618 51.5642 140.384 51.5642C140.168 51.5642 139.999 51.6114 139.877 51.7056L139.746 51.8123L139.351 51.711ZM144.628 52.0017C144.628 52.5797 144.529 53.0091 144.331 53.2901C144.134 53.5711 143.825 53.7116 143.406 53.7116C142.991 53.7116 142.685 53.5746 142.486 53.3008C142.286 53.0251 142.183 52.6143 142.176 52.0684V51.4095C142.176 50.8387 142.275 50.4146 142.472 50.1371C142.67 49.8597 142.979 49.721 143.4 49.721C143.818 49.721 144.126 49.8553 144.323 50.1238C144.521 50.3906 144.622 50.8031 144.628 51.3615V52.0017ZM144.134 51.3268C144.134 50.9089 144.075 50.6048 143.958 50.4146C143.841 50.2225 143.655 50.1265 143.4 50.1265C143.148 50.1265 142.964 50.2216 142.848 50.4119C142.733 50.6022 142.673 50.8947 142.67 51.2895V52.0791C142.67 52.4987 142.73 52.8091 142.851 53.01C142.974 53.2092 143.159 53.3088 143.406 53.3088C143.649 53.3088 143.83 53.2145 143.947 53.026C144.066 52.8375 144.129 52.5405 144.134 52.1351V51.3268ZM145.217 50.5213C145.217 50.2883 145.291 50.0962 145.438 49.9451C145.588 49.7939 145.779 49.7184 146.012 49.7184C146.248 49.7184 146.44 49.7948 146.585 49.9478C146.733 50.0989 146.807 50.2954 146.807 50.5373V50.7267C146.807 50.9614 146.732 51.1535 146.583 51.3028C146.435 51.4504 146.247 51.5242 146.017 51.5242C145.786 51.5242 145.595 51.4504 145.444 51.3028C145.293 51.1535 145.217 50.9552 145.217 50.708V50.5213ZM145.585 50.7267C145.585 50.8654 145.624 50.9801 145.702 51.0708C145.781 51.1597 145.886 51.2041 146.017 51.2041C146.144 51.2041 146.245 51.1606 146.321 51.0734C146.4 50.9863 146.439 50.8671 146.439 50.716V50.5213C146.439 50.3826 146.4 50.2679 146.324 50.1772C146.248 50.0865 146.144 50.0411 146.012 50.0411C145.88 50.0411 145.776 50.0865 145.7 50.1772C145.623 50.2679 145.585 50.3861 145.585 50.5319V50.7267ZM147.108 52.7059C147.108 52.473 147.182 52.2818 147.33 52.1324C147.479 51.9813 147.67 51.9057 147.903 51.9057C148.136 51.9057 148.327 51.9804 148.477 52.1297C148.626 52.2791 148.701 52.4774 148.701 52.7246V52.914C148.701 53.1469 148.626 53.339 148.477 53.4902C148.329 53.6395 148.14 53.7142 147.908 53.7142C147.677 53.7142 147.486 53.6404 147.335 53.4928C147.184 53.3434 147.108 53.1452 147.108 52.898V52.7059ZM147.476 52.914C147.476 53.0545 147.515 53.1701 147.594 53.2608C147.672 53.3497 147.777 53.3941 147.908 53.3941C148.037 53.3941 148.139 53.3506 148.215 53.2634C148.292 53.1745 148.33 53.0545 148.33 52.9033V52.7059C148.33 52.5654 148.291 52.4507 148.213 52.3618C148.136 52.2729 148.033 52.2284 147.903 52.2284C147.777 52.2284 147.674 52.2729 147.594 52.3618C147.515 52.449 147.476 52.5672 147.476 52.7166V52.914ZM146.129 53.3648L145.849 53.1887L147.746 50.1532L148.026 50.3292L146.129 53.3648Z" fill="#F5F7F6"/>
<path d="M139.842 42.0675H140.213C140.446 42.064 140.629 42.0026 140.762 41.8835C140.896 41.7643 140.962 41.6034 140.962 41.4007C140.962 40.9454 140.736 40.7178 140.282 40.7178C140.069 40.7178 139.898 40.7791 139.77 40.9018C139.644 41.0228 139.581 41.1837 139.581 41.3847H139.087C139.087 41.077 139.199 40.8218 139.423 40.6191C139.649 40.4146 139.935 40.3123 140.282 40.3123C140.649 40.3123 140.936 40.4093 141.144 40.6031C141.352 40.7969 141.456 41.0663 141.456 41.4113C141.456 41.5803 141.401 41.7439 141.291 41.9021C141.182 42.0604 141.034 42.1787 140.845 42.2569C141.058 42.3245 141.223 42.4365 141.339 42.593C141.456 42.7495 141.515 42.9407 141.515 43.1665C141.515 43.5151 141.401 43.7916 141.173 43.9961C140.946 44.2006 140.649 44.3029 140.285 44.3029C139.92 44.3029 139.623 44.2042 139.394 44.0068C139.166 43.8094 139.052 43.5489 139.052 43.2252H139.549C139.549 43.4297 139.615 43.5933 139.749 43.716C139.882 43.8387 140.061 43.9001 140.285 43.9001C140.523 43.9001 140.705 43.8378 140.832 43.7134C140.958 43.5889 141.021 43.4101 141.021 43.1772C141.021 42.9513 140.952 42.778 140.813 42.657C140.674 42.5361 140.474 42.4739 140.213 42.4703H139.842V42.0675ZM144.628 42.593C144.628 43.171 144.529 43.6004 144.331 43.8814C144.134 44.1624 143.825 44.3029 143.406 44.3029C142.991 44.3029 142.685 44.1659 142.486 43.8921C142.286 43.6164 142.183 43.2056 142.176 42.6597V42.0008C142.176 41.43 142.275 41.0059 142.472 40.7285C142.67 40.451 142.979 40.3123 143.4 40.3123C143.818 40.3123 144.126 40.4466 144.323 40.7151C144.521 40.9819 144.622 41.3944 144.628 41.9528V42.593ZM144.134 41.9181C144.134 41.5002 144.075 41.1962 143.958 41.0059C143.841 40.8138 143.655 40.7178 143.4 40.7178C143.148 40.7178 142.964 40.8129 142.848 41.0032C142.733 41.1935 142.673 41.486 142.67 41.8808V42.6704C142.67 43.0901 142.73 43.4004 142.851 43.6013C142.974 43.8005 143.159 43.9001 143.406 43.9001C143.649 43.9001 143.83 43.8058 143.947 43.6173C144.066 43.4288 144.129 43.1318 144.134 42.7264V41.9181ZM145.217 41.1126C145.217 40.8796 145.291 40.6876 145.438 40.5364C145.588 40.3852 145.779 40.3097 146.012 40.3097C146.248 40.3097 146.44 40.3861 146.585 40.5391C146.733 40.6902 146.807 40.8867 146.807 41.1286V41.318C146.807 41.5527 146.732 41.7448 146.583 41.8941C146.435 42.0417 146.247 42.1155 146.017 42.1155C145.786 42.1155 145.595 42.0417 145.444 41.8941C145.293 41.7448 145.217 41.5465 145.217 41.2993V41.1126ZM145.585 41.318C145.585 41.4567 145.624 41.5714 145.702 41.6621C145.781 41.751 145.886 41.7954 146.017 41.7954C146.144 41.7954 146.245 41.7519 146.321 41.6647C146.4 41.5776 146.439 41.4585 146.439 41.3073V41.1126C146.439 40.9739 146.4 40.8592 146.324 40.7685C146.248 40.6778 146.144 40.6324 146.012 40.6324C145.88 40.6324 145.776 40.6778 145.7 40.7685C145.623 40.8592 145.585 40.9774 145.585 41.1232V41.318ZM147.108 43.2972C147.108 43.0643 147.182 42.8731 147.33 42.7237C147.479 42.5726 147.67 42.497 147.903 42.497C148.136 42.497 148.327 42.5717 148.477 42.7211C148.626 42.8704 148.701 43.0687 148.701 43.3159V43.5053C148.701 43.7382 148.626 43.9303 148.477 44.0815C148.329 44.2308 148.14 44.3055 147.908 44.3055C147.677 44.3055 147.486 44.2317 147.335 44.0841C147.184 43.9348 147.108 43.7365 147.108 43.4893V43.2972ZM147.476 43.5053C147.476 43.6458 147.515 43.7614 147.594 43.8521C147.672 43.941 147.777 43.9854 147.908 43.9854C148.037 43.9854 148.139 43.9419 148.215 43.8547C148.292 43.7658 148.33 43.6458 148.33 43.4946V43.2972C148.33 43.1567 148.291 43.042 148.213 42.9531C148.136 42.8642 148.033 42.8198 147.903 42.8198C147.777 42.8198 147.674 42.8642 147.594 42.9531C147.515 43.0403 147.476 43.1585 147.476 43.3079V43.5053ZM146.129 43.9561L145.849 43.78L147.746 40.7445L148.026 40.9205L146.129 43.9561Z" fill="#F5F7F6"/>
<path d="M140.746 34.6899H140.25V31.401L139.255 31.7664V31.3183L140.669 30.7874H140.746V34.6899ZM142.419 32.7427L142.616 30.8061H144.606V31.2622H143.035L142.918 32.3212C143.108 32.2092 143.324 32.1532 143.566 32.1532C143.92 32.1532 144.201 32.2706 144.409 32.5053C144.617 32.7382 144.721 33.0539 144.721 33.4522C144.721 33.8524 144.612 34.168 144.395 34.3992C144.18 34.6286 143.879 34.7433 143.491 34.7433C143.148 34.7433 142.868 34.6482 142.651 34.4579C142.434 34.2676 142.31 34.0044 142.28 33.6683H142.747C142.777 33.8906 142.856 34.0586 142.984 34.1725C143.112 34.2845 143.281 34.3405 143.491 34.3405C143.721 34.3405 143.9 34.2623 144.03 34.1058C144.162 33.9493 144.227 33.7332 144.227 33.4576C144.227 33.1979 144.156 32.9899 144.014 32.8334C143.873 32.6751 143.686 32.596 143.451 32.596C143.236 32.596 143.067 32.6431 142.944 32.7374L142.814 32.8441L142.419 32.7427ZM145.217 31.553C145.217 31.32 145.291 31.128 145.438 30.9768C145.588 30.8257 145.779 30.7501 146.012 30.7501C146.248 30.7501 146.44 30.8266 146.585 30.9795C146.733 31.1307 146.807 31.3272 146.807 31.569V31.7584C146.807 31.9931 146.732 32.1852 146.583 32.3346C146.435 32.4822 146.247 32.556 146.017 32.556C145.786 32.556 145.595 32.4822 145.444 32.3346C145.293 32.1852 145.217 31.9869 145.217 31.7397V31.553ZM145.585 31.7584C145.585 31.8971 145.624 32.0118 145.702 32.1025C145.781 32.1914 145.886 32.2359 146.017 32.2359C146.144 32.2359 146.245 32.1923 146.321 32.1052C146.4 32.018 146.439 31.8989 146.439 31.7477V31.553C146.439 31.4143 146.4 31.2996 146.324 31.2089C146.248 31.1182 146.144 31.0729 146.012 31.0729C145.88 31.0729 145.776 31.1182 145.7 31.2089C145.623 31.2996 145.585 31.4179 145.585 31.5637V31.7584ZM147.108 33.7377C147.108 33.5047 147.182 33.3135 147.33 33.1642C147.479 33.013 147.67 32.9374 147.903 32.9374C148.136 32.9374 148.327 33.0121 148.477 33.1615C148.626 33.3109 148.701 33.5091 148.701 33.7563V33.9457C148.701 34.1787 148.626 34.3707 148.477 34.5219C148.329 34.6713 148.14 34.746 147.908 34.746C147.677 34.746 147.486 34.6722 147.335 34.5246C147.184 34.3752 147.108 34.1769 147.108 33.9297V33.7377ZM147.476 33.9457C147.476 34.0862 147.515 34.2018 147.594 34.2925C147.672 34.3814 147.777 34.4259 147.908 34.4259C148.037 34.4259 148.139 34.3823 148.215 34.2952C148.292 34.2062 148.33 34.0862 148.33 33.935V33.7377C148.33 33.5972 148.291 33.4825 148.213 33.3936C148.136 33.3046 148.033 33.2602 147.903 33.2602C147.777 33.2602 147.674 33.3046 147.594 33.3936C147.515 33.4807 147.476 33.5989 147.476 33.7483V33.9457ZM146.129 34.3965L145.849 34.2205L147.746 31.1849L148.026 31.3609L146.129 34.3965Z" fill="#F5F7F6"/>
<path d="M111.377 100.249C109.326 98.6194 106.419 98.5923 104.449 100.195C103.037 101.336 102.33 103.048 102.33 105.262C102.33 106.729 103.648 108.834 103.811 109.106C103.824 109.119 104.911 110.586 105.169 112.339L105.237 112.773H110.711L110.779 112.339C111.037 110.586 112.124 109.119 112.151 109.079C112.3 108.848 113.618 106.742 113.618 105.275C113.604 103.102 112.857 101.418 111.377 100.249ZM107.859 103.129C106.935 103.156 106.093 103.727 105.74 104.583C105.658 104.773 105.468 104.895 105.264 104.895C105.196 104.895 105.128 104.881 105.061 104.854C104.802 104.746 104.68 104.447 104.789 104.189C105.305 102.966 106.5 102.151 107.818 102.11C108.09 102.097 108.334 102.328 108.334 102.613C108.361 102.885 108.144 103.116 107.859 103.129Z" fill="#193566"/>
<path d="M110.67 115.069H105.02C104.735 115.069 104.504 114.838 104.504 114.553C104.504 114.268 104.735 114.037 105.02 114.037H110.67C110.956 114.037 111.187 114.268 111.187 114.553C111.187 114.838 110.956 115.069 110.67 115.069Z" fill="#193566"/>
<path d="M109.394 114.797H106.174V116.142H109.394V114.797Z" fill="#193566"/>
<path d="M107.736 97.8589C107.451 97.8589 107.22 97.628 107.22 97.3427V95.9029C107.22 95.6176 107.451 95.3867 107.736 95.3867C108.022 95.3867 108.253 95.6176 108.253 95.9029V97.3427C108.253 97.6416 108.022 97.8589 107.736 97.8589Z" fill="#193566"/>
<path d="M103.648 99.0135C103.471 99.0135 103.295 98.9184 103.2 98.7554L102.48 97.5057C102.344 97.2612 102.425 96.9488 102.67 96.813C102.914 96.6772 103.227 96.7587 103.363 97.0032L104.083 98.2528C104.218 98.4973 104.137 98.8097 103.892 98.9456C103.824 98.9999 103.743 99.0135 103.648 99.0135Z" fill="#193566"/>
<path d="M100.687 102.07C100.605 102.07 100.51 102.043 100.429 102.002L99.1789 101.282C98.9344 101.146 98.8529 100.834 98.9888 100.589C99.1246 100.345 99.437 100.263 99.6815 100.399L100.931 101.119C101.176 101.255 101.257 101.567 101.121 101.812C101.04 101.975 100.863 102.07 100.687 102.07Z" fill="#193566"/>
<path d="M99.6408 106.186H98.201C97.9157 106.186 97.6848 105.955 97.6848 105.669C97.6848 105.384 97.9157 105.153 98.201 105.153H99.6408C99.9261 105.153 100.157 105.384 100.157 105.669C100.157 105.955 99.9261 106.186 99.6408 106.186Z" fill="#193566"/>
<path d="M99.5593 110.994C99.3828 110.994 99.2062 110.899 99.1111 110.736C98.9753 110.491 99.0568 110.179 99.3013 110.043L100.551 109.323C100.795 109.187 101.108 109.269 101.244 109.513C101.38 109.758 101.298 110.07 101.054 110.206L99.8038 110.926C99.7359 110.967 99.6408 110.994 99.5593 110.994Z" fill="#193566"/>
<path d="M116.267 110.804C116.185 110.804 116.09 110.777 116.009 110.736L114.759 110.016C114.515 109.88 114.433 109.568 114.569 109.323C114.705 109.079 115.017 108.997 115.262 109.133L116.511 109.853C116.756 109.989 116.837 110.301 116.701 110.546C116.606 110.709 116.443 110.804 116.267 110.804Z" fill="#193566"/>
<path d="M117.503 105.955H116.063C115.778 105.955 115.547 105.724 115.547 105.439C115.547 105.153 115.778 104.922 116.063 104.922H117.503C117.788 104.922 118.019 105.153 118.019 105.439C118.019 105.724 117.788 105.955 117.503 105.955Z" fill="#193566"/>
<path d="M114.908 101.866C114.732 101.866 114.555 101.771 114.46 101.608C114.324 101.363 114.406 101.051 114.65 100.915L115.9 100.195C116.145 100.059 116.457 100.141 116.593 100.385C116.729 100.63 116.647 100.942 116.403 101.078L115.153 101.798C115.085 101.852 114.99 101.866 114.908 101.866Z" fill="#193566"/>
<path d="M111.866 98.9051C111.784 98.9051 111.689 98.8779 111.608 98.8372C111.363 98.7013 111.282 98.3889 111.417 98.1444L112.137 96.8948C112.273 96.6503 112.586 96.5688 112.83 96.7046C113.075 96.8404 113.156 97.1528 113.02 97.3973L112.3 98.647C112.205 98.81 112.029 98.9051 111.866 98.9051Z" fill="#193566"/>
<defs>
<radialGradient id="paint0_radial_479_2635" cx="0" cy="0" r="1" gradientUnits="userSpaceOnUse" gradientTransform="translate(69.8938 91.3239) rotate(-90) scale(65.2316)">
<stop stop-color="#0066FF"/>
<stop offset="0.276042" stop-color="#0066FF"/>
<stop offset="0.6406" stop-color="#0097CE"/>
<stop offset="1" stop-color="#0058CB"/>
</radialGradient>
<linearGradient id="paint1_linear_479_2635" x1="74.3013" y1="173.745" x2="74.3013" y2="42.8385" gradientUnits="userSpaceOnUse">
<stop stop-color="#27B7FF"/>
<stop offset="0.9899" stop-color="#F408AB"/>
</linearGradient>
<radialGradient id="paint2_radial_479_2635" cx="0" cy="0" r="1" gradientUnits="userSpaceOnUse" gradientTransform="translate(78.7086 91.3238) rotate(-90) scale(65.2318)">
<stop stop-color="#0066FF"/>
<stop offset="0.307292" stop-color="#0066FF"/>
<stop offset="0.651042" stop-color="#0097CE"/>
<stop offset="0.9819" stop-color="#0058CB"/>
</radialGradient>
<linearGradient id="paint3_linear_479_2635" x1="104.482" y1="173.745" x2="104.482" y2="42.838" gradientUnits="userSpaceOnUse">
<stop stop-color="#27B7FF"/>
<stop offset="0.9899" stop-color="#F408AB"/>
</linearGradient>
<radialGradient id="paint4_radial_479_2635" cx="0" cy="0" r="1" gradientUnits="userSpaceOnUse" gradientTransform="translate(107.8 91.3241) rotate(-90) scale(65.2315)">
<stop stop-color="#0066FF"/>
<stop offset="0.338542" stop-color="#0066FF"/>
<stop offset="0.692708" stop-color="#0097CE"/>
<stop offset="0.9819" stop-color="#0058CB"/>
</radialGradient>
<radialGradient id="paint5_radial_479_2635" cx="0" cy="0" r="1" gradientUnits="userSpaceOnUse" gradientTransform="translate(114.852 113.141) scale(31.7366)">
<stop offset="0.000116"/>
<stop offset="0.0894" stop-color="#1D1D1D"/>
<stop offset="0.3464" stop-color="#6C6C6C"/>
<stop offset="0.5751" stop-color="#ABABAB"/>
<stop offset="0.7669" stop-color="#D9D9D9"/>
<stop offset="0.9145" stop-color="#F5F5F5"/>
<stop offset="1" stop-color="white"/>
</radialGradient>
<linearGradient id="paint6_linear_479_2635" x1="136.008" y1="133.71" x2="83.8751" y2="81.5772" gradientUnits="userSpaceOnUse">
<stop stop-color="#071A35"/>
<stop offset="1" stop-color="#193566"/>
</linearGradient>
</defs>
</svg>
