<svg width="253" height="151" viewBox="0 0 253 151" fill="none" xmlns="http://www.w3.org/2000/svg">
<rect x="0.262207" width="252.243" height="150.048" rx="14.7953" fill="black"/>
<rect x="0.570442" y="0.308235" width="251.627" height="149.432" rx="14.4871" stroke="white" stroke-opacity="0.5" stroke-width="0.616471"/>
<path d="M228.583 27.6831H34.0718V28.2752H228.583V27.6831Z" fill="#FDFEFF"/>
<path d="M228.583 34.3096H34.0718V34.9016H228.583V34.3096Z" fill="#FDFEFF"/>
<path d="M228.583 40.936H34.0718V41.5281H228.583V40.936Z" fill="#FDFEFF"/>
<path d="M228.583 47.5708H34.0718V48.171H228.583V47.5708Z" fill="#FDFEFF"/>
<path d="M228.583 54.1973H34.0718V54.7975H228.583V54.1973Z" fill="#FDFEFF"/>
<path d="M228.583 60.8232H34.0718V61.4234H228.583V60.8232Z" fill="#FDFEFF"/>
<path d="M228.583 67.4502H34.0718V68.0423H228.583V67.4502Z" fill="#FDFEFF"/>
<path d="M228.583 74.0762H34.0718V74.6764H228.583V74.0762Z" fill="#FDFEFF"/>
<path d="M228.583 80.7026H34.0718V81.2947H228.583V80.7026Z" fill="#FDFEFF"/>
<path d="M228.583 87.3374H34.0718V87.9295H228.583V87.3374Z" fill="#FDFEFF"/>
<path d="M228.583 93.9639H34.0718V94.556H228.583V93.9639Z" fill="#FDFEFF"/>
<path d="M228.583 100.59H34.0718V101.182H228.583V100.59Z" fill="#FDFEFF"/>
<path d="M228.583 107.217H34.0718V107.809H228.583V107.217Z" fill="#FDFEFF"/>
<path d="M228.583 113.843H34.0718V114.435H228.583V113.843Z" fill="#FDFEFF"/>
<path d="M34.1448 27.8613H33.5527V114.403H34.1448V27.8613Z" fill="#FDFEFF"/>
<path d="M51.8423 27.8613H51.2502V114.403H51.8423V27.8613Z" fill="#FDFEFF"/>
<path d="M69.5401 27.8613H68.948V114.403H69.5401V27.8613Z" fill="#FDFEFF"/>
<path d="M87.2376 27.8613H86.6455V114.403H87.2376V27.8613Z" fill="#FDFEFF"/>
<path d="M104.935 27.8613H104.343V114.403H104.935V27.8613Z" fill="#FDFEFF"/>
<path d="M122.625 27.8613H122.032V114.403H122.625V27.8613Z" fill="#FDFEFF"/>
<path d="M140.322 27.8613H139.73V114.403H140.322V27.8613Z" fill="#FDFEFF"/>
<path d="M158.02 27.8613H157.428V114.403H158.02V27.8613Z" fill="#FDFEFF"/>
<path d="M175.717 27.8613H175.125V114.403H175.717V27.8613Z" fill="#FDFEFF"/>
<path d="M193.415 27.8613H192.823V114.403H193.415V27.8613Z" fill="#FDFEFF"/>
<path d="M211.112 27.8613H210.52V114.403H211.112V27.8613Z" fill="#FDFEFF"/>
<path d="M228.802 27.8613H228.21V114.403H228.802V27.8613Z" fill="#FDFEFF"/>
<path d="M47.3793 124.374H44.8783V124.025L46.1996 122.557C46.3953 122.335 46.5299 122.155 46.6033 122.017C46.6784 121.877 46.716 121.733 46.716 121.585C46.716 121.385 46.6557 121.222 46.5351 121.094C46.4145 120.967 46.2537 120.903 46.0528 120.903C45.8116 120.903 45.6237 120.972 45.4891 121.11C45.3563 121.246 45.2899 121.437 45.2899 121.682H44.8048C44.8048 121.33 44.9176 121.046 45.143 120.83C45.3702 120.613 45.6735 120.504 46.0528 120.504C46.4075 120.504 46.6881 120.598 46.8943 120.785C47.1005 120.97 47.2037 121.218 47.2037 121.527C47.2037 121.903 46.9642 122.35 46.4853 122.869L45.4629 123.978H47.3793V124.374ZM50.2867 122.746C50.2867 123.314 50.1897 123.736 49.9957 124.012C49.8017 124.288 49.4985 124.426 49.086 124.426C48.6788 124.426 48.3773 124.292 48.1815 124.023C47.9858 123.752 47.8844 123.348 47.8774 122.812V122.164C47.8774 121.603 47.9744 121.186 48.1684 120.913C48.3624 120.641 48.6665 120.504 49.0808 120.504C49.4915 120.504 49.7938 120.636 49.9878 120.9C50.1818 121.163 50.2815 121.568 50.2867 122.117V122.746ZM49.8017 122.083C49.8017 121.672 49.744 121.373 49.6287 121.186C49.5133 120.997 49.3307 120.903 49.0808 120.903C48.8326 120.903 48.6517 120.996 48.5381 121.183C48.4245 121.37 48.3659 121.658 48.3624 122.046V122.822C48.3624 123.234 48.4218 123.539 48.5407 123.737C48.6613 123.933 48.8431 124.031 49.086 124.031C49.3254 124.031 49.5028 123.938 49.6182 123.753C49.7353 123.567 49.7965 123.276 49.8017 122.877V122.083ZM52.502 124.374H52.0144V121.142L51.0365 121.501V121.06L52.426 120.539H52.502V124.374ZM54.1458 122.46L54.3398 120.557H56.2955V121.005H54.7514L54.636 122.046C54.823 121.936 55.0354 121.881 55.2731 121.881C55.6209 121.881 55.897 121.996 56.1015 122.227C56.306 122.456 56.4082 122.766 56.4082 123.158C56.4082 123.551 56.3016 123.861 56.0884 124.088C55.8769 124.314 55.5807 124.426 55.1997 124.426C54.8624 124.426 54.5871 124.333 54.3739 124.146C54.1606 123.959 54.0392 123.7 54.0094 123.37H54.4682C54.4979 123.588 54.5757 123.754 54.7016 123.865C54.8274 123.976 54.9934 124.031 55.1997 124.031C55.4251 124.031 55.6017 123.954 55.7292 123.8C55.8586 123.646 55.9232 123.434 55.9232 123.163C55.9232 122.908 55.8533 122.703 55.7135 122.549C55.5754 122.394 55.391 122.316 55.1603 122.316C54.9489 122.316 54.7828 122.362 54.6622 122.455L54.5338 122.56L54.1458 122.46Z" fill="#F5F7F6"/>
<path d="M65.7814 124.374H63.2804V124.025L64.6017 122.557C64.7974 122.335 64.932 122.155 65.0054 122.017C65.0805 121.877 65.1181 121.733 65.1181 121.585C65.1181 121.385 65.0578 121.222 64.9372 121.094C64.8166 120.967 64.6558 120.903 64.4549 120.903C64.2137 120.903 64.0258 120.972 63.8912 121.11C63.7584 121.246 63.692 121.437 63.692 121.682H63.2069C63.2069 121.33 63.3197 121.046 63.5451 120.83C63.7723 120.613 64.0756 120.504 64.4549 120.504C64.8096 120.504 65.0902 120.598 65.2964 120.785C65.5026 120.97 65.6058 121.218 65.6058 121.527C65.6058 121.903 65.3663 122.35 64.8874 122.869L63.865 123.978H65.7814V124.374ZM68.6888 122.746C68.6888 123.314 68.5918 123.736 68.3978 124.012C68.2038 124.288 67.9006 124.426 67.4881 124.426C67.0809 124.426 66.7794 124.292 66.5836 124.023C66.3879 123.752 66.2865 123.348 66.2795 122.812V122.164C66.2795 121.603 66.3765 121.186 66.5705 120.913C66.7645 120.641 67.0686 120.504 67.4828 120.504C67.8936 120.504 68.1959 120.636 68.3899 120.9C68.5839 121.163 68.6836 121.568 68.6888 122.117V122.746ZM68.2038 122.083C68.2038 121.672 68.1461 121.373 68.0308 121.186C67.9154 120.997 67.7328 120.903 67.4828 120.903C67.2347 120.903 67.0538 120.996 66.9402 121.183C66.8266 121.37 66.768 121.658 66.7645 122.046V122.822C66.7645 123.234 66.8239 123.539 66.9428 123.737C67.0634 123.933 67.2452 124.031 67.4881 124.031C67.7275 124.031 67.9049 123.938 68.0203 123.753C68.1374 123.567 68.1986 123.276 68.2038 122.877V122.083ZM70.9041 124.374H70.4165V121.142L69.4386 121.501V121.06L70.8281 120.539H70.9041V124.374ZM74.2283 120.554V120.966H74.1392C73.7617 120.973 73.4611 121.085 73.2374 121.301C73.0136 121.518 72.8843 121.823 72.8494 122.216C73.0503 121.986 73.3247 121.87 73.6726 121.87C74.0046 121.87 74.2694 121.987 74.4669 122.222C74.6662 122.456 74.7658 122.758 74.7658 123.129C74.7658 123.522 74.6583 123.837 74.4433 124.073C74.2301 124.308 73.9435 124.426 73.5834 124.426C73.2181 124.426 72.9219 124.287 72.6947 124.007C72.4675 123.726 72.3539 123.364 72.3539 122.922V122.735C72.3539 122.033 72.5033 121.496 72.8022 121.126C73.1028 120.754 73.5493 120.563 74.1418 120.554H74.2283ZM73.5913 122.274C73.4252 122.274 73.2723 122.324 73.1325 122.424C72.9927 122.523 72.8957 122.648 72.8415 122.798V122.977C72.8415 123.291 72.9123 123.545 73.0538 123.737C73.1954 123.929 73.3719 124.025 73.5834 124.025C73.8019 124.025 73.9732 123.945 74.0973 123.784C74.2231 123.623 74.286 123.413 74.286 123.152C74.286 122.89 74.2222 122.679 74.0946 122.518C73.9688 122.355 73.801 122.274 73.5913 122.274Z" fill="#F5F7F6"/>
<path d="M83.9543 124.374H81.4532V124.025L82.7745 122.557C82.9703 122.335 83.1048 122.155 83.1782 122.017C83.2534 121.877 83.291 121.733 83.291 121.585C83.291 121.385 83.2307 121.222 83.1101 121.094C82.9895 120.967 82.8287 120.903 82.6277 120.903C82.3865 120.903 82.1986 120.972 82.064 121.11C81.9312 121.246 81.8648 121.437 81.8648 121.682H81.3798C81.3798 121.33 81.4925 121.046 81.718 120.83C81.9452 120.613 82.2484 120.504 82.6277 120.504C82.9825 120.504 83.263 120.598 83.4692 120.785C83.6755 120.97 83.7786 121.218 83.7786 121.527C83.7786 121.903 83.5392 122.35 83.0603 122.869L82.0378 123.978H83.9543V124.374ZM86.8617 122.746C86.8617 123.314 86.7647 123.736 86.5707 124.012C86.3767 124.288 86.0734 124.426 85.6609 124.426C85.2537 124.426 84.9522 124.292 84.7565 124.023C84.5607 123.752 84.4594 123.348 84.4524 122.812V122.164C84.4524 121.603 84.5494 121.186 84.7434 120.913C84.9374 120.641 85.2415 120.504 85.6557 120.504C86.0664 120.504 86.3688 120.636 86.5628 120.9C86.7568 121.163 86.8564 121.568 86.8617 122.117V122.746ZM86.3767 122.083C86.3767 121.672 86.319 121.373 86.2036 121.186C86.0883 120.997 85.9056 120.903 85.6557 120.903C85.4075 120.903 85.2266 120.996 85.113 121.183C84.9994 121.37 84.9409 121.658 84.9374 122.046V122.822C84.9374 123.234 84.9968 123.539 85.1156 123.737C85.2362 123.933 85.418 124.031 85.6609 124.031C85.9004 124.031 86.0778 123.938 86.1931 123.753C86.3102 123.567 86.3714 123.276 86.3767 122.877V122.083ZM89.0769 124.374H88.5893V121.142L87.6114 121.501V121.06L89.0009 120.539H89.0769V124.374ZM92.9622 120.83L91.3814 124.374H90.8728L92.4484 120.955H90.3825V120.557H92.9622V120.83Z" fill="#F5F7F6"/>
<path d="M101.131 124.374H98.6297V124.025L99.951 122.557C100.147 122.335 100.281 122.155 100.355 122.017C100.43 121.877 100.467 121.733 100.467 121.585C100.467 121.385 100.407 121.222 100.287 121.094C100.166 120.967 100.005 120.903 99.8042 120.903C99.563 120.903 99.3751 120.972 99.2406 121.11C99.1077 121.246 99.0413 121.437 99.0413 121.682H98.5563C98.5563 121.33 98.669 121.046 98.8945 120.83C99.1217 120.613 99.425 120.504 99.8042 120.504C100.159 120.504 100.44 120.598 100.646 120.785C100.852 120.97 100.955 121.218 100.955 121.527C100.955 121.903 100.716 122.35 100.237 122.869L99.2143 123.978H101.131V124.374ZM104.038 122.746C104.038 123.314 103.941 123.736 103.747 124.012C103.553 124.288 103.25 124.426 102.837 124.426C102.43 124.426 102.129 124.292 101.933 124.023C101.737 123.752 101.636 123.348 101.629 122.812V122.164C101.629 121.603 101.726 121.186 101.92 120.913C102.114 120.641 102.418 120.504 102.832 120.504C103.243 120.504 103.545 120.636 103.739 120.9C103.933 121.163 104.033 121.568 104.038 122.117V122.746ZM103.553 122.083C103.553 121.672 103.495 121.373 103.38 121.186C103.265 120.997 103.082 120.903 102.832 120.903C102.584 120.903 102.403 120.996 102.29 121.183C102.176 121.37 102.117 121.658 102.114 122.046V122.822C102.114 123.234 102.173 123.539 102.292 123.737C102.413 123.933 102.595 124.031 102.837 124.031C103.077 124.031 103.254 123.938 103.37 123.753C103.487 123.567 103.548 123.276 103.553 122.877V122.083ZM106.253 124.374H105.766V121.142L104.788 121.501V121.06L106.177 120.539H106.253V124.374ZM109.989 121.553C109.989 121.744 109.939 121.913 109.837 122.062C109.738 122.21 109.602 122.327 109.431 122.41C109.63 122.496 109.787 122.621 109.903 122.785C110.02 122.95 110.078 123.136 110.078 123.344C110.078 123.674 109.967 123.937 109.743 124.133C109.521 124.329 109.228 124.426 108.865 124.426C108.498 124.426 108.203 124.329 107.981 124.133C107.761 123.935 107.651 123.672 107.651 123.344C107.651 123.137 107.707 122.951 107.819 122.785C107.932 122.619 108.089 122.493 108.288 122.408C108.118 122.324 107.985 122.208 107.887 122.059C107.789 121.911 107.74 121.742 107.74 121.553C107.74 121.232 107.843 120.976 108.049 120.788C108.256 120.599 108.527 120.504 108.865 120.504C109.2 120.504 109.471 120.599 109.677 120.788C109.885 120.976 109.989 121.232 109.989 121.553ZM109.593 123.333C109.593 123.12 109.525 122.946 109.389 122.812C109.254 122.677 109.078 122.61 108.859 122.61C108.641 122.61 108.465 122.676 108.332 122.809C108.201 122.942 108.136 123.117 108.136 123.333C108.136 123.55 108.2 123.72 108.327 123.844C108.457 123.969 108.636 124.031 108.865 124.031C109.092 124.031 109.27 123.969 109.399 123.844C109.529 123.719 109.593 123.548 109.593 123.333ZM108.865 120.903C108.674 120.903 108.519 120.962 108.401 121.081C108.283 121.198 108.225 121.358 108.225 121.561C108.225 121.755 108.283 121.912 108.398 122.033C108.515 122.152 108.671 122.211 108.865 122.211C109.059 122.211 109.213 122.152 109.329 122.033C109.446 121.912 109.504 121.755 109.504 121.561C109.504 121.367 109.444 121.209 109.323 121.086C109.203 120.964 109.05 120.903 108.865 120.903Z" fill="#F5F7F6"/>
<path d="M118.998 124.374H116.497V124.025L117.818 122.557C118.014 122.335 118.149 122.155 118.222 122.017C118.297 121.877 118.335 121.733 118.335 121.585C118.335 121.385 118.274 121.222 118.154 121.094C118.033 120.967 117.872 120.903 117.671 120.903C117.43 120.903 117.242 120.972 117.108 121.11C116.975 121.246 116.909 121.437 116.909 121.682H116.424C116.424 121.33 116.536 121.046 116.762 120.83C116.989 120.613 117.292 120.504 117.671 120.504C118.026 120.504 118.307 120.598 118.513 120.785C118.719 120.97 118.822 121.218 118.822 121.527C118.822 121.903 118.583 122.35 118.104 122.869L117.082 123.978H118.998V124.374ZM121.905 122.746C121.905 123.314 121.808 123.736 121.614 124.012C121.42 124.288 121.117 124.426 120.705 124.426C120.297 124.426 119.996 124.292 119.8 124.023C119.604 123.752 119.503 123.348 119.496 122.812V122.164C119.496 121.603 119.593 121.186 119.787 120.913C119.981 120.641 120.285 120.504 120.699 120.504C121.11 120.504 121.412 120.636 121.606 120.9C121.8 121.163 121.9 121.568 121.905 122.117V122.746ZM121.42 122.083C121.42 121.672 121.363 121.373 121.247 121.186C121.132 120.997 120.949 120.903 120.699 120.903C120.451 120.903 120.27 120.996 120.157 121.183C120.043 121.37 119.985 121.658 119.981 122.046V122.822C119.981 123.234 120.04 123.539 120.159 123.737C120.28 123.933 120.462 124.031 120.705 124.031C120.944 124.031 121.121 123.938 121.237 123.753C121.354 123.567 121.415 123.276 121.42 122.877V122.083ZM124.121 124.374H123.633V121.142L122.655 121.501V121.06L124.045 120.539H124.121V124.374ZM127.4 122.696C127.299 122.817 127.177 122.914 127.036 122.987C126.896 123.061 126.742 123.097 126.575 123.097C126.354 123.097 126.162 123.043 125.998 122.935C125.835 122.826 125.709 122.674 125.62 122.479C125.531 122.281 125.487 122.063 125.487 121.826C125.487 121.571 125.535 121.341 125.631 121.136C125.729 120.932 125.867 120.775 126.045 120.667C126.223 120.559 126.431 120.504 126.669 120.504C127.046 120.504 127.344 120.646 127.56 120.929C127.779 121.211 127.888 121.595 127.888 122.083V122.224C127.888 122.967 127.741 123.51 127.448 123.852C127.154 124.193 126.711 124.368 126.118 124.377H126.024V123.968H126.126C126.526 123.961 126.834 123.857 127.049 123.656C127.264 123.453 127.381 123.133 127.4 122.696ZM126.653 122.696C126.816 122.696 126.965 122.646 127.101 122.547C127.24 122.447 127.34 122.324 127.403 122.177V121.983C127.403 121.665 127.334 121.406 127.196 121.207C127.058 121.008 126.883 120.908 126.672 120.908C126.458 120.908 126.287 120.99 126.158 121.155C126.028 121.317 125.964 121.532 125.964 121.8C125.964 122.06 126.026 122.275 126.15 122.444C126.276 122.612 126.443 122.696 126.653 122.696Z" fill="#F5F7F6"/>
<path d="M137.401 124.374H134.9V124.025L136.221 122.557C136.417 122.335 136.552 122.155 136.625 122.017C136.7 121.877 136.738 121.733 136.738 121.585C136.738 121.385 136.677 121.222 136.557 121.094C136.436 120.967 136.275 120.903 136.074 120.903C135.833 120.903 135.645 120.972 135.511 121.11C135.378 121.246 135.312 121.437 135.312 121.682H134.827C134.827 121.33 134.939 121.046 135.165 120.83C135.392 120.613 135.695 120.504 136.074 120.504C136.429 120.504 136.71 120.598 136.916 120.785C137.122 120.97 137.225 121.218 137.225 121.527C137.225 121.903 136.986 122.35 136.507 122.869L135.485 123.978H137.401V124.374ZM140.308 122.746C140.308 123.314 140.211 123.736 140.017 124.012C139.823 124.288 139.52 124.426 139.108 124.426C138.7 124.426 138.399 124.292 138.203 124.023C138.008 123.752 137.906 123.348 137.899 122.812V122.164C137.899 121.603 137.996 121.186 138.19 120.913C138.384 120.641 138.688 120.504 139.102 120.504C139.513 120.504 139.816 120.636 140.01 120.9C140.204 121.163 140.303 121.568 140.308 122.117V122.746ZM139.823 122.083C139.823 121.672 139.766 121.373 139.65 121.186C139.535 120.997 139.352 120.903 139.102 120.903C138.854 120.903 138.673 120.996 138.56 121.183C138.446 121.37 138.388 121.658 138.384 122.046V122.822C138.384 123.234 138.444 123.539 138.562 123.737C138.683 123.933 138.865 124.031 139.108 124.031C139.347 124.031 139.525 123.938 139.64 123.753C139.757 123.567 139.818 123.276 139.823 122.877V122.083ZM143.431 124.374H140.93V124.025L142.251 122.557C142.447 122.335 142.581 122.155 142.655 122.017C142.73 121.877 142.768 121.733 142.768 121.585C142.768 121.385 142.707 121.222 142.587 121.094C142.466 120.967 142.305 120.903 142.104 120.903C141.863 120.903 141.675 120.972 141.541 121.11C141.408 121.246 141.341 121.437 141.341 121.682H140.856C140.856 121.33 140.969 121.046 141.195 120.83C141.422 120.613 141.725 120.504 142.104 120.504C142.459 120.504 142.74 120.598 142.946 120.785C143.152 120.97 143.255 121.218 143.255 121.527C143.255 121.903 143.016 122.35 142.537 122.869L141.514 123.978H143.431V124.374ZM146.338 122.746C146.338 123.314 146.241 123.736 146.047 124.012C145.853 124.288 145.55 124.426 145.138 124.426C144.73 124.426 144.429 124.292 144.233 124.023C144.037 123.752 143.936 123.348 143.929 122.812V122.164C143.929 121.603 144.026 121.186 144.22 120.913C144.414 120.641 144.718 120.504 145.132 120.504C145.543 120.504 145.845 120.636 146.039 120.9C146.233 121.163 146.333 121.568 146.338 122.117V122.746ZM145.853 122.083C145.853 121.672 145.796 121.373 145.68 121.186C145.565 120.997 145.382 120.903 145.132 120.903C144.884 120.903 144.703 120.996 144.59 121.183C144.476 121.37 144.417 121.658 144.414 122.046V122.822C144.414 123.234 144.473 123.539 144.592 123.737C144.713 123.933 144.895 124.031 145.138 124.031C145.377 124.031 145.554 123.938 145.67 123.753C145.787 123.567 145.848 123.276 145.853 122.877V122.083Z" fill="#F5F7F6"/>
<path d="M155.65 124.374H153.149V124.025L154.47 122.557C154.666 122.335 154.801 122.155 154.874 122.017C154.949 121.877 154.987 121.733 154.987 121.585C154.987 121.385 154.926 121.222 154.806 121.094C154.685 120.967 154.524 120.903 154.324 120.903C154.082 120.903 153.894 120.972 153.76 121.11C153.627 121.246 153.561 121.437 153.561 121.682H153.076C153.076 121.33 153.188 121.046 153.414 120.83C153.641 120.613 153.944 120.504 154.324 120.504C154.678 120.504 154.959 120.598 155.165 120.785C155.371 120.97 155.474 121.218 155.474 121.527C155.474 121.903 155.235 122.35 154.756 122.869L153.734 123.978H155.65V124.374ZM158.557 122.746C158.557 123.314 158.46 123.736 158.266 124.012C158.072 124.288 157.769 124.426 157.357 124.426C156.95 124.426 156.648 124.292 156.452 124.023C156.257 123.752 156.155 123.348 156.148 122.812V122.164C156.148 121.603 156.245 121.186 156.439 120.913C156.633 120.641 156.937 120.504 157.352 120.504C157.762 120.504 158.065 120.636 158.259 120.9C158.453 121.163 158.552 121.568 158.557 122.117V122.746ZM158.072 122.083C158.072 121.672 158.015 121.373 157.899 121.186C157.784 120.997 157.601 120.903 157.352 120.903C157.103 120.903 156.922 120.996 156.809 121.183C156.695 121.37 156.637 121.658 156.633 122.046V122.822C156.633 123.234 156.693 123.539 156.811 123.737C156.932 123.933 157.114 124.031 157.357 124.031C157.596 124.031 157.774 123.938 157.889 123.753C158.006 123.567 158.067 123.276 158.072 122.877V122.083ZM161.68 124.374H159.179V124.025L160.5 122.557C160.696 122.335 160.83 122.155 160.904 122.017C160.979 121.877 161.017 121.733 161.017 121.585C161.017 121.385 160.956 121.222 160.836 121.094C160.715 120.967 160.554 120.903 160.353 120.903C160.112 120.903 159.924 120.972 159.79 121.11C159.657 121.246 159.59 121.437 159.59 121.682H159.105C159.105 121.33 159.218 121.046 159.444 120.83C159.671 120.613 159.974 120.504 160.353 120.504C160.708 120.504 160.989 120.598 161.195 120.785C161.401 120.97 161.504 121.218 161.504 121.527C161.504 121.903 161.265 122.35 160.786 122.869L159.763 123.978H161.68V124.374ZM163.788 124.374H163.3V121.142L162.322 121.501V121.06L163.712 120.539H163.788V124.374Z" fill="#F5F7F6"/>
<path d="M172.942 124.374H170.441V124.025L171.763 122.557C171.958 122.335 172.093 122.155 172.166 122.017C172.241 121.877 172.279 121.733 172.279 121.585C172.279 121.385 172.219 121.222 172.098 121.094C171.978 120.967 171.817 120.903 171.616 120.903C171.375 120.903 171.187 120.972 171.052 121.11C170.919 121.246 170.853 121.437 170.853 121.682H170.368C170.368 121.33 170.481 121.046 170.706 120.83C170.933 120.613 171.236 120.504 171.616 120.504C171.971 120.504 172.251 120.598 172.457 120.785C172.664 120.97 172.767 121.218 172.767 121.527C172.767 121.903 172.527 122.35 172.048 122.869L171.026 123.978H172.942V124.374ZM175.85 122.746C175.85 123.314 175.753 123.736 175.559 124.012C175.365 124.288 175.061 124.426 174.649 124.426C174.242 124.426 173.94 124.292 173.745 124.023C173.549 123.752 173.447 123.348 173.44 122.812V122.164C173.44 121.603 173.537 121.186 173.731 120.913C173.925 120.641 174.23 120.504 174.644 120.504C175.054 120.504 175.357 120.636 175.551 120.9C175.745 121.163 175.844 121.568 175.85 122.117V122.746ZM175.365 122.083C175.365 121.672 175.307 121.373 175.192 121.186C175.076 120.997 174.894 120.903 174.644 120.903C174.396 120.903 174.215 120.996 174.101 121.183C173.987 121.37 173.929 121.658 173.925 122.046V122.822C173.925 123.234 173.985 123.539 174.104 123.737C174.224 123.933 174.406 124.031 174.649 124.031C174.888 124.031 175.066 123.938 175.181 123.753C175.298 123.567 175.359 123.276 175.365 122.877V122.083ZM178.972 124.374H176.471V124.025L177.792 122.557C177.988 122.335 178.123 122.155 178.196 122.017C178.271 121.877 178.309 121.733 178.309 121.585C178.309 121.385 178.248 121.222 178.128 121.094C178.007 120.967 177.847 120.903 177.646 120.903C177.404 120.903 177.216 120.972 177.082 121.11C176.949 121.246 176.883 121.437 176.883 121.682H176.398C176.398 121.33 176.51 121.046 176.736 120.83C176.963 120.613 177.266 120.504 177.646 120.504C178 120.504 178.281 120.598 178.487 120.785C178.693 120.97 178.796 121.218 178.796 121.527C178.796 121.903 178.557 122.35 178.078 122.869L177.056 123.978H178.972V124.374ZM181.987 124.374H179.486V124.025L180.807 122.557C181.003 122.335 181.138 122.155 181.211 122.017C181.286 121.877 181.324 121.733 181.324 121.585C181.324 121.385 181.263 121.222 181.143 121.094C181.022 120.967 180.861 120.903 180.66 120.903C180.419 120.903 180.231 120.972 180.097 121.11C179.964 121.246 179.898 121.437 179.898 121.682H179.413C179.413 121.33 179.525 121.046 179.751 120.83C179.978 120.613 180.281 120.504 180.66 120.504C181.015 120.504 181.296 120.598 181.502 120.785C181.708 120.97 181.811 121.218 181.811 121.527C181.811 121.903 181.572 122.35 181.093 122.869L180.071 123.978H181.987V124.374Z" fill="#F5F7F6"/>
<path d="M190.273 124.374H187.772V124.025L189.093 122.557C189.289 122.335 189.423 122.155 189.497 122.017C189.572 121.877 189.609 121.733 189.609 121.585C189.609 121.385 189.549 121.222 189.428 121.094C189.308 120.967 189.147 120.903 188.946 120.903C188.705 120.903 188.517 120.972 188.382 121.11C188.25 121.246 188.183 121.437 188.183 121.682H187.698C187.698 121.33 187.811 121.046 188.036 120.83C188.264 120.613 188.567 120.504 188.946 120.504C189.301 120.504 189.581 120.598 189.788 120.785C189.994 120.97 190.097 121.218 190.097 121.527C190.097 121.903 189.858 122.35 189.379 122.869L188.356 123.978H190.273V124.374ZM193.18 122.746C193.18 123.314 193.083 123.736 192.889 124.012C192.695 124.288 192.392 124.426 191.979 124.426C191.572 124.426 191.271 124.292 191.075 124.023C190.879 123.752 190.778 123.348 190.771 122.812V122.164C190.771 121.603 190.868 121.186 191.062 120.913C191.256 120.641 191.56 120.504 191.974 120.504C192.385 120.504 192.687 120.636 192.881 120.9C193.075 121.163 193.175 121.568 193.18 122.117V122.746ZM192.695 122.083C192.695 121.672 192.637 121.373 192.522 121.186C192.407 120.997 192.224 120.903 191.974 120.903C191.726 120.903 191.545 120.996 191.431 121.183C191.318 121.37 191.259 121.658 191.256 122.046V122.822C191.256 123.234 191.315 123.539 191.434 123.737C191.555 123.933 191.736 124.031 191.979 124.031C192.219 124.031 192.396 123.938 192.511 123.753C192.629 123.567 192.69 123.276 192.695 122.877V122.083ZM196.302 124.374H193.801V124.025L195.123 122.557C195.318 122.335 195.453 122.155 195.526 122.017C195.602 121.877 195.639 121.733 195.639 121.585C195.639 121.385 195.579 121.222 195.458 121.094C195.338 120.967 195.177 120.903 194.976 120.903C194.735 120.903 194.547 120.972 194.412 121.11C194.279 121.246 194.213 121.437 194.213 121.682H193.728C193.728 121.33 193.841 121.046 194.066 120.83C194.293 120.613 194.597 120.504 194.976 120.504C195.331 120.504 195.611 120.598 195.817 120.785C196.024 120.97 196.127 121.218 196.127 121.527C196.127 121.903 195.887 122.35 195.408 122.869L194.386 123.978H196.302V124.374ZM197.521 122.23H197.886C198.115 122.226 198.295 122.166 198.426 122.049C198.557 121.932 198.623 121.773 198.623 121.574C198.623 121.127 198.4 120.903 197.954 120.903C197.744 120.903 197.577 120.963 197.451 121.084C197.327 121.203 197.265 121.361 197.265 121.558H196.78C196.78 121.256 196.89 121.005 197.11 120.806C197.332 120.605 197.613 120.504 197.954 120.504C198.314 120.504 198.596 120.6 198.801 120.79C199.005 120.981 199.108 121.246 199.108 121.585C199.108 121.751 199.053 121.911 198.945 122.067C198.838 122.223 198.692 122.339 198.507 122.416C198.717 122.482 198.879 122.592 198.992 122.746C199.108 122.9 199.165 123.088 199.165 123.31C199.165 123.652 199.053 123.924 198.83 124.125C198.606 124.326 198.315 124.426 197.957 124.426C197.598 124.426 197.306 124.329 197.081 124.135C196.857 123.941 196.745 123.685 196.745 123.367H197.233C197.233 123.568 197.299 123.729 197.43 123.85C197.561 123.97 197.736 124.031 197.957 124.031C198.191 124.031 198.37 123.969 198.494 123.847C198.618 123.725 198.68 123.549 198.68 123.32C198.68 123.098 198.612 122.928 198.476 122.809C198.339 122.69 198.143 122.629 197.886 122.625H197.521V122.23Z" fill="#F5F7F6"/>
<path d="M208.101 124.374H205.6V124.025L206.921 122.557C207.117 122.335 207.252 122.155 207.325 122.017C207.4 121.877 207.438 121.733 207.438 121.585C207.438 121.385 207.378 121.222 207.257 121.094C207.136 120.967 206.976 120.903 206.775 120.903C206.533 120.903 206.346 120.972 206.211 121.11C206.078 121.246 206.012 121.437 206.012 121.682H205.527C205.527 121.33 205.64 121.046 205.865 120.83C206.092 120.613 206.395 120.504 206.775 120.504C207.129 120.504 207.41 120.598 207.616 120.785C207.822 120.97 207.926 121.218 207.926 121.527C207.926 121.903 207.686 122.35 207.207 122.869L206.185 123.978H208.101V124.374ZM211.009 122.746C211.009 123.314 210.912 123.736 210.718 124.012C210.524 124.288 210.22 124.426 209.808 124.426C209.401 124.426 209.099 124.292 208.903 124.023C208.708 123.752 208.606 123.348 208.599 122.812V122.164C208.599 121.603 208.696 121.186 208.89 120.913C209.084 120.641 209.388 120.504 209.803 120.504C210.213 120.504 210.516 120.636 210.71 120.9C210.904 121.163 211.003 121.568 211.009 122.117V122.746ZM210.524 122.083C210.524 121.672 210.466 121.373 210.351 121.186C210.235 120.997 210.053 120.903 209.803 120.903C209.554 120.903 209.374 120.996 209.26 121.183C209.146 121.37 209.088 121.658 209.084 122.046V122.822C209.084 123.234 209.144 123.539 209.263 123.737C209.383 123.933 209.565 124.031 209.808 124.031C210.047 124.031 210.225 123.938 210.34 123.753C210.457 123.567 210.518 123.276 210.524 122.877V122.083ZM214.131 124.374H211.63V124.025L212.951 122.557C213.147 122.335 213.282 122.155 213.355 122.017C213.43 121.877 213.468 121.733 213.468 121.585C213.468 121.385 213.407 121.222 213.287 121.094C213.166 120.967 213.005 120.903 212.804 120.903C212.563 120.903 212.375 120.972 212.241 121.11C212.108 121.246 212.042 121.437 212.042 121.682H211.557C211.557 121.33 211.669 121.046 211.895 120.83C212.122 120.613 212.425 120.504 212.804 120.504C213.159 120.504 213.44 120.598 213.646 120.785C213.852 120.97 213.955 121.218 213.955 121.527C213.955 121.903 213.716 122.35 213.237 122.869L212.215 123.978H214.131V124.374ZM216.692 123.092H217.222V123.488H216.692V124.374H216.205V123.488H214.467V123.202L216.176 120.557H216.692V123.092ZM215.017 123.092H216.205V121.22L216.147 121.325L215.017 123.092Z" fill="#F5F7F6"/>
<path d="M31.2835 122.965C31.2835 123.533 31.1865 123.955 30.9925 124.231C30.7985 124.507 30.4953 124.645 30.0828 124.645C29.6756 124.645 29.3741 124.511 29.1784 124.241C28.9826 123.971 28.8812 123.567 28.8742 123.03V122.383C28.8742 121.822 28.9712 121.405 29.1652 121.132C29.3592 120.86 29.6634 120.723 30.0776 120.723C30.4883 120.723 30.7907 120.855 30.9847 121.119C31.1787 121.381 31.2783 121.787 31.2835 122.336V122.965ZM30.7985 122.301C30.7985 121.891 30.7409 121.592 30.6255 121.405C30.5101 121.216 30.3275 121.122 30.0776 121.122C29.8294 121.122 29.6485 121.215 29.5349 121.402C29.4213 121.589 29.3627 121.877 29.3592 122.265V123.041C29.3592 123.453 29.4187 123.758 29.5375 123.956C29.6581 124.151 29.8399 124.249 30.0828 124.249C30.3223 124.249 30.4997 124.157 30.615 123.971C30.7321 123.786 30.7933 123.494 30.7985 123.096V122.301Z" fill="#F5F7F6"/>
<path d="M26.5054 108.679H26.0178V105.446L25.0399 105.805V105.365L26.4294 104.843H26.5054V108.679ZM30.3199 107.051C30.3199 107.619 30.2229 108.041 30.0289 108.317C29.8349 108.593 29.5317 108.731 29.1192 108.731C28.712 108.731 28.4105 108.597 28.2147 108.327C28.019 108.057 27.9176 107.653 27.9106 107.116V106.469C27.9106 105.908 28.0076 105.491 28.2016 105.218C28.3956 104.945 28.6997 104.809 29.114 104.809C29.5247 104.809 29.827 104.941 30.021 105.205C30.215 105.467 30.3147 105.873 30.3199 106.421V107.051ZM29.8349 106.387C29.8349 105.977 29.7772 105.678 29.6619 105.491C29.5465 105.302 29.3639 105.208 29.114 105.208C28.8658 105.208 28.6849 105.301 28.5713 105.488C28.4577 105.675 28.3991 105.963 28.3956 106.351V107.127C28.3956 107.539 28.455 107.844 28.5739 108.042C28.6945 108.237 28.8763 108.335 29.1192 108.335C29.3586 108.335 29.536 108.243 29.6514 108.057C29.7685 107.872 29.8297 107.58 29.8349 107.182V106.387Z" fill="#F5F7F6"/>
<path d="M27.4125 95.5171H24.9115V95.1684L26.2328 93.7003C26.4285 93.4783 26.5631 93.2983 26.6365 93.1602C26.7117 93.0204 26.7492 92.8762 26.7492 92.7277C26.7492 92.5284 26.6889 92.365 26.5683 92.2374C26.4477 92.1098 26.2869 92.046 26.086 92.046C25.8448 92.046 25.6569 92.1151 25.5223 92.2531C25.3895 92.3895 25.3231 92.58 25.3231 92.8247H24.8381C24.8381 92.4734 24.9508 92.1893 25.1762 91.9726C25.4035 91.7559 25.7067 91.6475 26.086 91.6475C26.4407 91.6475 26.7213 91.741 26.9275 91.9281C27.1337 92.1133 27.2369 92.3606 27.2369 92.67C27.2369 93.0458 26.9974 93.4932 26.5185 94.0123L25.4961 95.1212H27.4125V95.5171ZM30.3199 93.889C30.3199 94.4571 30.2229 94.8792 30.0289 95.1553C29.8349 95.4314 29.5317 95.5695 29.1192 95.5695C28.712 95.5695 28.4105 95.4349 28.2147 95.1658C28.019 94.8949 27.9176 94.4912 27.9106 93.9546V93.307C27.9106 92.746 28.0076 92.3292 28.2016 92.0565C28.3956 91.7839 28.6997 91.6475 29.114 91.6475C29.5247 91.6475 29.827 91.7795 30.021 92.0434C30.215 92.3056 30.3147 92.7111 30.3199 93.2599V93.889ZM29.8349 93.2258C29.8349 92.815 29.7772 92.5162 29.6619 92.3292C29.5465 92.1404 29.3639 92.046 29.114 92.046C28.8658 92.046 28.6849 92.1395 28.5713 92.3265C28.4577 92.5136 28.3991 92.8011 28.3956 93.1891V93.9651C28.3956 94.3775 28.455 94.6825 28.5739 94.88C28.6945 95.0758 28.8763 95.1737 29.1192 95.1737C29.3586 95.1737 29.536 95.081 29.6514 94.8958C29.7685 94.7105 29.8297 94.4186 29.8349 94.0201V93.2258Z" fill="#F5F7F6"/>
<path d="M25.6167 79.753H25.9811C26.21 79.7495 26.3901 79.6892 26.5211 79.5721C26.6522 79.455 26.7178 79.2968 26.7178 79.0975C26.7178 78.6501 26.4949 78.4264 26.0493 78.4264C25.8395 78.4264 25.6717 78.4867 25.5459 78.6073C25.4218 78.7261 25.3598 78.8843 25.3598 79.0818H24.8748C24.8748 78.7795 24.9849 78.5286 25.2051 78.3294C25.427 78.1284 25.7084 78.0279 26.0493 78.0279C26.4093 78.0279 26.6916 78.1232 26.896 78.3137C27.1005 78.5042 27.2028 78.769 27.2028 79.108C27.2028 79.2741 27.1486 79.4349 27.0402 79.5904C26.9336 79.746 26.7877 79.8622 26.6024 79.9391C26.8121 80.0055 26.9738 80.1156 27.0874 80.2694C27.2028 80.4232 27.2605 80.6111 27.2605 80.8331C27.2605 81.1756 27.1486 81.4474 26.9249 81.6484C26.7012 81.8494 26.4102 81.9499 26.0519 81.9499C25.6936 81.9499 25.4017 81.8529 25.1762 81.6589C24.9525 81.4649 24.8407 81.2088 24.8407 80.8907H25.3283C25.3283 81.0917 25.3938 81.2525 25.5249 81.3731C25.656 81.4937 25.8317 81.554 26.0519 81.554C26.2861 81.554 26.4652 81.4929 26.5893 81.3705C26.7134 81.2482 26.7754 81.0725 26.7754 80.8436C26.7754 80.6216 26.7073 80.4512 26.571 80.3323C26.4346 80.2135 26.238 80.1523 25.9811 80.1488H25.6167V79.753ZM30.3199 80.2694C30.3199 80.8374 30.2229 81.2595 30.0289 81.5357C29.8349 81.8118 29.5317 81.9499 29.1192 81.9499C28.712 81.9499 28.4105 81.8153 28.2147 81.5462C28.019 81.2753 27.9176 80.8715 27.9106 80.335V79.6874C27.9106 79.1264 28.0076 78.7095 28.2016 78.4369C28.3956 78.1642 28.6997 78.0279 29.114 78.0279C29.5247 78.0279 29.827 78.1599 30.021 78.4238C30.215 78.6859 30.3147 79.0914 30.3199 79.6402V80.2694ZM29.8349 79.6061C29.8349 79.1954 29.7772 78.8966 29.6619 78.7095C29.5465 78.5208 29.3639 78.4264 29.114 78.4264C28.8658 78.4264 28.6849 78.5199 28.5713 78.7069C28.4577 78.8939 28.3991 79.1814 28.3956 79.5694V80.3454C28.3956 80.7579 28.455 81.0629 28.5739 81.2604C28.6945 81.4562 28.8763 81.554 29.1192 81.554C29.3586 81.554 29.536 81.4614 29.6514 81.2761C29.7685 81.0909 29.8297 80.799 29.8349 80.4005V79.6061Z" fill="#F5F7F6"/>
<path d="M26.959 67.4558H27.4885V67.8517H26.959V68.7378H26.4713V67.8517H24.7332V67.5659L26.4425 64.9207H26.959V67.4558ZM25.2837 67.4558H26.4713V65.584L26.4137 65.6888L25.2837 67.4558ZM30.3199 67.1098C30.3199 67.6778 30.2229 68.0999 30.0289 68.376C29.8349 68.6522 29.5317 68.7902 29.1192 68.7902C28.712 68.7902 28.4105 68.6556 28.2147 68.3865C28.019 68.1156 27.9176 67.7119 27.9106 67.1753V66.5277C27.9106 65.9667 28.0076 65.5499 28.2016 65.2772C28.3956 65.0046 28.6997 64.8682 29.114 64.8682C29.5247 64.8682 29.827 65.0002 30.021 65.2641C30.215 65.5263 30.3147 65.9318 30.3199 66.4806V67.1098ZM29.8349 66.4465C29.8349 66.0358 29.7772 65.7369 29.6619 65.5499C29.5465 65.3611 29.3639 65.2667 29.114 65.2667C28.8658 65.2667 28.6849 65.3602 28.5713 65.5473C28.4577 65.7343 28.3991 66.0218 28.3956 66.4098V67.1858C28.3956 67.5983 28.455 67.9032 28.5739 68.1007C28.6945 68.2965 28.8763 68.3944 29.1192 68.3944C29.3586 68.3944 29.536 68.3017 29.6514 68.1165C29.7685 67.9312 29.8297 67.6393 29.8349 67.2408V66.4465Z" fill="#F5F7F6"/>
<path d="M25.1343 54.198L25.3283 52.2947H27.284V52.743H25.7399L25.6245 53.7838C25.8116 53.6737 26.0239 53.6186 26.2616 53.6186C26.6094 53.6186 26.8856 53.734 27.09 53.9647C27.2945 54.1936 27.3968 54.5039 27.3968 54.8954C27.3968 55.2886 27.2902 55.5988 27.0769 55.8261C26.8655 56.0515 26.5692 56.1642 26.1882 56.1642C25.8509 56.1642 25.5756 56.0707 25.3624 55.8837C25.1492 55.6967 25.0277 55.4381 24.998 55.1077H25.4568C25.4865 55.3262 25.5642 55.4914 25.6901 55.6032C25.8159 55.7133 25.982 55.7684 26.1882 55.7684C26.4137 55.7684 26.5902 55.6915 26.7178 55.5377C26.8471 55.3839 26.9118 55.1715 26.9118 54.9006C26.9118 54.6454 26.8419 54.441 26.702 54.2872C26.564 54.1316 26.3796 54.0538 26.1489 54.0538C25.9374 54.0538 25.7714 54.1001 25.6508 54.1928L25.5223 54.2976L25.1343 54.198ZM30.3199 54.4838C30.3199 55.0518 30.2229 55.4739 30.0289 55.75C29.8349 56.0262 29.5317 56.1642 29.1192 56.1642C28.712 56.1642 28.4105 56.0297 28.2147 55.7605C28.019 55.4896 27.9176 55.0859 27.9106 54.5493V53.9018C27.9106 53.3407 28.0076 52.9239 28.2016 52.6512C28.3956 52.3786 28.6997 52.2423 29.114 52.2423C29.5247 52.2423 29.827 52.3742 30.021 52.6381C30.215 52.9003 30.3147 53.3058 30.3199 53.8546V54.4838ZM29.8349 53.8205C29.8349 53.4098 29.7772 53.1109 29.6619 52.9239C29.5465 52.7351 29.3639 52.6408 29.114 52.6408C28.8658 52.6408 28.6849 52.7343 28.5713 52.9213C28.4577 53.1083 28.3991 53.3958 28.3956 53.7838V54.5598C28.3956 54.9723 28.455 55.2773 28.5739 55.4748C28.6945 55.6705 28.8763 55.7684 29.1192 55.7684C29.3586 55.7684 29.536 55.6757 29.6514 55.4905C29.7685 55.3052 29.8297 55.0133 29.8349 54.6149V53.8205Z" fill="#F5F7F6"/>
<path d="M26.8148 39.1319V39.5435H26.7256C26.3481 39.5505 26.0475 39.6624 25.8238 39.8791C25.6001 40.0958 25.4707 40.4008 25.4358 40.794C25.6368 40.5633 25.9112 40.448 26.259 40.448C26.5911 40.448 26.8558 40.5651 27.0533 40.7993C27.2526 41.0335 27.3522 41.3359 27.3522 41.7064C27.3522 42.0996 27.2447 42.4142 27.0297 42.6502C26.8165 42.8861 26.5299 43.0041 26.1698 43.0041C25.8046 43.0041 25.5083 42.8643 25.2811 42.5846C25.0539 42.3032 24.9403 41.9415 24.9403 41.4993V41.3131C24.9403 40.6105 25.0897 40.074 25.3886 39.7034C25.6892 39.3312 26.1358 39.1407 26.7283 39.1319H26.8148ZM26.1777 40.8517C26.0117 40.8517 25.8587 40.9015 25.7189 41.0012C25.5791 41.1008 25.4821 41.2257 25.4279 41.3761V41.5543C25.4279 41.8689 25.4987 42.1223 25.6403 42.3146C25.7818 42.5069 25.9584 42.603 26.1698 42.603C26.3883 42.603 26.5596 42.5226 26.6837 42.3618C26.8095 42.201 26.8724 41.9904 26.8724 41.73C26.8724 41.4678 26.8087 41.2563 26.6811 41.0955C26.5552 40.933 26.3874 40.8517 26.1777 40.8517ZM30.3199 41.3236C30.3199 41.8916 30.2229 42.3137 30.0289 42.5899C29.8349 42.866 29.5317 43.0041 29.1192 43.0041C28.712 43.0041 28.4105 42.8695 28.2147 42.6004C28.019 42.3295 27.9176 41.9257 27.9106 41.3892V40.7416C27.9106 40.1806 28.0076 39.7637 28.2016 39.4911C28.3956 39.2184 28.6997 39.0821 29.114 39.0821C29.5247 39.0821 29.827 39.2141 30.021 39.478C30.215 39.7401 30.3147 40.1456 30.3199 40.6944V41.3236ZM29.8349 40.6603C29.8349 40.2496 29.7772 39.9508 29.6619 39.7637C29.5465 39.575 29.3639 39.4806 29.114 39.4806C28.8658 39.4806 28.6849 39.5741 28.5713 39.7611C28.4577 39.9481 28.3991 40.2356 28.3956 40.6236V41.3996C28.3956 41.8121 28.455 42.1171 28.5739 42.3146C28.6945 42.5104 28.8763 42.6082 29.1192 42.6082C29.3586 42.6082 29.536 42.5156 29.6514 42.3303C29.7685 42.1451 29.8297 41.8532 29.8349 41.4547V40.6603Z" fill="#F5F7F6"/>
<path d="M27.3758 25.7876L25.795 29.332H25.2864L26.862 25.9134H24.7961V25.5149H27.3758V25.7876ZM30.3199 27.704C30.3199 28.272 30.2229 28.6941 30.0289 28.9702C29.8349 29.2464 29.5317 29.3845 29.1192 29.3845C28.712 29.3845 28.4105 29.2499 28.2147 28.9807C28.019 28.7098 27.9176 28.3061 27.9106 27.7695V27.122C27.9106 26.561 28.0076 26.1441 28.2016 25.8715C28.3956 25.5988 28.6997 25.4625 29.114 25.4625C29.5247 25.4625 29.827 25.5944 30.021 25.8584C30.215 26.1205 30.3147 26.526 30.3199 27.0748V27.704ZM29.8349 27.0407C29.8349 26.63 29.7772 26.3311 29.6619 26.1441C29.5465 25.9554 29.3639 25.861 29.114 25.861C28.8658 25.861 28.6849 25.9545 28.5713 26.1415C28.4577 26.3285 28.3991 26.616 28.3956 27.004V27.78C28.3956 28.1925 28.455 28.4975 28.5739 28.695C28.6945 28.8907 28.8763 28.9886 29.1192 28.9886C29.3586 28.9886 29.536 28.896 29.6514 28.7107C29.7685 28.5254 29.8297 28.2336 29.8349 27.8351V27.0407Z" fill="#F5F7F6"/>
<path d="M210.65 61.0425H192.425L174.825 48.187L157.379 61.959L139.316 55.3812L122.179 81.3923H104.124L86.3859 94.5154L69.0939 74.4738L51.4937 81.2057V114.833H210.764L210.65 61.0425Z" fill="url(#paint0_linear_479_2731)"/>
<path d="M86.3128 95.1396L68.9559 75.0169L51.6557 81.6353L51.3313 80.7755L69.2316 73.9301L86.4507 93.8987L103.97 80.9378H121.935L139.138 54.8213L157.298 61.4396L174.809 47.6108L192.571 60.5799H210.65V61.5045H192.271L174.833 48.7626L157.46 62.4778L139.503 55.9324L122.43 81.8543H104.27L86.3128 95.1396Z" fill="url(#paint1_linear_479_2731)"/>
<path d="M53.4563 81.2055C53.4563 82.2923 52.5804 83.1683 51.4935 83.1683C50.4067 83.1683 49.5308 82.2923 49.5308 81.2055C49.5308 80.1186 50.4067 79.2427 51.4935 79.2427C52.5804 79.2427 53.4563 80.1186 53.4563 81.2055Z" fill="#F5F7F6"/>
<path d="M71.0567 74.4736C71.0567 75.5604 70.1807 76.4364 69.0939 76.4364C68.0071 76.4364 67.1311 75.5604 67.1311 74.4736C67.1311 73.3868 68.0071 72.5108 69.0939 72.5108C70.1807 72.5027 71.0567 73.3868 71.0567 74.4736Z" fill="#F5F7F6"/>
<path d="M88.3487 94.515C88.3487 95.6019 87.4646 96.4778 86.3859 96.4778C85.2991 96.4778 84.4231 95.5938 84.4231 94.515C84.4231 93.4282 85.2991 92.5522 86.3859 92.5522C87.4727 92.5522 88.3487 93.4282 88.3487 94.515Z" fill="#F5F7F6"/>
<path d="M106.087 81.392C106.087 82.4788 105.211 83.3548 104.124 83.3548C103.037 83.3548 102.161 82.4707 102.161 81.392C102.161 80.3052 103.037 79.4292 104.124 79.4292C105.211 79.4292 106.087 80.3133 106.087 81.392Z" fill="#F5F7F6"/>
<path d="M124.149 81.392C124.149 82.4788 123.273 83.3548 122.186 83.3548C121.1 83.3548 120.224 82.4707 120.224 81.392C120.224 80.3052 121.108 79.4292 122.186 79.4292C123.265 79.4292 124.149 80.3133 124.149 81.392Z" fill="#F5F7F6"/>
<path d="M141.287 55.3812C141.287 56.4681 140.411 57.344 139.324 57.344C138.238 57.344 137.362 56.46 137.362 55.3812C137.362 54.2944 138.238 53.4185 139.324 53.4185C140.403 53.4185 141.287 54.2944 141.287 55.3812Z" fill="#F5F7F6"/>
<path d="M159.342 61.9589C159.342 63.0457 158.466 63.9217 157.379 63.9217C156.292 63.9217 155.416 63.0457 155.416 61.9589C155.416 60.872 156.292 59.9961 157.379 59.9961C158.466 59.9961 159.342 60.872 159.342 61.9589Z" fill="#F5F7F6"/>
<path d="M176.788 48.1869C176.788 49.2737 175.904 50.1497 174.825 50.1497C173.738 50.1497 172.862 49.2656 172.862 48.1869C172.862 47.1001 173.738 46.2241 174.825 46.2241C175.912 46.2241 176.788 47.1001 176.788 48.1869Z" fill="#F5F7F6"/>
<path d="M194.388 61.0424C194.388 62.1292 193.512 63.0052 192.425 63.0052C191.338 63.0052 190.462 62.1292 190.462 61.0424C190.462 59.9555 191.338 59.0796 192.425 59.0796C193.504 59.0796 194.388 59.9555 194.388 61.0424Z" fill="#F5F7F6"/>
<path d="M212.613 61.1151C212.613 62.202 211.729 63.0779 210.65 63.0779C209.563 63.0779 208.687 62.1939 208.687 61.1151C208.687 60.0283 209.563 59.1523 210.65 59.1523C211.729 59.1523 212.613 60.0364 212.613 61.1151Z" fill="#F5F7F6"/>
<defs>
<linearGradient id="paint0_linear_479_2731" x1="131.128" y1="125.163" x2="131.128" y2="59.6622" gradientUnits="userSpaceOnUse">
<stop offset="0.0101" stop-color="white" stop-opacity="0"/>
<stop offset="1" stop-color="white"/>
</linearGradient>
<linearGradient id="paint1_linear_479_2731" x1="51.6087" y1="71.3753" x2="176.256" y2="71.3753" gradientUnits="userSpaceOnUse">
<stop stop-color="#00EAD1"/>
<stop offset="0.1291" stop-color="#00E0D1"/>
<stop offset="0.3516" stop-color="#00C4CF"/>
<stop offset="0.6406" stop-color="#0097CE"/>
<stop offset="0.9819" stop-color="#0058CB"/>
<stop offset="0.9999" stop-color="#0055CB"/>
</linearGradient>
</defs>
</svg>
