<svg width="193" height="116" viewBox="0 0 193 116" fill="none" xmlns="http://www.w3.org/2000/svg">
<rect y="0.80957" width="192.224" height="114.361" rx="14.7953" fill="black"/>
<rect x="0.308235" y="1.11781" width="191.607" height="113.745" rx="14.4871" stroke="white" stroke-opacity="0.5" stroke-width="0.616471"/>
<path d="M31.8806 28.2842H31.4832V83.656H31.8806V28.2842Z" fill="white"/>
<path d="M165.699 83.4612H31.5642V83.8586H165.699V83.4612Z" fill="white"/>
<path d="M165.699 72.3821H31.5642V72.7795H165.699V72.3821Z" fill="white"/>
<path d="M165.699 61.311H31.5642V61.7085H165.699V61.311Z" fill="white"/>
<path d="M165.699 50.2397H31.5642V50.6372H165.699V50.2397Z" fill="white"/>
<path d="M165.699 39.1606H31.5642V39.5581H165.699V39.1606Z" fill="white"/>
<path d="M165.699 28.0894H31.5645V28.4868H165.699V28.0894Z" fill="white"/>
<path d="M48.6374 28.2842H48.24V83.656H48.6374V28.2842Z" fill="white"/>
<path d="M65.394 28.2842H64.9966V83.656H65.394V28.2842Z" fill="white"/>
<path d="M82.1508 28.2842H81.7534V83.656H82.1508V28.2842Z" fill="white"/>
<path d="M98.9074 28.2842H98.51V83.656H98.9074V28.2842Z" fill="white"/>
<path d="M115.664 28.2842H115.267V83.656H115.664V28.2842Z" fill="white"/>
<path d="M132.421 28.2842H132.023V83.656H132.421V28.2842Z" fill="white"/>
<path d="M149.178 28.2842H148.78V83.656H149.178V28.2842Z" fill="white"/>
<path d="M165.934 28.2842H165.537V83.656H165.934V28.2842Z" fill="white"/>
<path d="M32.132 61.0188L49.0023 49.0312L65.0858 60.816H82.3535L99.2319 37.8546L115.307 49.0312L132.583 37.6519H165.732V83.6477H31.7021L32.132 61.0188Z" fill="url(#paint0_linear_479_2826)"/>
<path d="M165.732 83.6475V48.9661H149.851L132.916 60.613L115.705 37.5786L99.0292 49.7771H82.3535L65.1507 72.8115L49.0023 60.613L31.7833 72.5358L31.7021 83.6475H165.732Z" fill="url(#paint1_linear_479_2826)"/>
<path d="M36.3404 86.5307H36.6511V88.1904C36.6511 88.4146 36.5835 88.5901 36.4483 88.7168C36.3142 88.8434 36.1349 88.9067 35.9106 88.9067C35.6778 88.9067 35.4964 88.8471 35.3665 88.728C35.2367 88.6089 35.1717 88.442 35.1717 88.2274H35.4808C35.4808 88.3615 35.5173 88.4662 35.5903 88.5413C35.6643 88.6164 35.7711 88.654 35.9106 88.654C36.0383 88.654 36.1414 88.6137 36.2197 88.5332C36.2991 88.4527 36.3394 88.3401 36.3404 88.1952V86.5307ZM38.4364 88.2628H37.4544L37.2339 88.8745H36.9151L37.8102 86.5307H38.0806L38.9773 88.8745H38.6602L38.4364 88.2628ZM37.5478 88.0084H38.3446L37.9454 86.9122L37.5478 88.0084ZM41.0941 88.8745H40.7835L39.6035 87.0683V88.8745H39.2928V86.5307H39.6035L40.7867 88.3449V86.5307H41.0941V88.8745Z" fill="#F5F7F6"/>
<path d="M53.7537 87.8394H52.7701V88.8745H52.461V86.5307H53.913V86.785H52.7701V87.5867H53.7537V87.8394ZM55.6081 87.7911H54.5924V88.6218H55.7723V88.8745H54.2833V86.5307H55.7562V86.785H54.5924V87.5384H55.6081V87.7911ZM56.1571 88.8745V86.5307H56.9233C57.1777 86.5307 57.3687 86.5833 57.4964 86.6884C57.6252 86.7936 57.6896 86.9492 57.6896 87.1553C57.6896 87.2647 57.6585 87.3618 57.5962 87.4466C57.534 87.5303 57.4492 87.5953 57.3419 87.6414C57.4685 87.6768 57.5683 87.7444 57.6413 87.8442C57.7154 87.943 57.7524 88.061 57.7524 88.1984C57.7524 88.4087 57.6842 88.574 57.5479 88.6942C57.4116 88.8144 57.219 88.8745 56.97 88.8745H56.1571ZM56.4662 87.7782V88.6218H56.9765C57.1203 88.6218 57.2335 88.5848 57.3161 88.5107C57.3998 88.4356 57.4417 88.3326 57.4417 88.2016C57.4417 87.9194 57.2882 87.7782 56.9813 87.7782H56.4662ZM56.4662 87.5303H56.933C57.0682 87.5303 57.1761 87.4965 57.2566 87.4289C57.3381 87.3613 57.3789 87.2696 57.3789 87.1537C57.3789 87.0249 57.3414 86.9315 57.2662 86.8735C57.1911 86.8145 57.0768 86.785 56.9233 86.785H56.4662V87.5303Z" fill="#F5F7F6"/>
<path d="M70.7865 86.5307L71.5528 88.4431L72.319 86.5307H72.7199V88.8745H72.4108V87.9618L72.4398 86.9766L71.6703 88.8745H71.4336L70.6658 86.9814L70.6964 87.9618V88.8745H70.3873V86.5307H70.7865ZM74.5888 88.2628H73.6069L73.3863 88.8745H73.0676L73.9626 86.5307H74.2331L75.1297 88.8745H74.8126L74.5888 88.2628ZM73.7002 88.0084H74.4971L74.0978 86.9122L73.7002 88.0084ZM76.3049 87.9263H75.7543V88.8745H75.4436V86.5307H76.2195C76.4835 86.5307 76.6864 86.5908 76.828 86.711C76.9708 86.8312 77.0421 87.0061 77.0421 87.2357C77.0421 87.3817 77.0024 87.5089 76.923 87.6173C76.8447 87.7257 76.7352 87.8067 76.5946 87.8603L77.1452 88.8552V88.8745H76.8136L76.3049 87.9263ZM75.7543 87.6736H76.2292C76.3827 87.6736 76.5045 87.6339 76.5946 87.5545C76.6858 87.4751 76.7315 87.3688 76.7315 87.2357C76.7315 87.0909 76.688 86.9798 76.6011 86.9025C76.5152 86.8253 76.3907 86.7861 76.2276 86.785H75.7543V87.6736Z" fill="#F5F7F6"/>
<path d="M88.7843 88.2628H87.8024L87.5818 88.8745H87.2631L88.1581 86.5307H88.4286L89.3252 88.8745H89.0081L88.7843 88.2628ZM87.8957 88.0084H88.6926L88.2934 86.9122L87.8957 88.0084ZM89.9498 87.9569V88.8745H89.6407V86.5307H90.5052C90.7617 86.5307 90.9624 86.5961 91.1073 86.7271C91.2532 86.858 91.3262 87.0313 91.3262 87.247C91.3262 87.4745 91.2548 87.65 91.1121 87.7734C90.9704 87.8958 90.7671 87.9569 90.502 87.9569H89.9498ZM89.9498 87.7042H90.5052C90.6705 87.7042 90.7971 87.6656 90.8851 87.5883C90.9731 87.51 91.0171 87.3973 91.0171 87.2502C91.0171 87.1107 90.9731 86.9991 90.8851 86.9154C90.7971 86.8317 90.6764 86.7882 90.5229 86.785H89.9498V87.7042ZM92.5802 87.9263H92.0297V88.8745H91.719V86.5307H92.4949C92.7589 86.5307 92.9617 86.5908 93.1034 86.711C93.2461 86.8312 93.3175 87.0061 93.3175 87.2357C93.3175 87.3817 93.2778 87.5089 93.1984 87.6173C93.12 87.7257 93.0106 87.8067 92.87 87.8603L93.4205 88.8552V88.8745H93.0889L92.5802 87.9263ZM92.0297 87.6736H92.5046C92.658 87.6736 92.7798 87.6339 92.87 87.5545C92.9612 87.4751 93.0068 87.3688 93.0068 87.2357C93.0068 87.0909 92.9633 86.9798 92.8764 86.9025C92.7906 86.8253 92.6661 86.7861 92.5029 86.785H92.0297V87.6736Z" fill="#F5F7F6"/>
<path d="M106.64 86.5307L107.406 88.4431L108.173 86.5307H108.573V88.8745H108.264V87.9618L108.293 86.9766L107.524 88.8745H107.287L106.519 86.9814L106.55 87.9618V88.8745H106.241V86.5307H106.64ZM110.442 88.2628H109.46L109.24 88.8745H108.921L109.816 86.5307H110.087L110.983 88.8745H110.666L110.442 88.2628ZM109.554 88.0084H110.351L109.951 86.9122L109.554 88.0084ZM111.862 87.7074L112.474 86.5307H112.825L112.017 88.0004V88.8745H111.708V88.0004L110.9 86.5307H111.254L111.862 87.7074Z" fill="#F5F7F6"/>
<path d="M124.325 86.5307H124.636V88.1904C124.636 88.4146 124.568 88.5901 124.433 88.7168C124.299 88.8434 124.12 88.9067 123.895 88.9067C123.663 88.9067 123.481 88.8471 123.351 88.728C123.222 88.6089 123.157 88.442 123.157 88.2274H123.466C123.466 88.3615 123.502 88.4662 123.575 88.5413C123.649 88.6164 123.756 88.654 123.895 88.654C124.023 88.654 124.126 88.6137 124.205 88.5332C124.284 88.4527 124.324 88.3401 124.325 88.1952V86.5307ZM126.812 86.5307V88.1244C126.811 88.3454 126.742 88.5263 126.603 88.6668C126.466 88.8074 126.279 88.8863 126.043 88.9035L125.961 88.9067C125.704 88.9067 125.5 88.8375 125.348 88.699C125.195 88.5606 125.118 88.3701 125.116 88.1276V86.5307H125.422V88.1179C125.422 88.2875 125.468 88.4195 125.562 88.5139C125.655 88.6073 125.788 88.654 125.961 88.654C126.136 88.654 126.269 88.6073 126.362 88.5139C126.455 88.4206 126.502 88.2891 126.502 88.1195V86.5307H126.812ZM129.102 88.8745H128.791L127.611 87.0683V88.8745H127.3V86.5307H127.611L128.794 88.3449V86.5307H129.102V88.8745Z" fill="#F5F7F6"/>
<path d="M142.252 86.5307H142.563V88.1904C142.563 88.4146 142.495 88.5901 142.36 88.7168C142.226 88.8434 142.047 88.9067 141.822 88.9067C141.589 88.9067 141.408 88.8471 141.278 88.728C141.148 88.6089 141.083 88.442 141.083 88.2274H141.392C141.392 88.3615 141.429 88.4662 141.502 88.5413C141.576 88.6164 141.683 88.654 141.822 88.654C141.95 88.654 142.053 88.6137 142.131 88.5332C142.211 88.4527 142.251 88.3401 142.252 88.1952V86.5307ZM144.739 86.5307V88.1244C144.738 88.3454 144.668 88.5263 144.53 88.6668C144.393 88.8074 144.206 88.8863 143.97 88.9035L143.888 88.9067C143.631 88.9067 143.427 88.8375 143.274 88.699C143.122 88.5606 143.045 88.3701 143.042 88.1276V86.5307H143.348V88.1179C143.348 88.2875 143.395 88.4195 143.488 88.5139C143.582 88.6073 143.715 88.654 143.888 88.654C144.063 88.654 144.196 88.6073 144.288 88.5139C144.382 88.4206 144.429 88.2891 144.429 88.1195V86.5307H144.739ZM145.538 88.6218H146.648V88.8745H145.227V86.5307H145.538V88.6218Z" fill="#F5F7F6"/>
<path d="M159.667 88.2628H158.685L158.464 88.8745H158.146L159.041 86.5307H159.311L160.208 88.8745H159.891L159.667 88.2628ZM158.778 88.0084H159.575L159.176 86.9122L158.778 88.0084ZM162.144 86.5307V88.1244C162.143 88.3454 162.074 88.5263 161.935 88.6668C161.798 88.8074 161.611 88.8863 161.375 88.9035L161.293 88.9067C161.036 88.9067 160.832 88.8375 160.679 88.699C160.527 88.5606 160.45 88.3701 160.448 88.1276V86.5307H160.754V88.1179C160.754 88.2875 160.8 88.4195 160.894 88.5139C160.987 88.6073 161.12 88.654 161.293 88.654C161.468 88.654 161.601 88.6073 161.694 88.5139C161.787 88.4206 161.834 88.2891 161.834 88.1195V86.5307H162.144ZM164.363 88.567C164.283 88.6808 164.172 88.7661 164.029 88.823C163.888 88.8788 163.722 88.9067 163.534 88.9067C163.343 88.9067 163.173 88.8622 163.025 88.7731C162.877 88.6829 162.762 88.5552 162.68 88.39C162.6 88.2247 162.559 88.0331 162.556 87.8153V87.6108C162.556 87.2578 162.639 86.9841 162.803 86.7898C162.968 86.5956 163.2 86.4985 163.498 86.4985C163.743 86.4985 163.94 86.5612 164.089 86.6868C164.238 86.8113 164.329 86.9884 164.363 87.218H164.054C163.996 86.9079 163.811 86.7528 163.5 86.7528C163.293 86.7528 163.135 86.8258 163.028 86.9717C162.922 87.1166 162.868 87.327 162.867 87.6028V87.7943C162.867 88.0573 162.927 88.2665 163.047 88.4222C163.168 88.5767 163.33 88.654 163.535 88.654C163.651 88.654 163.753 88.6411 163.839 88.6153C163.926 88.5896 163.998 88.5461 164.055 88.4849V87.9585H163.513V87.7074H164.363V88.567Z" fill="#F5F7F6"/>
<path d="M27.6189 82.995C27.6189 83.3437 27.5593 83.6029 27.4402 83.7725C27.3211 83.942 27.1349 84.0268 26.8816 84.0268C26.6315 84.0268 26.4464 83.9442 26.3262 83.7789C26.206 83.6126 26.1438 83.3647 26.1395 83.0352V82.6376C26.1395 82.2931 26.199 82.0371 26.3182 81.8697C26.4373 81.7023 26.624 81.6186 26.8784 81.6186C27.1306 81.6186 27.3162 81.6996 27.4353 81.8617C27.5545 82.0226 27.6156 82.2716 27.6189 82.6086V82.995ZM27.3211 82.5877C27.3211 82.3355 27.2856 82.152 27.2148 82.0371C27.144 81.9212 27.0318 81.8633 26.8784 81.8633C26.726 81.8633 26.6149 81.9207 26.5451 82.0355C26.4754 82.1504 26.4394 82.3269 26.4373 82.5651V83.0416C26.4373 83.2949 26.4738 83.4822 26.5467 83.6035C26.6208 83.7236 26.7324 83.7837 26.8816 83.7837C27.0286 83.7837 27.1375 83.7269 27.2084 83.6131C27.2803 83.4994 27.3178 83.3201 27.3211 83.0754V82.5877Z" fill="#F5F7F6"/>
<path d="M27.1279 73.8333H26.8285V71.8484L26.228 72.0689V71.7985L27.0812 71.4781H27.1279V73.8333ZM29.4701 72.8336C29.4701 73.1824 29.4106 73.4415 29.2914 73.6111C29.1723 73.7807 28.9861 73.8654 28.7328 73.8654C28.4828 73.8654 28.2977 73.7828 28.1775 73.6175C28.0573 73.4512 27.995 73.2033 27.9907 72.8738V72.4762C27.9907 72.1317 28.0503 71.8758 28.1694 71.7083C28.2885 71.5409 28.4753 71.4572 28.7296 71.4572C28.9818 71.4572 29.1675 71.5382 29.2866 71.7003C29.4057 71.8613 29.4669 72.1102 29.4701 72.4472V72.8336ZM29.1723 72.4263C29.1723 72.1741 29.1369 71.9906 29.0661 71.8758C28.9952 71.7598 28.8831 71.7019 28.7296 71.7019C28.5772 71.7019 28.4661 71.7593 28.3964 71.8741C28.3266 71.989 28.2907 72.1655 28.2885 72.4038V72.8803C28.2885 73.1335 28.325 73.3208 28.398 73.4421C28.4721 73.5623 28.5837 73.6224 28.7328 73.6224C28.8799 73.6224 28.9888 73.5655 29.0596 73.4517C29.1315 73.338 29.1691 73.1588 29.1723 72.9141V72.4263Z" fill="#F5F7F6"/>
<path d="M27.1279 62.3145H26.8285V60.3296L26.228 60.5501V60.2797L27.0812 59.9593H27.1279V62.3145ZM28.9791 62.3145H28.6797V60.3296L28.0793 60.5501V60.2797L28.9324 59.9593H28.9791V62.3145Z" fill="#F5F7F6"/>
<path d="M27.1279 51.5566H26.8285V49.5718L26.228 49.7923V49.5219L27.0812 49.2015H27.1279V51.5566ZM29.5361 51.5566H28.0004V51.3425L28.8117 50.4411C28.9319 50.3048 29.0145 50.1942 29.0596 50.1094C29.1058 50.0236 29.1288 49.935 29.1288 49.8438C29.1288 49.7215 29.0918 49.6211 29.0178 49.5428C28.9437 49.4645 28.845 49.4253 28.7216 49.4253C28.5735 49.4253 28.4581 49.4677 28.3755 49.5525C28.2939 49.6362 28.2531 49.7531 28.2531 49.9034H27.9553C27.9553 49.6877 28.0245 49.5133 28.163 49.3802C28.3025 49.2471 28.4887 49.1806 28.7216 49.1806C28.9394 49.1806 29.1117 49.238 29.2383 49.3528C29.3649 49.4666 29.4283 49.6185 29.4283 49.8084C29.4283 50.0391 29.2812 50.3139 28.9872 50.6326L28.3594 51.3136H29.5361V51.5566Z" fill="#F5F7F6"/>
<path d="M27.1279 41.0171H26.8285V39.0322L26.228 39.2528V38.9823L27.0812 38.662H27.1279V41.0171ZM28.4334 39.7003H28.6572C28.7978 39.6981 28.9083 39.6611 28.9888 39.5892C29.0693 39.5173 29.1095 39.4202 29.1095 39.2978C29.1095 39.0231 28.9727 38.8857 28.699 38.8857C28.5702 38.8857 28.4672 38.9228 28.39 38.9968C28.3138 39.0698 28.2757 39.1669 28.2757 39.2882H27.9778C27.9778 39.1025 28.0455 38.9485 28.1807 38.8262C28.317 38.7028 28.4898 38.641 28.699 38.641C28.9201 38.641 29.0934 38.6995 29.219 38.8165C29.3446 38.9335 29.4073 39.0961 29.4073 39.3043C29.4073 39.4062 29.3741 39.505 29.3075 39.6005C29.2421 39.696 29.1525 39.7674 29.0387 39.8146C29.1675 39.8554 29.2667 39.923 29.3365 40.0174C29.4073 40.1119 29.4428 40.2272 29.4428 40.3635C29.4428 40.5739 29.3741 40.7407 29.2367 40.8642C29.0993 40.9876 28.9206 41.0493 28.7006 41.0493C28.4806 41.0493 28.3014 40.9897 28.163 40.8706C28.0256 40.7515 27.9569 40.5943 27.9569 40.3989H28.2563C28.2563 40.5223 28.2966 40.6211 28.3771 40.6951C28.4576 40.7692 28.5654 40.8062 28.7006 40.8062C28.8444 40.8062 28.9544 40.7686 29.0306 40.6935C29.1068 40.6184 29.1449 40.5105 29.1449 40.37C29.1449 40.2337 29.1031 40.129 29.0194 40.056C28.9357 39.9831 28.8149 39.9455 28.6572 39.9434H28.4334V39.7003Z" fill="#F5F7F6"/>
<path d="M27.1279 29.7637H26.8285V27.7788L26.228 27.9993V27.7289L27.0812 27.4086H27.1279V29.7637ZM29.2576 28.9765H29.5828V29.2196H29.2576V29.7637H28.9582V29.2196H27.8909V29.0441L28.9405 27.4198H29.2576V28.9765ZM28.229 28.9765H28.9582V27.8271L28.9228 27.8915L28.229 28.9765Z" fill="#F5F7F6"/>
<defs>
<linearGradient id="paint0_linear_479_2826" x1="98.7178" y1="81.6022" x2="98.7178" y2="19.5609" gradientUnits="userSpaceOnUse">
<stop stop-color="#27B7FF"/>
<stop offset="0.895833" stop-color="#F408AB"/>
</linearGradient>
<linearGradient id="paint1_linear_479_2826" x1="98.7178" y1="106.206" x2="98.7178" y2="41.0944" gradientUnits="userSpaceOnUse">
<stop offset="0.000116" stop-color="#0055CB"/>
<stop offset="0.3594" stop-color="#0077CE"/>
<stop offset="0.6484" stop-color="#0066FF"/>
<stop offset="0.8709" stop-color="#0066FF"/>
<stop offset="1" stop-color="#0066FF"/>
</linearGradient>
</defs>
</svg>
