<svg width="282" height="57" viewBox="0 0 282 57" fill="none" xmlns="http://www.w3.org/2000/svg">
<path d="M23.403 6.12639C24.551 5.87633 25.7445 5.72857 26.9493 5.66037V0C25.233 0.0681975 23.5621 0.295507 21.9368 0.659227L23.403 6.12639Z" fill="url(#paint0_linear_479_2896)"/>
<path d="M13.0485 11.4231C13.9351 10.6275 14.8785 9.9 15.8901 9.24076L13.0599 4.33057C11.6277 5.23987 10.2865 6.27419 9.04761 7.41081L13.0485 11.4231Z" fill="url(#paint1_linear_479_2896)"/>
<path d="M17.879 8.09275C18.9361 7.54717 20.0386 7.0925 21.1866 6.72878L19.7204 1.25024C18.095 1.76173 16.5378 2.40963 15.0488 3.1939L17.879 8.09275Z" fill="url(#paint2_linear_479_2896)"/>
<path d="M9.24065 15.8898C9.88852 14.8896 10.6159 13.9348 11.4229 13.0483L7.42204 9.04736C6.28542 10.2863 5.2511 11.6275 4.3418 13.0596L9.24065 15.8898Z" fill="url(#paint3_linear_479_2896)"/>
<path d="M5.66039 26.9608C5.71722 25.7446 5.87635 24.5625 6.12641 23.4145L0.659244 21.9482C0.295525 23.5736 0.0795637 25.2445 0 26.9608H5.66039Z" fill="url(#paint4_linear_479_2896)"/>
<path d="M6.71731 21.1866C7.0924 20.0386 7.54706 18.9361 8.08127 17.879L3.18241 15.0488C2.39813 16.5378 1.75025 18.095 1.23877 19.7203L6.71731 21.1866Z" fill="url(#paint5_linear_479_2896)"/>
<path d="M53.0234 15.0488L48.1245 17.879C48.6701 18.9361 49.1248 20.0386 49.4885 21.1866L54.967 19.7203C54.4555 18.095 53.7963 16.5264 53.0234 15.0488Z" fill="url(#paint6_linear_479_2896)"/>
<path d="M44.783 13.0483C45.5786 13.9348 46.3061 14.8782 46.9653 15.8898L51.8755 13.0596C50.9662 11.6275 49.9319 10.2863 48.7952 9.04736L44.783 13.0483Z" fill="url(#paint7_linear_479_2896)"/>
<path opacity="0.43" d="M35.0195 6.72878C36.1675 7.10387 37.2701 7.55853 38.3271 8.09275L41.1573 3.1939C39.6683 2.40963 38.1112 1.76173 36.4858 1.25024L35.0195 6.72878Z" fill="#406EB2"/>
<path opacity="0.43" d="M40.3162 9.24065C41.3164 9.88852 42.2712 10.616 43.1577 11.423L47.1586 7.42208C45.9197 6.28545 44.5785 5.2511 43.1463 4.3418L40.3162 9.24065Z" fill="#406EB2"/>
<path opacity="0.43" d="M29.2566 5.66037C30.4728 5.7172 31.6549 5.87633 32.8029 6.12639L34.2691 0.659227C32.6437 0.295507 30.9729 0.0795637 29.2566 0V5.66037Z" fill="#406EB2"/>
<path d="M6.12641 32.8029C5.87635 31.6549 5.72858 30.4614 5.66039 29.2566H0C0.0681975 30.9729 0.295525 32.6437 0.659244 34.2691L6.12641 32.8029Z" fill="url(#paint8_linear_479_2896)"/>
<path d="M8.09271 38.3269C7.54713 37.2698 7.09249 36.1673 6.72877 35.0193L1.25024 36.4855C1.76173 38.1109 2.40959 39.6681 3.19386 41.1571L8.09271 38.3269Z" fill="url(#paint9_linear_479_2896)"/>
<path d="M43.1577 44.783C42.2712 45.5786 41.3278 46.306 40.3162 46.9653L43.1463 51.8755C44.5785 50.9662 45.9197 49.9319 47.1586 48.7952L43.1577 44.783Z" fill="url(#paint10_linear_479_2896)"/>
<path d="M49.4885 35.0308C49.1134 36.1788 48.6587 37.2813 48.1245 38.3383L53.0234 41.1686C53.8076 39.6796 54.4555 38.1224 54.967 36.497L49.4885 35.0308Z" fill="url(#paint11_linear_479_2896)"/>
<path d="M38.3271 48.1133C37.2701 48.6589 36.1675 49.1135 35.0195 49.4772L36.4858 54.9557C38.1112 54.4443 39.6683 53.7964 41.1573 53.0121L38.3271 48.1133Z" fill="url(#paint12_linear_479_2896)"/>
<path d="M50.0798 23.403C50.3299 24.551 50.4777 25.7445 50.5459 26.9493H56.2063C56.1381 25.233 55.9107 23.5621 55.547 21.9368L50.0798 23.403Z" fill="url(#paint13_linear_479_2896)"/>
<path d="M50.5459 29.2566C50.489 30.4728 50.3299 31.6549 50.0798 32.8029L55.547 34.2691C55.9107 32.6437 56.1267 30.9729 56.2063 29.2566H50.5459Z" fill="url(#paint14_linear_479_2896)"/>
<path d="M46.9653 40.3274C46.3174 41.3276 45.59 42.2824 44.783 43.169L48.7839 47.1699C49.9205 45.931 50.9548 44.5898 51.8641 43.1576L46.9653 40.3274Z" fill="url(#paint15_linear_479_2896)"/>
<path d="M15.8901 46.9653C14.8899 46.3174 13.9351 45.59 13.0485 44.783L9.04761 48.7839C10.2865 49.9205 11.6277 50.9548 13.0599 51.8641L15.8901 46.9653Z" fill="url(#paint16_linear_479_2896)"/>
<path d="M11.4231 43.1575C10.6275 42.2709 9.90004 41.3275 9.24079 40.3159L4.33057 43.1461C5.23987 44.5782 6.2742 45.9195 7.41083 47.1584L11.4231 43.1575Z" fill="url(#paint17_linear_479_2896)"/>
<path d="M26.9493 50.5456C25.7331 50.4888 24.551 50.3296 23.403 50.0796L21.9368 55.5468C23.5621 55.9105 25.233 56.1264 26.9493 56.206V50.5456Z" fill="url(#paint18_linear_479_2896)"/>
<path d="M21.1866 49.4884C20.0386 49.1134 18.9361 48.6587 17.879 48.1245L15.0488 53.0234C16.5378 53.8076 18.095 54.4555 19.7204 54.967L21.1866 49.4884Z" fill="url(#paint19_linear_479_2896)"/>
<path d="M32.8029 50.0796C31.6549 50.3296 30.4614 50.4774 29.2566 50.5456V56.206C30.9729 56.1378 32.6437 55.9105 34.2691 55.5468L32.8029 50.0796Z" fill="url(#paint20_linear_479_2896)"/>
<path d="M98.1247 6.12639C99.2727 5.87633 100.466 5.72857 101.671 5.66037V0C99.9547 0.0681975 98.2838 0.295507 96.6584 0.659227L98.1247 6.12639Z" fill="url(#paint21_linear_479_2896)"/>
<path d="M87.7587 11.4231C88.6453 10.6275 89.5887 9.9 90.6003 9.24076L87.7701 4.33057C86.3379 5.23987 84.9967 6.27419 83.7578 7.41081L87.7587 11.4231Z" fill="url(#paint22_linear_479_2896)"/>
<path d="M92.5892 8.09275C93.6463 7.54717 94.7488 7.0925 95.8968 6.72878L94.4306 1.25024C92.8052 1.76173 91.248 2.40963 89.759 3.1939L92.5892 8.09275Z" fill="url(#paint23_linear_479_2896)"/>
<path d="M83.9623 15.8898C84.6102 14.8896 85.3377 13.9348 86.1447 13.0483L82.1437 9.04736C81.0071 10.2863 79.9728 11.6275 79.0635 13.0596L83.9623 15.8898Z" fill="url(#paint24_linear_479_2896)"/>
<path d="M80.3818 26.9608C80.4387 25.7446 80.5978 24.5625 80.8479 23.4145L75.3807 21.9482C75.017 23.5736 74.801 25.2445 74.7214 26.9608H80.3818Z" fill="url(#paint25_linear_479_2896)"/>
<path d="M81.439 21.1866C81.814 20.0386 82.2687 18.9361 82.8029 17.879L77.9041 15.0488C77.1198 16.5378 76.4719 18.095 75.9604 19.7203L81.439 21.1866Z" fill="url(#paint26_linear_479_2896)"/>
<path opacity="0.43" d="M127.734 15.0488L122.835 17.879C123.38 18.9361 123.835 20.0386 124.199 21.1866L129.677 19.7203C129.166 18.095 128.518 16.5264 127.734 15.0488Z" fill="#406EB2"/>
<path opacity="0.43" d="M119.493 13.0483C120.289 13.9348 121.016 14.8782 121.675 15.8898L126.586 13.0596C125.676 11.6275 124.642 10.2863 123.505 9.04736L119.493 13.0483Z" fill="#406EB2"/>
<path opacity="0.43" d="M109.741 6.72878C110.889 7.10387 111.991 7.55853 113.049 8.09275L115.879 3.1939C114.39 2.40963 112.833 1.76173 111.207 1.25024L109.741 6.72878Z" fill="#406EB2"/>
<path opacity="0.43" d="M115.038 9.24065C116.038 9.88852 116.993 10.616 117.879 11.423L121.88 7.42208C120.641 6.28545 119.3 5.2511 117.868 4.3418L115.038 9.24065Z" fill="#406EB2"/>
<path opacity="0.43" d="M103.967 5.66037C105.183 5.7172 106.365 5.87633 107.513 6.12639L108.979 0.659227C107.354 0.295507 105.683 0.0795637 103.967 0V5.66037Z" fill="#406EB2"/>
<path d="M80.8366 32.8029C80.5865 31.6549 80.4388 30.4614 80.3706 29.2566H74.7102C74.7784 30.9729 75.0057 32.6437 75.3694 34.2691L80.8366 32.8029Z" fill="url(#paint27_linear_479_2896)"/>
<path d="M82.8029 38.3269C82.2573 37.2698 81.8027 36.1673 81.439 35.0193L75.9604 36.4855C76.4719 38.1109 77.1198 39.6681 77.9041 41.1571L82.8029 38.3269Z" fill="url(#paint28_linear_479_2896)"/>
<path d="M117.868 44.783C116.981 45.5786 116.038 46.306 115.026 46.9653L117.856 51.8755C119.288 50.9662 120.63 49.9319 121.869 48.7952L117.868 44.783Z" fill="url(#paint29_linear_479_2896)"/>
<path d="M124.199 35.0308C123.824 36.1788 123.369 37.2813 122.835 38.3383L127.734 41.1686C128.518 39.6796 129.166 38.1224 129.677 36.497L124.199 35.0308Z" fill="url(#paint30_linear_479_2896)"/>
<path d="M113.049 48.1133C111.991 48.6589 110.889 49.1135 109.741 49.4772L111.207 54.9557C112.833 54.4443 114.39 53.7964 115.879 53.0121L113.049 48.1133Z" fill="url(#paint31_linear_479_2896)"/>
<path opacity="0.43" d="M124.79 23.403C125.04 24.551 125.188 25.7445 125.256 26.9493H130.916C130.848 25.233 130.621 23.5621 130.257 21.9368L124.79 23.403Z" fill="#406EB2"/>
<path d="M125.256 29.2566C125.199 30.4728 125.04 31.6549 124.79 32.8029L130.257 34.2691C130.621 32.6437 130.837 30.9729 130.916 29.2566H125.256Z" fill="url(#paint32_linear_479_2896)"/>
<path d="M121.675 40.3274C121.028 41.3276 120.3 42.2824 119.493 43.169L123.494 47.1699C124.631 45.931 125.665 44.5898 126.574 43.1576L121.675 40.3274Z" fill="url(#paint33_linear_479_2896)"/>
<path d="M90.6003 46.9653C89.6001 46.3174 88.6453 45.59 87.7587 44.783L83.7578 48.7839C84.9967 49.9205 86.3379 50.9548 87.7701 51.8641L90.6003 46.9653Z" fill="url(#paint34_linear_479_2896)"/>
<path d="M86.1333 43.1575C85.3377 42.2709 84.6102 41.3275 83.951 40.3159L79.0408 43.1461C79.9501 44.5782 80.9844 45.9195 82.121 47.1584L86.1333 43.1575Z" fill="url(#paint35_linear_479_2896)"/>
<path d="M101.671 50.5456C100.455 50.4888 99.2727 50.3296 98.1247 50.0796L96.6584 55.5468C98.2838 55.9105 99.9547 56.1264 101.671 56.206V50.5456Z" fill="url(#paint36_linear_479_2896)"/>
<path d="M95.8968 49.4884C94.7488 49.1134 93.6463 48.6587 92.5892 48.1245L89.759 53.0234C91.248 53.8076 92.8052 54.4555 94.4306 54.967L95.8968 49.4884Z" fill="url(#paint37_linear_479_2896)"/>
<path d="M107.513 50.0796C106.365 50.3296 105.172 50.4774 103.967 50.5456V56.206C105.683 56.1378 107.354 55.9105 108.979 55.5468L107.513 50.0796Z" fill="url(#paint38_linear_479_2896)"/>
<path d="M176.12 6.12639C177.268 5.87633 178.462 5.72857 179.666 5.66037V0C177.95 0.0681975 176.279 0.295507 174.654 0.659227L176.12 6.12639Z" fill="url(#paint39_linear_479_2896)"/>
<path d="M165.765 11.4231C166.652 10.6275 167.595 9.9 168.607 9.24076L165.777 4.33057C164.345 5.23987 163.003 6.27419 161.764 7.41081L165.765 11.4231Z" fill="url(#paint40_linear_479_2896)"/>
<path d="M170.585 8.09275C171.642 7.54717 172.744 7.0925 173.892 6.72878L172.426 1.25024C170.801 1.76173 169.243 2.40963 167.754 3.1939L170.585 8.09275Z" fill="url(#paint41_linear_479_2896)"/>
<path d="M161.958 15.8898C162.606 14.8896 163.333 13.9348 164.14 13.0483L160.139 9.04736C159.002 10.2863 157.968 11.6275 157.059 13.0596L161.958 15.8898Z" fill="url(#paint42_linear_479_2896)"/>
<path d="M158.377 26.9608C158.434 25.7446 158.593 24.5625 158.843 23.4145L153.376 21.9482C153.013 23.5736 152.797 25.2445 152.717 26.9608H158.377Z" fill="url(#paint43_linear_479_2896)"/>
<path d="M159.434 21.1866C159.809 20.0386 160.264 18.9361 160.798 17.879L155.899 15.0488C155.115 16.5378 154.467 18.095 153.956 19.7203L159.434 21.1866Z" fill="url(#paint44_linear_479_2896)"/>
<path opacity="0.43" d="M205.729 15.0488L200.83 17.879C201.376 18.9361 201.831 20.0386 202.194 21.1866L207.673 19.7203C207.161 18.095 206.513 16.5264 205.729 15.0488Z" fill="#406EB2"/>
<path opacity="0.43" d="M197.489 13.0483C198.284 13.9348 199.012 14.8782 199.671 15.8898L204.581 13.0596C203.672 11.6275 202.638 10.2863 201.501 9.04736L197.489 13.0483Z" fill="#406EB2"/>
<path opacity="0.43" d="M187.737 6.72878C188.885 7.10387 189.987 7.55853 191.044 8.09275L193.874 3.1939C192.385 2.40963 190.828 1.76173 189.203 1.25024L187.737 6.72878Z" fill="#406EB2"/>
<path opacity="0.43" d="M193.033 9.24065C194.033 9.88852 194.988 10.616 195.875 11.423L199.876 7.42208C198.637 6.28545 197.296 5.2511 195.863 4.3418L193.033 9.24065Z" fill="#406EB2"/>
<path opacity="0.43" d="M181.962 5.66037C183.179 5.7172 184.361 5.87633 185.509 6.12639L186.975 0.659227C185.35 0.295507 183.679 0.0795637 181.962 0V5.66037Z" fill="#406EB2"/>
<path d="M158.832 32.8029C158.582 31.6549 158.434 30.4614 158.366 29.2566H152.706C152.774 30.9729 153.001 32.6437 153.365 34.2691L158.832 32.8029Z" fill="url(#paint45_linear_479_2896)"/>
<path d="M160.798 38.3269C160.253 37.2698 159.798 36.1673 159.434 35.0193L153.956 36.4855C154.467 38.1109 155.115 39.6681 155.899 41.1571L160.798 38.3269Z" fill="url(#paint46_linear_479_2896)"/>
<path opacity="0.43" d="M195.863 44.783C194.977 45.5786 194.033 46.306 193.022 46.9653L195.852 51.8755C197.284 50.9662 198.625 49.9319 199.864 48.7952L195.863 44.783Z" fill="#406EB2"/>
<path opacity="0.43" d="M202.194 35.0308C201.819 36.1788 201.365 37.2813 200.83 38.3383L205.729 41.1686C206.513 39.6796 207.161 38.1224 207.673 36.497L202.194 35.0308Z" fill="#406EB2"/>
<path opacity="0.43" d="M191.044 48.1133C189.987 48.6589 188.885 49.1135 187.737 49.4772L189.203 54.9557C190.828 54.4443 192.385 53.7964 193.874 53.0121L191.044 48.1133Z" fill="#406EB2"/>
<path opacity="0.43" d="M202.785 23.403C203.035 24.551 203.183 25.7445 203.251 26.9493H208.912C208.844 25.233 208.616 23.5621 208.253 21.9368L202.785 23.403Z" fill="#406EB2"/>
<path opacity="0.43" d="M203.251 29.2566C203.195 30.4728 203.035 31.6549 202.785 32.8029L208.253 34.2691C208.616 32.6437 208.832 30.9729 208.912 29.2566H203.251Z" fill="#406EB2"/>
<path opacity="0.43" d="M199.671 40.3274C199.023 41.3276 198.296 42.2824 197.489 43.169L201.49 47.1699C202.626 45.931 203.661 44.5898 204.57 43.1576L199.671 40.3274Z" fill="#406EB2"/>
<path d="M168.596 46.9653C167.595 46.3174 166.641 45.59 165.754 44.783L161.753 48.7839C162.992 49.9205 164.333 50.9548 165.765 51.8641L168.596 46.9653Z" fill="url(#paint47_linear_479_2896)"/>
<path d="M164.129 43.1575C163.333 42.2709 162.606 41.3275 161.946 40.3159L157.036 43.1461C157.945 44.5782 158.98 45.9195 160.116 47.1584L164.129 43.1575Z" fill="url(#paint48_linear_479_2896)"/>
<path d="M179.666 50.5456C178.45 50.4888 177.268 50.3296 176.12 50.0796L174.654 55.5468C176.279 55.9105 177.95 56.1264 179.666 56.206V50.5456Z" fill="url(#paint49_linear_479_2896)"/>
<path d="M173.892 49.4884C172.744 49.1134 171.642 48.6587 170.585 48.1245L167.754 53.0234C169.243 53.8076 170.801 54.4555 172.426 54.967L173.892 49.4884Z" fill="url(#paint50_linear_479_2896)"/>
<path opacity="0.43" d="M185.509 50.0796C184.361 50.3296 183.167 50.4774 181.962 50.5456V56.206C183.679 56.1378 185.35 55.9105 186.975 55.5468L185.509 50.0796Z" fill="#406EB2"/>
<path d="M248.33 6.12639C249.478 5.87633 250.671 5.72857 251.876 5.66037V0C250.16 0.0681975 248.489 0.295507 246.864 0.659227L248.33 6.12639Z" fill="url(#paint51_linear_479_2896)"/>
<path d="M237.975 11.4231C238.862 10.6275 239.805 9.9 240.817 9.24076L237.987 4.33057C236.555 5.23987 235.213 6.27419 233.974 7.41081L237.975 11.4231Z" fill="url(#paint52_linear_479_2896)"/>
<path d="M242.795 8.09275C243.852 7.54717 244.954 7.0925 246.102 6.72878L244.636 1.25024C243.011 1.76173 241.453 2.40963 239.964 3.1939L242.795 8.09275Z" fill="url(#paint53_linear_479_2896)"/>
<path d="M234.167 15.8898C234.815 14.8896 235.543 13.9348 236.35 13.0483L232.349 9.04736C231.212 10.2863 230.178 11.6275 229.269 13.0596L234.167 15.8898Z" fill="url(#paint54_linear_479_2896)"/>
<path d="M230.587 26.9608C230.644 25.7446 230.803 24.5625 231.053 23.4145L225.586 21.9482C225.222 23.5736 225.006 25.2445 224.927 26.9608H230.587Z" fill="url(#paint55_linear_479_2896)"/>
<path d="M231.644 21.1866C232.019 20.0386 232.474 18.9361 233.008 17.879L228.109 15.0488C227.325 16.5378 226.677 18.095 226.166 19.7203L231.644 21.1866Z" fill="url(#paint56_linear_479_2896)"/>
<path opacity="0.43" d="M277.939 15.0488L273.04 17.879C273.586 18.9361 274.04 20.0386 274.404 21.1866L279.883 19.7203C279.371 18.095 278.723 16.5264 277.939 15.0488Z" fill="#406EB2"/>
<path opacity="0.43" d="M269.71 13.0483C270.505 13.9348 271.233 14.8782 271.892 15.8898L276.802 13.0596C275.893 11.6275 274.859 10.2863 273.722 9.04736L269.71 13.0483Z" fill="#406EB2"/>
<path opacity="0.43" d="M259.946 6.72878C261.094 7.10387 262.197 7.55853 263.254 8.09275L266.084 3.1939C264.595 2.40963 263.038 1.76173 261.413 1.25024L259.946 6.72878Z" fill="#406EB2"/>
<path opacity="0.43" d="M265.243 9.24065C266.243 9.88852 267.198 10.616 268.084 11.423L272.085 7.42208C270.846 6.28545 269.505 5.2511 268.073 4.3418L265.243 9.24065Z" fill="#406EB2"/>
<path opacity="0.43" d="M254.172 5.66037C255.388 5.7172 256.57 5.87633 257.718 6.12639L259.185 0.659227C257.559 0.295507 255.888 0.0795637 254.172 0V5.66037Z" fill="#406EB2"/>
<path opacity="0.43" d="M231.053 32.8029C230.803 31.6549 230.655 30.4614 230.587 29.2566H224.927C224.995 30.9729 225.222 32.6437 225.586 34.2691L231.053 32.8029Z" fill="#406EB2"/>
<path opacity="0.43" d="M233.008 38.3269C232.462 37.2698 232.008 36.1673 231.644 35.0193L226.166 36.4855C226.677 38.1109 227.325 39.6681 228.109 41.1571L233.008 38.3269Z" fill="#406EB2"/>
<path opacity="0.43" d="M268.084 44.783C267.198 45.5786 266.255 46.306 265.243 46.9653L268.073 51.8755C269.505 50.9662 270.846 49.9319 272.085 48.7952L268.084 44.783Z" fill="#406EB2"/>
<path opacity="0.43" d="M274.404 35.0308C274.029 36.1788 273.574 37.2813 273.04 38.3383L277.939 41.1686C278.723 39.6796 279.371 38.1224 279.883 36.497L274.404 35.0308Z" fill="#406EB2"/>
<path opacity="0.43" d="M263.254 48.1133C262.197 48.6589 261.094 49.1135 259.946 49.4772L261.413 54.9557C263.038 54.4443 264.595 53.7964 266.084 53.0121L263.254 48.1133Z" fill="#406EB2"/>
<path opacity="0.43" d="M275.006 23.403C275.256 24.551 275.404 25.7445 275.472 26.9493H281.133C281.065 25.233 280.837 23.5621 280.474 21.9368L275.006 23.403Z" fill="#406EB2"/>
<path opacity="0.43" d="M275.461 29.2566C275.404 30.4728 275.245 31.6549 274.995 32.8029L280.462 34.2691C280.826 32.6437 281.042 30.9729 281.122 29.2566H275.461Z" fill="#406EB2"/>
<path opacity="0.43" d="M271.881 40.3274C271.233 41.3276 270.505 42.2824 269.698 43.169L273.699 47.1699C274.836 45.931 275.87 44.5898 276.78 43.1576L271.881 40.3274Z" fill="#406EB2"/>
<path opacity="0.43" d="M240.805 46.9653C239.805 46.3174 238.85 45.59 237.964 44.783L233.963 48.7839C235.202 49.9205 236.543 50.9548 237.975 51.8641L240.805 46.9653Z" fill="#406EB2"/>
<path opacity="0.43" d="M236.35 43.1575C235.554 42.2709 234.827 41.3275 234.168 40.3159L229.257 43.1461C230.167 44.5782 231.201 45.9195 232.338 47.1584L236.35 43.1575Z" fill="#406EB2"/>
<path opacity="0.43" d="M251.876 50.5456C250.66 50.4888 249.478 50.3296 248.33 50.0796L246.864 55.5468C248.489 55.9105 250.16 56.1264 251.876 56.206V50.5456Z" fill="#406EB2"/>
<path opacity="0.43" d="M246.102 49.4884C244.954 49.1134 243.852 48.6587 242.795 48.1245L239.964 53.0234C241.453 53.8076 243.011 54.4555 244.636 54.967L246.102 49.4884Z" fill="#406EB2"/>
<path opacity="0.43" d="M257.718 50.0796C256.57 50.3296 255.377 50.4774 254.172 50.5456V56.206C255.888 56.1378 257.559 55.9105 259.185 55.5468L257.718 50.0796Z" fill="#406EB2"/>
<path d="M20.5025 28.969C20.5025 29.4438 20.3761 29.8663 20.1235 30.2365C19.8752 30.6068 19.5377 30.8964 19.1108 31.1055C19.6074 31.319 19.9994 31.6304 20.2869 32.0398C20.5787 32.4493 20.7246 32.9132 20.7246 33.4315C20.7246 34.2548 20.4458 34.9103 19.8883 35.3982C19.3351 35.886 18.6055 36.1299 17.6995 36.1299C16.7848 36.1299 16.0508 35.886 15.4976 35.3982C14.9488 34.906 14.6744 34.2504 14.6744 33.4315C14.6744 32.9175 14.8138 32.4536 15.0926 32.0398C15.3757 31.626 15.7655 31.3124 16.2621 31.099C15.8396 30.8899 15.5064 30.6002 15.2624 30.23C15.0185 29.8598 14.8965 29.4394 14.8965 28.969C14.8965 28.1675 15.1535 27.5316 15.6675 27.0612C16.1815 26.5907 16.8588 26.3555 17.6995 26.3555C18.5358 26.3555 19.211 26.5907 19.725 27.0612C20.2433 27.5316 20.5025 28.1675 20.5025 28.969ZM19.5159 33.4054C19.5159 32.874 19.346 32.4406 19.0062 32.1052C18.6709 31.7698 18.2309 31.6021 17.6864 31.6021C17.142 31.6021 16.7042 31.7676 16.3732 32.0986C16.0465 32.4297 15.8831 32.8653 15.8831 33.4054C15.8831 33.9455 16.0421 34.3702 16.3601 34.6795C16.6824 34.9887 17.1289 35.1434 17.6995 35.1434C18.2658 35.1434 18.7101 34.9887 19.0324 34.6795C19.3547 34.3658 19.5159 33.9412 19.5159 33.4054ZM17.6995 27.3486C17.2247 27.3486 16.8392 27.4967 16.543 27.7929C16.2512 28.0848 16.1053 28.4833 16.1053 28.9886C16.1053 29.4721 16.249 29.8641 16.5365 30.1647C16.8283 30.4609 17.216 30.609 17.6995 30.609C18.183 30.609 18.5685 30.4609 18.856 30.1647C19.1478 29.8641 19.2937 29.4721 19.2937 28.9886C19.2937 28.5051 19.1435 28.1109 18.8429 27.806C18.5424 27.5011 18.1612 27.3486 17.6995 27.3486ZM28.2122 31.9418C28.2122 33.3575 27.9705 34.4094 27.487 35.0976C27.0035 35.7858 26.2478 36.1299 25.2198 36.1299C24.2049 36.1299 23.4535 35.7945 22.9657 35.1238C22.4778 34.4486 22.2252 33.4424 22.2078 32.1052V30.4914C22.2078 29.0931 22.4495 28.0543 22.933 27.3748C23.4165 26.6953 24.1744 26.3555 25.2067 26.3555C26.2304 26.3555 26.9839 26.6844 27.4674 27.3421C27.9509 27.9955 28.1992 29.006 28.2122 30.3737V31.9418ZM27.0035 30.2888C27.0035 29.2652 26.8598 28.5204 26.5723 28.0543C26.2848 27.5839 25.8296 27.3486 25.2067 27.3486C24.5882 27.3486 24.1374 27.5817 23.8543 28.0477C23.5711 28.5138 23.4252 29.2303 23.4165 30.1973V32.1313C23.4165 33.1593 23.5646 33.9194 23.8608 34.4116C24.1613 34.8994 24.6143 35.1434 25.2198 35.1434C25.8165 35.1434 26.2587 34.9125 26.5461 34.4508C26.838 33.9891 26.9904 33.2616 27.0035 32.2685V30.2888ZM29.6562 28.3156C29.6562 27.745 29.837 27.2746 30.1985 26.9043C30.5644 26.5341 31.0326 26.349 31.6032 26.349C32.1826 26.349 32.6508 26.5363 33.008 26.9109C33.3695 27.2811 33.5503 27.7624 33.5503 28.3548V28.8187C33.5503 29.3937 33.3673 29.8641 33.0014 30.23C32.6399 30.5915 32.1782 30.7723 31.6163 30.7723C31.05 30.7723 30.5818 30.5915 30.2116 30.23C29.8413 29.8641 29.6562 29.3784 29.6562 28.773V28.3156ZM30.5578 28.8187C30.5578 29.1585 30.6537 29.4394 30.8453 29.6616C31.037 29.8794 31.294 29.9883 31.6163 29.9883C31.9256 29.9883 32.1738 29.8815 32.3611 29.6681C32.5528 29.4547 32.6486 29.1628 32.6486 28.7926V28.3156C32.6486 27.9759 32.555 27.6949 32.3677 27.4728C32.1804 27.2506 31.9256 27.1396 31.6032 27.1396C31.2809 27.1396 31.0261 27.2506 30.8388 27.4728C30.6515 27.6949 30.5578 27.9846 30.5578 28.3418V28.8187ZM34.2886 33.6667C34.2886 33.0961 34.4694 32.6279 34.8309 32.262C35.1968 31.8917 35.665 31.7066 36.2356 31.7066C36.8062 31.7066 37.2745 31.8896 37.6404 32.2555C38.0063 32.6213 38.1892 33.107 38.1892 33.7125V34.1764C38.1892 34.747 38.0063 35.2174 37.6404 35.5876C37.2788 35.9535 36.815 36.1365 36.2487 36.1365C35.6824 36.1365 35.2142 35.9557 34.844 35.5942C34.4737 35.2283 34.2886 34.7426 34.2886 34.1372V33.6667ZM35.1902 34.1764C35.1902 34.5205 35.2861 34.8036 35.4777 35.0257C35.6694 35.2435 35.9264 35.3524 36.2487 35.3524C36.5623 35.3524 36.8128 35.2457 37.0001 35.0323C37.1874 34.8145 37.281 34.5205 37.281 34.1502V33.6667C37.281 33.3226 37.1852 33.0417 36.9935 32.8239C36.8062 32.6061 36.5536 32.4972 36.2356 32.4972C35.9264 32.4972 35.6737 32.6061 35.4777 32.8239C35.2861 33.0373 35.1902 33.327 35.1902 33.6929V34.1764ZM31.8907 35.2806L31.2047 34.8493L35.8501 27.414L36.5362 27.8452L31.8907 35.2806Z" fill="#F5F7F6"/>
<path d="M15.1768 21.8323V17.3477H16.4427C16.8329 17.3477 17.1778 17.4339 17.4776 17.6064C17.7774 17.7789 18.0084 18.0242 18.1706 18.3425C18.3349 18.6608 18.4181 19.0263 18.4201 19.439V19.7255C18.4201 20.1485 18.338 20.5191 18.1737 20.8374C18.0115 21.1557 17.7784 21.4 17.4745 21.5705C17.1727 21.7409 16.8205 21.8282 16.4181 21.8323H15.1768ZM15.7682 17.8343V21.3487H16.3903C16.8462 21.3487 17.2004 21.207 17.453 20.9236C17.7076 20.6403 17.8349 20.2368 17.8349 19.7132V19.4514C17.8349 18.9421 17.7148 18.5468 17.4745 18.2655C17.2363 17.9822 16.8975 17.8384 16.4581 17.8343H15.7682ZM21.7251 20.6618H19.8462L19.4242 21.8323H18.8144L20.5269 17.3477H21.0444L22.76 21.8323H22.1532L21.7251 20.6618ZM20.0249 20.1752H21.5495L20.7856 18.0776L20.0249 20.1752ZM26.0619 17.8343H24.6204V21.8323H24.0321V17.8343H22.5937V17.3477H26.0619V17.8343ZM28.9571 20.6618H27.0783L26.6563 21.8323H26.0465L27.759 17.3477H28.2764L29.9921 21.8323H29.3853L28.9571 20.6618ZM27.2569 20.1752H28.7816L28.0177 18.0776L27.2569 20.1752ZM34.8247 19.9195C34.8247 20.5869 34.7108 21.0828 34.4828 21.4072C34.2549 21.7317 33.8986 21.8939 33.414 21.8939C32.9356 21.8939 32.5814 21.7358 32.3514 21.4195C32.1214 21.1013 32.0023 20.6269 31.9941 19.9965V19.2358C31.9941 18.5766 32.1081 18.0869 32.336 17.7665C32.5639 17.4462 32.9212 17.2861 33.4079 17.2861C33.8904 17.2861 34.2457 17.4411 34.4736 17.7511C34.7015 18.0592 34.8186 18.5355 34.8247 19.1803V19.9195ZM34.2549 19.1403C34.2549 18.6577 34.1872 18.3066 34.0516 18.0869C33.9161 17.8651 33.7015 17.7542 33.4079 17.7542C33.1163 17.7542 32.9038 17.8641 32.7703 18.0838C32.6368 18.3035 32.568 18.6413 32.5639 19.0971V20.0089C32.5639 20.4935 32.6338 20.8518 32.7734 21.0838C32.9151 21.3138 33.1286 21.4288 33.414 21.4288C33.6954 21.4288 33.9038 21.32 34.0393 21.1023C34.1769 20.8846 34.2488 20.5417 34.2549 20.0735V19.1403ZM37.4274 21.8323H36.8545V18.0345L35.7056 18.4565V17.939L37.3381 17.3261H37.4274V21.8323Z" fill="#F5F7F6"/>
<path d="M97.1691 27.1657L93.2293 35.9993H91.9617L95.8885 27.4793H90.7399V26.4862H97.1691V27.1657ZM99.0965 31.2297L99.58 26.4862H104.454V27.6035H100.606L100.318 30.1973C100.784 29.9229 101.314 29.7857 101.906 29.7857C102.773 29.7857 103.461 30.0732 103.971 30.6482C104.48 31.2188 104.735 31.9919 104.735 32.9676C104.735 33.9477 104.469 34.7208 103.938 35.2871C103.411 35.849 102.673 36.1299 101.723 36.1299C100.882 36.1299 100.196 35.8969 99.665 35.4308C99.1335 34.9648 98.8308 34.3201 98.7568 33.4969H99.9002C99.9742 34.0413 100.168 34.453 100.482 34.7317C100.795 35.0061 101.209 35.1434 101.723 35.1434C102.285 35.1434 102.725 34.9517 103.043 34.5684C103.365 34.1851 103.526 33.6558 103.526 32.9807C103.526 32.3447 103.352 31.8351 103.004 31.4518C102.66 31.0641 102.2 30.8703 101.625 30.8703C101.098 30.8703 100.684 30.9857 100.384 31.2166L100.064 31.4779L99.0965 31.2297ZM105.95 28.3156C105.95 27.745 106.131 27.2746 106.493 26.9043C106.859 26.5341 107.327 26.349 107.897 26.349C108.477 26.349 108.945 26.5363 109.302 26.9109C109.664 27.2811 109.844 27.7624 109.844 28.3548V28.8187C109.844 29.3937 109.662 29.8641 109.296 30.23C108.934 30.5915 108.472 30.7723 107.91 30.7723C107.344 30.7723 106.876 30.5915 106.506 30.23C106.136 29.8641 105.95 29.3784 105.95 28.773V28.3156ZM106.852 28.8187C106.852 29.1585 106.948 29.4394 107.14 29.6616C107.331 29.8794 107.588 29.9883 107.91 29.9883C108.22 29.9883 108.468 29.8815 108.655 29.6681C108.847 29.4547 108.943 29.1628 108.943 28.7926V28.3156C108.943 27.9759 108.849 27.6949 108.662 27.4728C108.475 27.2506 108.22 27.1396 107.897 27.1396C107.575 27.1396 107.32 27.2506 107.133 27.4728C106.946 27.6949 106.852 27.9846 106.852 28.3418V28.8187ZM110.583 33.6667C110.583 33.0961 110.764 32.6279 111.125 32.262C111.491 31.8917 111.959 31.7066 112.53 31.7066C113.1 31.7066 113.569 31.8896 113.935 32.2555C114.3 32.6213 114.483 33.107 114.483 33.7125V34.1764C114.483 34.747 114.3 35.2174 113.935 35.5876C113.573 35.9535 113.109 36.1365 112.543 36.1365C111.977 36.1365 111.508 35.9557 111.138 35.5942C110.768 35.2283 110.583 34.7426 110.583 34.1372V33.6667ZM111.484 34.1764C111.484 34.5205 111.58 34.8036 111.772 35.0257C111.964 35.2435 112.221 35.3524 112.543 35.3524C112.857 35.3524 113.107 35.2457 113.294 35.0323C113.482 34.8145 113.575 34.5205 113.575 34.1502V33.6667C113.575 33.3226 113.479 33.0417 113.288 32.8239C113.1 32.6061 112.848 32.4972 112.53 32.4972C112.221 32.4972 111.968 32.6061 111.772 32.8239C111.58 33.0373 111.484 33.327 111.484 33.6929V34.1764ZM108.185 35.2806L107.499 34.8493L112.144 27.414L112.83 27.8452L108.185 35.2806Z" fill="#F5F7F6"/>
<path d="M91.471 21.8323V17.3477H92.7369C93.127 17.3477 93.472 17.4339 93.7718 17.6064C94.0716 17.7789 94.3026 18.0242 94.4648 18.3425C94.6291 18.6608 94.7123 19.0263 94.7143 19.439V19.7255C94.7143 20.1485 94.6322 20.5191 94.4679 20.8374C94.3057 21.1557 94.0726 21.4 93.7687 21.5705C93.4669 21.7409 93.1147 21.8282 92.7123 21.8323H91.471ZM92.0624 17.8343V21.3487H92.6845C93.1404 21.3487 93.4946 21.207 93.7472 20.9236C94.0018 20.6403 94.1291 20.2368 94.1291 19.7132V19.4514C94.1291 18.9421 94.009 18.5468 93.7687 18.2655C93.5305 17.9822 93.1917 17.8384 92.7523 17.8343H92.0624ZM98.0193 20.6618H96.1404L95.7184 21.8323H95.1086L96.8211 17.3477H97.3386L99.0542 21.8323H98.4474L98.0193 20.6618ZM96.3191 20.1752H97.8437L97.0798 18.0776L96.3191 20.1752ZM102.356 17.8343H100.915V21.8323H100.326V17.8343H98.8879V17.3477H102.356V17.8343ZM105.251 20.6618H103.372L102.951 21.8323H102.341L104.053 17.3477H104.571L106.286 21.8323H105.679L105.251 20.6618ZM103.551 20.1752H105.076L104.312 18.0776L103.551 20.1752ZM111.119 19.9195C111.119 20.5869 111.005 21.0828 110.777 21.4072C110.549 21.7317 110.193 21.8939 109.708 21.8939C109.23 21.8939 108.876 21.7358 108.646 21.4195C108.416 21.1013 108.297 20.6269 108.288 19.9965V19.2358C108.288 18.5766 108.402 18.0869 108.63 17.7665C108.858 17.4462 109.215 17.2861 109.702 17.2861C110.185 17.2861 110.54 17.4411 110.768 17.7511C110.996 18.0592 111.113 18.5355 111.119 19.1803V19.9195ZM110.549 19.1403C110.549 18.6577 110.481 18.3066 110.346 18.0869C110.21 17.8651 109.996 17.7542 109.702 17.7542C109.41 17.7542 109.198 17.8641 109.064 18.0838C108.931 18.3035 108.862 18.6413 108.858 19.0971V20.0089C108.858 20.4935 108.928 20.8518 109.068 21.0838C109.209 21.3138 109.423 21.4288 109.708 21.4288C109.99 21.4288 110.198 21.32 110.333 21.1023C110.471 20.8846 110.543 20.5417 110.549 20.0735V19.1403ZM113.722 21.8323H113.149V18.0345L112 18.4565V17.939L113.632 17.3261H113.722V21.8323Z" fill="#F5F7F6"/>
<path d="M169.27 31.2297L169.753 26.4862H174.627V27.6035H170.779L170.491 30.1973C170.957 29.9229 171.487 29.7857 172.079 29.7857C172.946 29.7857 173.634 30.0732 174.144 30.6482C174.653 31.2188 174.908 31.9919 174.908 32.9676C174.908 33.9477 174.642 34.7208 174.111 35.2871C173.584 35.849 172.846 36.1299 171.896 36.1299C171.055 36.1299 170.369 35.8969 169.838 35.4308C169.307 34.9648 169.004 34.3201 168.93 33.4969H170.073C170.147 34.0413 170.341 34.453 170.655 34.7317C170.968 35.0061 171.382 35.1434 171.896 35.1434C172.458 35.1434 172.898 34.9517 173.216 34.5684C173.538 34.1851 173.699 33.6558 173.699 32.9807C173.699 32.3447 173.525 31.8351 173.177 31.4518C172.833 31.0641 172.373 30.8703 171.798 30.8703C171.271 30.8703 170.857 30.9857 170.557 31.2166L170.237 31.4779L169.27 31.2297ZM182.193 31.9418C182.193 33.3575 181.951 34.4094 181.468 35.0976C180.984 35.7858 180.229 36.1299 179.201 36.1299C178.186 36.1299 177.434 35.7945 176.947 35.1238C176.459 34.4486 176.206 33.4424 176.189 32.1052V30.4914C176.189 29.0931 176.43 28.0543 176.914 27.3748C177.397 26.6953 178.155 26.3555 179.188 26.3555C180.211 26.3555 180.965 26.6844 181.448 27.3421C181.932 27.9955 182.18 29.006 182.193 30.3737V31.9418ZM180.984 30.2888C180.984 29.2652 180.841 28.5204 180.553 28.0543C180.266 27.5839 179.811 27.3486 179.188 27.3486C178.569 27.3486 178.118 27.5817 177.835 28.0477C177.552 28.5138 177.406 29.2303 177.397 30.1973V32.1313C177.397 33.1593 177.546 33.9194 177.842 34.4116C178.142 34.8994 178.595 35.1434 179.201 35.1434C179.798 35.1434 180.24 34.9125 180.527 34.4508C180.819 33.9891 180.971 33.2616 180.984 32.2685V30.2888ZM183.637 28.3156C183.637 27.745 183.818 27.2746 184.179 26.9043C184.545 26.5341 185.014 26.349 185.584 26.349C186.164 26.349 186.632 26.5363 186.989 26.9109C187.35 27.2811 187.531 27.7624 187.531 28.3548V28.8187C187.531 29.3937 187.348 29.8641 186.982 30.23C186.621 30.5915 186.159 30.7723 185.597 30.7723C185.031 30.7723 184.563 30.5915 184.193 30.23C183.822 29.8641 183.637 29.3784 183.637 28.773V28.3156ZM184.539 28.8187C184.539 29.1585 184.635 29.4394 184.826 29.6616C185.018 29.8794 185.275 29.9883 185.597 29.9883C185.907 29.9883 186.155 29.8815 186.342 29.6681C186.534 29.4547 186.63 29.1628 186.63 28.7926V28.3156C186.63 27.9759 186.536 27.6949 186.349 27.4728C186.161 27.2506 185.907 27.1396 185.584 27.1396C185.262 27.1396 185.007 27.2506 184.82 27.4728C184.632 27.6949 184.539 27.9846 184.539 28.3418V28.8187ZM188.27 33.6667C188.27 33.0961 188.45 32.6279 188.812 32.262C189.178 31.8917 189.646 31.7066 190.217 31.7066C190.787 31.7066 191.255 31.8896 191.621 32.2555C191.987 32.6213 192.17 33.107 192.17 33.7125V34.1764C192.17 34.747 191.987 35.2174 191.621 35.5876C191.26 35.9535 190.796 36.1365 190.23 36.1365C189.663 36.1365 189.195 35.9557 188.825 35.5942C188.455 35.2283 188.27 34.7426 188.27 34.1372V33.6667ZM189.171 34.1764C189.171 34.5205 189.267 34.8036 189.459 35.0257C189.65 35.2435 189.907 35.3524 190.23 35.3524C190.543 35.3524 190.794 35.2457 190.981 35.0323C191.168 34.8145 191.262 34.5205 191.262 34.1502V33.6667C191.262 33.3226 191.166 33.0417 190.974 32.8239C190.787 32.6061 190.535 32.4972 190.217 32.4972C189.907 32.4972 189.655 32.6061 189.459 32.8239C189.267 33.0373 189.171 33.327 189.171 33.6929V34.1764ZM185.872 35.2806L185.186 34.8493L189.831 27.414L190.517 27.8452L185.872 35.2806Z" fill="#F5F7F6"/>
<path d="M169.158 21.8323V17.3477H170.424C170.814 17.3477 171.159 17.4339 171.459 17.6064C171.759 17.7789 171.99 18.0242 172.152 18.3425C172.316 18.6608 172.399 19.0263 172.401 19.439V19.7255C172.401 20.1485 172.319 20.5191 172.155 20.8374C171.993 21.1557 171.76 21.4 171.456 21.5705C171.154 21.7409 170.802 21.8282 170.399 21.8323H169.158ZM169.749 17.8343V21.3487H170.372C170.827 21.3487 171.182 21.207 171.434 20.9236C171.689 20.6403 171.816 20.2368 171.816 19.7132V19.4514C171.816 18.9421 171.696 18.5468 171.456 18.2655C171.218 17.9822 170.879 17.8384 170.439 17.8343H169.749ZM175.706 20.6618H173.827L173.405 21.8323H172.796L174.508 17.3477H175.026L176.741 21.8323H176.134L175.706 20.6618ZM174.006 20.1752H175.531L174.767 18.0776L174.006 20.1752ZM180.043 17.8343H178.602V21.8323H178.013V17.8343H176.575V17.3477H180.043V17.8343ZM182.938 20.6618H181.059L180.638 21.8323H180.028L181.74 17.3477H182.258L183.973 21.8323H183.366L182.938 20.6618ZM181.238 20.1752H182.763L181.999 18.0776L181.238 20.1752ZM188.806 19.9195C188.806 20.5869 188.692 21.0828 188.464 21.4072C188.236 21.7317 187.88 21.8939 187.395 21.8939C186.917 21.8939 186.563 21.7358 186.333 21.4195C186.103 21.1013 185.984 20.6269 185.975 19.9965V19.2358C185.975 18.5766 186.089 18.0869 186.317 17.7665C186.545 17.4462 186.902 17.2861 187.389 17.2861C187.872 17.2861 188.227 17.4411 188.455 17.7511C188.683 18.0592 188.8 18.5355 188.806 19.1803V19.9195ZM188.236 19.1403C188.236 18.6577 188.168 18.3066 188.033 18.0869C187.897 17.8651 187.683 17.7542 187.389 17.7542C187.098 17.7542 186.885 17.8641 186.752 18.0838C186.618 18.3035 186.549 18.6413 186.545 19.0971V20.0089C186.545 20.4935 186.615 20.8518 186.755 21.0838C186.896 21.3138 187.11 21.4288 187.395 21.4288C187.677 21.4288 187.885 21.32 188.021 21.1023C188.158 20.8846 188.23 20.5417 188.236 20.0735V19.1403ZM191.409 21.8323H190.836V18.0345L189.687 18.4565V17.939L191.319 17.3261H191.409V21.8323Z" fill="#F5F7F6"/>
<path d="M243.69 35.9993H242.475V27.9432L240.038 28.8383V27.7407L243.501 26.4405H243.69V35.9993ZM247.787 31.2297L248.27 26.4862H253.145V27.6035H249.296L249.009 30.1973C249.475 29.9229 250.004 29.7857 250.596 29.7857C251.463 29.7857 252.151 30.0732 252.661 30.6482C253.171 31.2188 253.426 31.9919 253.426 32.9676C253.426 33.9477 253.16 34.7208 252.628 35.2871C252.101 35.849 251.363 36.1299 250.414 36.1299C249.573 36.1299 248.887 35.8969 248.355 35.4308C247.824 34.9648 247.521 34.3201 247.447 33.4969H248.591C248.665 34.0413 248.858 34.453 249.172 34.7317C249.486 35.0061 249.9 35.1434 250.414 35.1434C250.975 35.1434 251.415 34.9517 251.733 34.5684C252.056 34.1851 252.217 33.6558 252.217 32.9807C252.217 32.3447 252.043 31.8351 251.694 31.4518C251.35 31.0641 250.89 30.8703 250.315 30.8703C249.788 30.8703 249.375 30.9857 249.074 31.2166L248.754 31.4779L247.787 31.2297ZM254.641 28.3156C254.641 27.745 254.822 27.2746 255.183 26.9043C255.549 26.5341 256.017 26.349 256.588 26.349C257.167 26.349 257.635 26.5363 257.993 26.9109C258.354 27.2811 258.535 27.7624 258.535 28.3548V28.8187C258.535 29.3937 258.352 29.8641 257.986 30.23C257.625 30.5915 257.163 30.7723 256.601 30.7723C256.035 30.7723 255.566 30.5915 255.196 30.23C254.826 29.8641 254.641 29.3784 254.641 28.773V28.3156ZM255.542 28.8187C255.542 29.1585 255.638 29.4394 255.83 29.6616C256.022 29.8794 256.279 29.9883 256.601 29.9883C256.91 29.9883 257.158 29.8815 257.346 29.6681C257.537 29.4547 257.633 29.1628 257.633 28.7926V28.3156C257.633 27.9759 257.54 27.6949 257.352 27.4728C257.165 27.2506 256.91 27.1396 256.588 27.1396C256.266 27.1396 256.011 27.2506 255.823 27.4728C255.636 27.6949 255.542 27.9846 255.542 28.3418V28.8187ZM259.273 33.6667C259.273 33.0961 259.454 32.6279 259.816 32.262C260.181 31.8917 260.65 31.7066 261.22 31.7066C261.791 31.7066 262.259 31.8896 262.625 32.2555C262.991 32.6213 263.174 33.107 263.174 33.7125V34.1764C263.174 34.747 262.991 35.2174 262.625 35.5876C262.263 35.9535 261.8 36.1365 261.233 36.1365C260.667 36.1365 260.199 35.9557 259.829 35.5942C259.458 35.2283 259.273 34.7426 259.273 34.1372V33.6667ZM260.175 34.1764C260.175 34.5205 260.271 34.8036 260.462 35.0257C260.654 35.2435 260.911 35.3524 261.233 35.3524C261.547 35.3524 261.797 35.2457 261.985 35.0323C262.172 34.8145 262.266 34.5205 262.266 34.1502V33.6667C262.266 33.3226 262.17 33.0417 261.978 32.8239C261.791 32.6061 261.538 32.4972 261.22 32.4972C260.911 32.4972 260.658 32.6061 260.462 32.8239C260.271 33.0373 260.175 33.327 260.175 33.6929V34.1764ZM256.875 35.2806L256.189 34.8493L260.835 27.414L261.521 27.8452L256.875 35.2806Z" fill="#F5F7F6"/>
<path d="M240.161 21.8323V17.3477H241.427C241.817 17.3477 242.162 17.4339 242.462 17.6064C242.762 17.7789 242.993 18.0242 243.155 18.3425C243.32 18.6608 243.403 19.0263 243.405 19.439V19.7255C243.405 20.1485 243.323 20.5191 243.158 20.8374C242.996 21.1557 242.763 21.4 242.459 21.5705C242.157 21.7409 241.805 21.8282 241.403 21.8323H240.161ZM240.753 17.8343V21.3487H241.375C241.831 21.3487 242.185 21.207 242.438 20.9236C242.692 20.6403 242.82 20.2368 242.82 19.7132V19.4514C242.82 18.9421 242.699 18.5468 242.459 18.2655C242.221 17.9822 241.882 17.8384 241.443 17.8343H240.753ZM246.71 20.6618H244.831L244.409 21.8323H243.799L245.512 17.3477H246.029L247.745 21.8323H247.138L246.71 20.6618ZM245.009 20.1752H246.534L245.77 18.0776L245.009 20.1752ZM251.046 17.8343H249.605V21.8323H249.017V17.8343H247.578V17.3477H251.046V17.8343ZM253.942 20.6618H252.063L251.641 21.8323H251.031L252.744 17.3477H253.261L254.977 21.8323H254.37L253.942 20.6618ZM252.242 20.1752H253.766L253.002 18.0776L252.242 20.1752ZM259.809 19.9195C259.809 20.5869 259.695 21.0828 259.467 21.4072C259.24 21.7317 258.883 21.8939 258.399 21.8939C257.92 21.8939 257.566 21.7358 257.336 21.4195C257.106 21.1013 256.987 20.6269 256.979 19.9965V19.2358C256.979 18.5766 257.093 18.0869 257.321 17.7665C257.549 17.4462 257.906 17.2861 258.393 17.2861C258.875 17.2861 259.23 17.4411 259.458 17.7511C259.686 18.0592 259.803 18.5355 259.809 19.1803V19.9195ZM259.24 19.1403C259.24 18.6577 259.172 18.3066 259.036 18.0869C258.901 17.8651 258.686 17.7542 258.393 17.7542C258.101 17.7542 257.888 17.8641 257.755 18.0838C257.621 18.3035 257.553 18.6413 257.549 19.0971V20.0089C257.549 20.4935 257.618 20.8518 257.758 21.0838C257.9 21.3138 258.113 21.4288 258.399 21.4288C258.68 21.4288 258.888 21.32 259.024 21.1023C259.162 20.8846 259.233 20.5417 259.24 20.0735V19.1403ZM262.412 21.8323H261.839V18.0345L260.69 18.4565V17.939L262.323 17.3261H262.412V21.8323Z" fill="#F5F7F6"/>
<defs>
<linearGradient id="paint0_linear_479_2896" x1="-4.60924" y1="3.06638" x2="266.194" y2="3.06638" gradientUnits="userSpaceOnUse">
<stop offset="0.0101" stop-color="#F408AB"/>
<stop offset="1" stop-color="#27B7FF"/>
</linearGradient>
<linearGradient id="paint1_linear_479_2896" x1="-4.60899" y1="7.88252" x2="266.195" y2="7.88252" gradientUnits="userSpaceOnUse">
<stop offset="0.0101" stop-color="#F408AB"/>
<stop offset="1" stop-color="#27B7FF"/>
</linearGradient>
<linearGradient id="paint2_linear_479_2896" x1="-4.6093" y1="4.67127" x2="266.195" y2="4.67127" gradientUnits="userSpaceOnUse">
<stop offset="0.0101" stop-color="#F408AB"/>
<stop offset="1" stop-color="#27B7FF"/>
</linearGradient>
<linearGradient id="paint3_linear_479_2896" x1="-4.60887" y1="12.4679" x2="266.188" y2="12.4679" gradientUnits="userSpaceOnUse">
<stop offset="0.0101" stop-color="#F408AB"/>
<stop offset="1" stop-color="#27B7FF"/>
</linearGradient>
<linearGradient id="paint4_linear_479_2896" x1="-4.60901" y1="24.4485" x2="266.193" y2="24.4485" gradientUnits="userSpaceOnUse">
<stop offset="0.0101" stop-color="#F408AB"/>
<stop offset="1" stop-color="#27B7FF"/>
</linearGradient>
<linearGradient id="paint5_linear_479_2896" x1="-4.60907" y1="18.1166" x2="266.191" y2="18.1166" gradientUnits="userSpaceOnUse">
<stop offset="0.0101" stop-color="#F408AB"/>
<stop offset="1" stop-color="#27B7FF"/>
</linearGradient>
<linearGradient id="paint6_linear_479_2896" x1="50.001" y1="18.1166" x2="77.4211" y2="18.1166" gradientUnits="userSpaceOnUse">
<stop offset="0.0101" stop-color="#F408AB"/>
<stop offset="1" stop-color="#27B7FF"/>
</linearGradient>
<linearGradient id="paint7_linear_479_2896" x1="50.0011" y1="12.4679" x2="77.4214" y2="12.4679" gradientUnits="userSpaceOnUse">
<stop offset="0.0101" stop-color="#F408AB"/>
<stop offset="1" stop-color="#27B7FF"/>
</linearGradient>
<linearGradient id="paint8_linear_479_2896" x1="-4.60901" y1="31.7625" x2="266.193" y2="31.7625" gradientUnits="userSpaceOnUse">
<stop offset="0.0101" stop-color="#F408AB"/>
<stop offset="1" stop-color="#27B7FF"/>
</linearGradient>
<linearGradient id="paint9_linear_479_2896" x1="-4.60893" y1="38.0943" x2="266.19" y2="38.0943" gradientUnits="userSpaceOnUse">
<stop offset="0.0101" stop-color="#F408AB"/>
<stop offset="1" stop-color="#27B7FF"/>
</linearGradient>
<linearGradient id="paint10_linear_479_2896" x1="-4.6092" y1="48.3285" x2="266.193" y2="48.3285" gradientUnits="userSpaceOnUse">
<stop offset="0.0101" stop-color="#F408AB"/>
<stop offset="1" stop-color="#27B7FF"/>
</linearGradient>
<linearGradient id="paint11_linear_479_2896" x1="-4.60914" y1="38.0944" x2="266.192" y2="38.0944" gradientUnits="userSpaceOnUse">
<stop offset="0.0101" stop-color="#F408AB"/>
<stop offset="1" stop-color="#27B7FF"/>
</linearGradient>
<linearGradient id="paint12_linear_479_2896" x1="-4.60908" y1="51.5397" x2="266.193" y2="51.5397" gradientUnits="userSpaceOnUse">
<stop offset="0.0101" stop-color="#F408AB"/>
<stop offset="1" stop-color="#27B7FF"/>
</linearGradient>
<linearGradient id="paint13_linear_479_2896" x1="50.0013" y1="24.4484" x2="77.4215" y2="24.4484" gradientUnits="userSpaceOnUse">
<stop offset="0.0101" stop-color="#F408AB"/>
<stop offset="1" stop-color="#27B7FF"/>
</linearGradient>
<linearGradient id="paint14_linear_479_2896" x1="-4.60925" y1="31.7625" x2="266.194" y2="31.7625" gradientUnits="userSpaceOnUse">
<stop offset="0.0101" stop-color="#F408AB"/>
<stop offset="1" stop-color="#27B7FF"/>
</linearGradient>
<linearGradient id="paint15_linear_479_2896" x1="-4.60939" y1="43.7431" x2="266.193" y2="43.7431" gradientUnits="userSpaceOnUse">
<stop offset="0.0101" stop-color="#F408AB"/>
<stop offset="1" stop-color="#27B7FF"/>
</linearGradient>
<linearGradient id="paint16_linear_479_2896" x1="-4.60899" y1="48.3285" x2="266.195" y2="48.3285" gradientUnits="userSpaceOnUse">
<stop offset="0.0101" stop-color="#F408AB"/>
<stop offset="1" stop-color="#27B7FF"/>
</linearGradient>
<linearGradient id="paint17_linear_479_2896" x1="-4.60875" y1="43.7429" x2="266.188" y2="43.7429" gradientUnits="userSpaceOnUse">
<stop offset="0.0101" stop-color="#F408AB"/>
<stop offset="1" stop-color="#27B7FF"/>
</linearGradient>
<linearGradient id="paint18_linear_479_2896" x1="-4.60924" y1="53.1446" x2="266.194" y2="53.1446" gradientUnits="userSpaceOnUse">
<stop offset="0.0101" stop-color="#F408AB"/>
<stop offset="1" stop-color="#27B7FF"/>
</linearGradient>
<linearGradient id="paint19_linear_479_2896" x1="-4.6093" y1="51.5396" x2="266.195" y2="51.5396" gradientUnits="userSpaceOnUse">
<stop offset="0.0101" stop-color="#F408AB"/>
<stop offset="1" stop-color="#27B7FF"/>
</linearGradient>
<linearGradient id="paint20_linear_479_2896" x1="-4.6094" y1="53.1446" x2="266.194" y2="53.1446" gradientUnits="userSpaceOnUse">
<stop offset="0.0101" stop-color="#F408AB"/>
<stop offset="1" stop-color="#27B7FF"/>
</linearGradient>
<linearGradient id="paint21_linear_479_2896" x1="-4.61037" y1="3.06638" x2="266.193" y2="3.06638" gradientUnits="userSpaceOnUse">
<stop offset="0.0101" stop-color="#F408AB"/>
<stop offset="1" stop-color="#27B7FF"/>
</linearGradient>
<linearGradient id="paint22_linear_479_2896" x1="-4.60995" y1="7.88251" x2="266.193" y2="7.88251" gradientUnits="userSpaceOnUse">
<stop offset="0.0101" stop-color="#F408AB"/>
<stop offset="1" stop-color="#27B7FF"/>
</linearGradient>
<linearGradient id="paint23_linear_479_2896" x1="-4.60994" y1="4.67127" x2="266.192" y2="4.67127" gradientUnits="userSpaceOnUse">
<stop offset="0.0101" stop-color="#F408AB"/>
<stop offset="1" stop-color="#27B7FF"/>
</linearGradient>
<linearGradient id="paint24_linear_479_2896" x1="-4.60852" y1="12.4679" x2="266.189" y2="12.4679" gradientUnits="userSpaceOnUse">
<stop offset="0.0101" stop-color="#F408AB"/>
<stop offset="1" stop-color="#27B7FF"/>
</linearGradient>
<linearGradient id="paint25_linear_479_2896" x1="-4.60871" y1="24.4485" x2="266.19" y2="24.4485" gradientUnits="userSpaceOnUse">
<stop offset="0.0101" stop-color="#F408AB"/>
<stop offset="1" stop-color="#27B7FF"/>
</linearGradient>
<linearGradient id="paint26_linear_479_2896" x1="-4.60986" y1="18.1166" x2="266.194" y2="18.1166" gradientUnits="userSpaceOnUse">
<stop offset="0.0101" stop-color="#F408AB"/>
<stop offset="1" stop-color="#27B7FF"/>
</linearGradient>
<linearGradient id="paint27_linear_479_2896" x1="-4.60813" y1="31.7625" x2="266.189" y2="31.7625" gradientUnits="userSpaceOnUse">
<stop offset="0.0101" stop-color="#F408AB"/>
<stop offset="1" stop-color="#27B7FF"/>
</linearGradient>
<linearGradient id="paint28_linear_479_2896" x1="-4.60986" y1="38.0943" x2="266.194" y2="38.0943" gradientUnits="userSpaceOnUse">
<stop offset="0.0101" stop-color="#F408AB"/>
<stop offset="1" stop-color="#27B7FF"/>
</linearGradient>
<linearGradient id="paint29_linear_479_2896" x1="-4.60797" y1="48.3285" x2="266.19" y2="48.3285" gradientUnits="userSpaceOnUse">
<stop offset="0.0101" stop-color="#F408AB"/>
<stop offset="1" stop-color="#27B7FF"/>
</linearGradient>
<linearGradient id="paint30_linear_479_2896" x1="-4.60866" y1="38.0944" x2="266.19" y2="38.0944" gradientUnits="userSpaceOnUse">
<stop offset="0.0101" stop-color="#F408AB"/>
<stop offset="1" stop-color="#27B7FF"/>
</linearGradient>
<linearGradient id="paint31_linear_479_2896" x1="-4.61072" y1="51.5397" x2="266.193" y2="51.5397" gradientUnits="userSpaceOnUse">
<stop offset="0.0101" stop-color="#F408AB"/>
<stop offset="1" stop-color="#27B7FF"/>
</linearGradient>
<linearGradient id="paint32_linear_479_2896" x1="-4.60921" y1="31.7625" x2="266.192" y2="31.7625" gradientUnits="userSpaceOnUse">
<stop offset="0.0101" stop-color="#F408AB"/>
<stop offset="1" stop-color="#27B7FF"/>
</linearGradient>
<linearGradient id="paint33_linear_479_2896" x1="-4.61013" y1="43.7431" x2="266.192" y2="43.7431" gradientUnits="userSpaceOnUse">
<stop offset="0.0101" stop-color="#F408AB"/>
<stop offset="1" stop-color="#27B7FF"/>
</linearGradient>
<linearGradient id="paint34_linear_479_2896" x1="-4.60995" y1="48.3285" x2="266.193" y2="48.3285" gradientUnits="userSpaceOnUse">
<stop offset="0.0101" stop-color="#F408AB"/>
<stop offset="1" stop-color="#27B7FF"/>
</linearGradient>
<linearGradient id="paint35_linear_479_2896" x1="-4.60821" y1="43.7429" x2="266.189" y2="43.7429" gradientUnits="userSpaceOnUse">
<stop offset="0.0101" stop-color="#F408AB"/>
<stop offset="1" stop-color="#27B7FF"/>
</linearGradient>
<linearGradient id="paint36_linear_479_2896" x1="-4.61037" y1="53.1446" x2="266.193" y2="53.1446" gradientUnits="userSpaceOnUse">
<stop offset="0.0101" stop-color="#F408AB"/>
<stop offset="1" stop-color="#27B7FF"/>
</linearGradient>
<linearGradient id="paint37_linear_479_2896" x1="-4.60994" y1="51.5396" x2="266.192" y2="51.5396" gradientUnits="userSpaceOnUse">
<stop offset="0.0101" stop-color="#F408AB"/>
<stop offset="1" stop-color="#27B7FF"/>
</linearGradient>
<linearGradient id="paint38_linear_479_2896" x1="-4.61041" y1="53.1446" x2="266.193" y2="53.1446" gradientUnits="userSpaceOnUse">
<stop offset="0.0101" stop-color="#F408AB"/>
<stop offset="1" stop-color="#27B7FF"/>
</linearGradient>
<linearGradient id="paint39_linear_479_2896" x1="-4.60687" y1="3.06637" x2="266.191" y2="3.06637" gradientUnits="userSpaceOnUse">
<stop offset="0.0101" stop-color="#F408AB"/>
<stop offset="1" stop-color="#27B7FF"/>
</linearGradient>
<linearGradient id="paint40_linear_479_2896" x1="-4.6074" y1="7.88252" x2="266.191" y2="7.88252" gradientUnits="userSpaceOnUse">
<stop offset="0.0101" stop-color="#F408AB"/>
<stop offset="1" stop-color="#27B7FF"/>
</linearGradient>
<linearGradient id="paint41_linear_479_2896" x1="-4.60696" y1="4.67127" x2="266.19" y2="4.67127" gradientUnits="userSpaceOnUse">
<stop offset="0.0101" stop-color="#F408AB"/>
<stop offset="1" stop-color="#27B7FF"/>
</linearGradient>
<linearGradient id="paint42_linear_479_2896" x1="-4.60998" y1="12.4679" x2="266.192" y2="12.4679" gradientUnits="userSpaceOnUse">
<stop offset="0.0101" stop-color="#F408AB"/>
<stop offset="1" stop-color="#27B7FF"/>
</linearGradient>
<linearGradient id="paint43_linear_479_2896" x1="-4.60979" y1="24.4485" x2="266.192" y2="24.4485" gradientUnits="userSpaceOnUse">
<stop offset="0.0101" stop-color="#F408AB"/>
<stop offset="1" stop-color="#27B7FF"/>
</linearGradient>
<linearGradient id="paint44_linear_479_2896" x1="-4.6083" y1="18.1166" x2="266.191" y2="18.1166" gradientUnits="userSpaceOnUse">
<stop offset="0.0101" stop-color="#F408AB"/>
<stop offset="1" stop-color="#27B7FF"/>
</linearGradient>
<linearGradient id="paint45_linear_479_2896" x1="-4.6099" y1="31.7625" x2="266.192" y2="31.7625" gradientUnits="userSpaceOnUse">
<stop offset="0.0101" stop-color="#F408AB"/>
<stop offset="1" stop-color="#27B7FF"/>
</linearGradient>
<linearGradient id="paint46_linear_479_2896" x1="-4.6083" y1="38.0943" x2="266.191" y2="38.0943" gradientUnits="userSpaceOnUse">
<stop offset="0.0101" stop-color="#F408AB"/>
<stop offset="1" stop-color="#27B7FF"/>
</linearGradient>
<linearGradient id="paint47_linear_479_2896" x1="-4.60811" y1="48.3285" x2="266.191" y2="48.3285" gradientUnits="userSpaceOnUse">
<stop offset="0.0101" stop-color="#F408AB"/>
<stop offset="1" stop-color="#27B7FF"/>
</linearGradient>
<linearGradient id="paint48_linear_479_2896" x1="-4.60941" y1="43.7429" x2="266.192" y2="43.7429" gradientUnits="userSpaceOnUse">
<stop offset="0.0101" stop-color="#F408AB"/>
<stop offset="1" stop-color="#27B7FF"/>
</linearGradient>
<linearGradient id="paint49_linear_479_2896" x1="-4.60687" y1="53.1446" x2="266.191" y2="53.1446" gradientUnits="userSpaceOnUse">
<stop offset="0.0101" stop-color="#F408AB"/>
<stop offset="1" stop-color="#27B7FF"/>
</linearGradient>
<linearGradient id="paint50_linear_479_2896" x1="-4.60696" y1="51.5396" x2="266.19" y2="51.5396" gradientUnits="userSpaceOnUse">
<stop offset="0.0101" stop-color="#F408AB"/>
<stop offset="1" stop-color="#27B7FF"/>
</linearGradient>
<linearGradient id="paint51_linear_479_2896" x1="-4.61255" y1="3.06638" x2="266.192" y2="3.06638" gradientUnits="userSpaceOnUse">
<stop offset="0.0101" stop-color="#F408AB"/>
<stop offset="1" stop-color="#27B7FF"/>
</linearGradient>
<linearGradient id="paint52_linear_479_2896" x1="-4.61062" y1="7.88251" x2="266.192" y2="7.88251" gradientUnits="userSpaceOnUse">
<stop offset="0.0101" stop-color="#F408AB"/>
<stop offset="1" stop-color="#27B7FF"/>
</linearGradient>
<linearGradient id="paint53_linear_479_2896" x1="-4.61045" y1="4.67127" x2="266.192" y2="4.67127" gradientUnits="userSpaceOnUse">
<stop offset="0.0101" stop-color="#F408AB"/>
<stop offset="1" stop-color="#27B7FF"/>
</linearGradient>
<linearGradient id="paint54_linear_479_2896" x1="-4.60687" y1="12.4679" x2="266.191" y2="12.4679" gradientUnits="userSpaceOnUse">
<stop offset="0.0101" stop-color="#F408AB"/>
<stop offset="1" stop-color="#27B7FF"/>
</linearGradient>
<linearGradient id="paint55_linear_479_2896" x1="-4.60543" y1="24.4485" x2="266.191" y2="24.4485" gradientUnits="userSpaceOnUse">
<stop offset="0.0101" stop-color="#F408AB"/>
<stop offset="1" stop-color="#27B7FF"/>
</linearGradient>
<linearGradient id="paint56_linear_479_2896" x1="-4.60778" y1="18.1166" x2="266.191" y2="18.1166" gradientUnits="userSpaceOnUse">
<stop offset="0.0101" stop-color="#F408AB"/>
<stop offset="1" stop-color="#27B7FF"/>
</linearGradient>
</defs>
</svg>
