<svg width="195" height="118" viewBox="0 0 195 118" fill="none" xmlns="http://www.w3.org/2000/svg">
<rect x="0.679932" y="0.369141" width="193.846" height="117.605" rx="14.7953" fill="black"/>
<rect x="0.988167" y="0.677376" width="193.229" height="116.989" rx="14.4871" stroke="white" stroke-opacity="0.5" stroke-width="0.616471"/>
<path d="M28.597 27.9456H25.6609V84.096H28.597V27.9456Z" fill="#406EB2"/>
<path d="M35.1018 27.9456H32.1658V84.096H35.1018V27.9456Z" fill="#406EB2"/>
<path d="M48.1033 27.9456H45.1672V84.096H48.1033V27.9456Z" fill="#406EB2"/>
<path d="M54.5999 27.9456H51.6638V84.096H54.5999V27.9456Z" fill="#406EB2"/>
<path d="M67.6014 27.9456H64.6653V84.096H67.6014V27.9456Z" fill="#406EB2"/>
<path d="M74.1062 27.9456H71.1702V84.096H74.1062V27.9456Z" fill="#406EB2"/>
<path d="M87.1077 27.9456H84.1716V84.096H87.1077V27.9456Z" fill="#406EB2"/>
<path d="M93.6043 27.9456H90.6682V84.096H93.6043V27.9456Z" fill="#406EB2"/>
<path d="M106.606 27.9456H103.67V84.096H106.606V27.9456Z" fill="#406EB2"/>
<path d="M113.102 27.9456H110.166V84.096H113.102V27.9456Z" fill="#406EB2"/>
<path d="M126.104 27.9456H123.168V84.096H126.104V27.9456Z" fill="#406EB2"/>
<path d="M132.609 27.9456H129.673V84.096H132.609V27.9456Z" fill="#406EB2"/>
<path d="M145.61 27.9456H142.674V84.096H145.61V27.9456Z" fill="#406EB2"/>
<path d="M152.107 27.9456H149.171V84.096H152.107V27.9456Z" fill="#406EB2"/>
<path d="M165.108 27.9456H162.172V84.096H165.108V27.9456Z" fill="#406EB2"/>
<path d="M171.613 27.9456H168.677V84.096H171.613V27.9456Z" fill="#406EB2"/>
<path d="M28.597 49.1064H25.6609V84.1042H28.597V49.1064Z" fill="url(#paint0_linear_479_2677)"/>
<path d="M35.1018 63.2756H32.1658V84.0958H35.1018V63.2756Z" fill="url(#paint1_linear_479_2677)"/>
<path d="M48.1033 59.4312H45.1672V84.0958H48.1033V59.4312Z" fill="url(#paint2_linear_479_2677)"/>
<path d="M54.5999 52.7075H51.6638V84.096H54.5999V52.7075Z" fill="url(#paint3_linear_479_2677)"/>
<path d="M67.6014 56.0735H64.6653V84.1041H67.6014V56.0735Z" fill="url(#paint4_linear_479_2677)"/>
<path d="M74.1062 63.9165H71.1702V84.096H74.1062V63.9165Z" fill="url(#paint5_linear_479_2677)"/>
<path d="M87.1077 61.8401H84.1716V84.104H87.1077V61.8401Z" fill="url(#paint6_linear_479_2677)"/>
<path d="M93.6043 54.4675H90.6682V84.096H93.6043V54.4675Z" fill="url(#paint7_linear_479_2677)"/>
<path d="M106.606 46.7056H103.67V84.104H106.606V46.7056Z" fill="url(#paint8_linear_479_2677)"/>
<path d="M113.102 60.7129H110.166V84.0961H113.102V60.7129Z" fill="url(#paint9_linear_479_2677)"/>
<path d="M126.104 49.585H123.168V84.096H126.104V49.585Z" fill="url(#paint10_linear_479_2677)"/>
<path d="M132.609 67.9231H129.673V84.0959H132.609V67.9231Z" fill="url(#paint11_linear_479_2677)"/>
<path d="M145.61 59.196H142.674V84.104H145.61V59.196Z" fill="url(#paint12_linear_479_2677)"/>
<path d="M152.107 54.4675H149.171V84.096H152.107V54.4675Z" fill="url(#paint13_linear_479_2677)"/>
<path d="M165.108 48.1411H162.172V84.0959H165.108V48.1411Z" fill="url(#paint14_linear_479_2677)"/>
<path d="M171.613 57.2739H168.677V84.1042H171.613V57.2739Z" fill="url(#paint15_linear_479_2677)"/>
<path d="M175.052 84.4614H20.1455V27.9622H20.7376V83.8693H175.052V84.4614Z" fill="white"/>
<path d="M25.1865 88.5701V86.0692H25.8925C26.11 86.0692 26.3024 86.1173 26.4696 86.2135C26.6368 86.3097 26.7656 86.4465 26.8561 86.624C26.9477 86.8015 26.994 87.0053 26.9952 87.2355V87.3952C26.9952 87.6311 26.9494 87.8378 26.8578 88.0153C26.7673 88.1928 26.6373 88.329 26.4679 88.4241C26.2995 88.5191 26.1032 88.5678 25.8787 88.5701H25.1865ZM25.5163 86.3406V88.3004H25.8633C26.1175 88.3004 26.315 88.2214 26.4558 88.0634C26.5978 87.9053 26.6688 87.6803 26.6688 87.3883V87.2423C26.6688 86.9584 26.6018 86.7379 26.4679 86.5811C26.335 86.423 26.1461 86.3429 25.9011 86.3406H25.5163ZM28.8382 87.9174H27.7904L27.5551 88.5701H27.215L28.17 86.0692H28.4586L29.4153 88.5701H29.0769L28.8382 87.9174ZM27.8901 87.646H28.7403L28.3143 86.4763L27.8901 87.646ZM31.2566 86.3406H30.4528V88.5701H30.1247V86.3406H29.3226V86.0692H31.2566V86.3406ZM32.8712 87.9174H31.8234L31.5881 88.5701H31.248L32.203 86.0692H32.4916L33.4483 88.5701H33.1099L32.8712 87.9174ZM31.923 87.646H32.7733L32.3473 86.4763L31.923 87.646ZM36.1432 87.5034C36.1432 87.8756 36.0797 88.1521 35.9526 88.333C35.8255 88.514 35.6268 88.6044 35.3566 88.6044C35.0898 88.6044 34.8922 88.5162 34.764 88.3399C34.6357 88.1624 34.5693 87.8979 34.5648 87.5464V87.1221C34.5648 86.7545 34.6283 86.4814 34.7554 86.3028C34.8825 86.1242 35.0818 86.0349 35.3531 86.0349C35.6222 86.0349 35.8203 86.1213 35.9474 86.2942C36.0745 86.466 36.1398 86.7316 36.1432 87.0912V87.5034ZM35.8255 87.0689C35.8255 86.7998 35.7877 86.604 35.7121 86.4814C35.6365 86.3578 35.5169 86.2959 35.3531 86.2959C35.1905 86.2959 35.072 86.3572 34.9976 86.4797C34.9232 86.6022 34.8848 86.7906 34.8825 87.0448V87.5532C34.8825 87.8235 34.9214 88.0233 34.9993 88.1527C35.0783 88.2809 35.1974 88.3451 35.3566 88.3451C35.5135 88.3451 35.6297 88.2844 35.7053 88.163C35.782 88.0416 35.8221 87.8504 35.8255 87.5893V87.0689ZM37.5946 88.5701H37.2752V86.4522L36.6345 86.6876V86.399L37.5448 86.0572H37.5946V88.5701Z" fill="#F5F7F6"/>
<path d="M43.9285 88.5701V86.0692H44.6344C44.852 86.0692 45.0443 86.1173 45.2115 86.2135C45.3787 86.3097 45.5075 86.4465 45.598 86.624C45.6896 86.8015 45.736 87.0053 45.7371 87.2355V87.3952C45.7371 87.6311 45.6913 87.8378 45.5997 88.0153C45.5092 88.1928 45.3793 88.329 45.2098 88.4241C45.0415 88.5191 44.8451 88.5678 44.6207 88.5701H43.9285ZM44.2582 86.3406V88.3004H44.6052C44.8594 88.3004 45.0569 88.2214 45.1978 88.0634C45.3398 87.9053 45.4108 87.6803 45.4108 87.3883V87.2423C45.4108 86.9584 45.3438 86.7379 45.2098 86.5811C45.077 86.423 44.888 86.3429 44.643 86.3406H44.2582ZM47.5801 87.9174H46.5324L46.2971 88.5701H45.957L46.912 86.0692H47.2005L48.1573 88.5701H47.8189L47.5801 87.9174ZM46.632 87.646H47.4822L47.0563 86.4763L46.632 87.646ZM49.9985 86.3406H49.1947V88.5701H48.8666V86.3406H48.0645V86.0692H49.9985V86.3406ZM51.6131 87.9174H50.5654L50.3301 88.5701H49.99L50.945 86.0692H51.2335L52.1902 88.5701H51.8519L51.6131 87.9174ZM50.665 87.646H51.5152L51.0892 86.4763L50.665 87.646ZM54.8852 87.5034C54.8852 87.8756 54.8216 88.1521 54.6945 88.333C54.5674 88.514 54.3688 88.6044 54.0985 88.6044C53.8317 88.6044 53.6342 88.5162 53.5059 88.3399C53.3777 88.1624 53.3113 87.8979 53.3067 87.5464V87.1221C53.3067 86.7545 53.3702 86.4814 53.4974 86.3028C53.6245 86.1242 53.8237 86.0349 54.0951 86.0349C54.3642 86.0349 54.5623 86.1213 54.6894 86.2942C54.8165 86.466 54.8818 86.7316 54.8852 87.0912V87.5034ZM54.5674 87.0689C54.5674 86.7998 54.5296 86.604 54.4541 86.4814C54.3785 86.3578 54.2588 86.2959 54.0951 86.2959C53.9325 86.2959 53.814 86.3572 53.7395 86.4797C53.6651 86.6022 53.6267 86.7906 53.6245 87.0448V87.5532C53.6245 87.8235 53.6634 88.0233 53.7413 88.1527C53.8203 88.2809 53.9394 88.3451 54.0985 88.3451C54.2554 88.3451 54.3716 88.2844 54.4472 88.163C54.5239 88.0416 54.564 87.8504 54.5674 87.5893V87.0689ZM56.9309 88.5701H55.2923V88.3416L56.158 87.3798C56.2862 87.2343 56.3744 87.1164 56.4225 87.0259C56.4717 86.9343 56.4963 86.8398 56.4963 86.7425C56.4963 86.612 56.4568 86.5049 56.3778 86.4213C56.2988 86.3377 56.1934 86.2959 56.0618 86.2959C55.9037 86.2959 55.7806 86.3412 55.6925 86.4316C55.6054 86.5209 55.5619 86.6458 55.5619 86.8061H55.2442C55.2442 86.5759 55.318 86.3898 55.4657 86.2478C55.6146 86.1058 55.8133 86.0349 56.0618 86.0349C56.2942 86.0349 56.478 86.0961 56.6131 86.2186C56.7482 86.34 56.8158 86.502 56.8158 86.7047C56.8158 86.9509 56.6589 87.2441 56.3452 87.5842L55.6753 88.3107H56.9309V88.5701Z" fill="#F5F7F6"/>
<path d="M62.7722 88.5701V86.0692H63.4782C63.6957 86.0692 63.8881 86.1173 64.0553 86.2135C64.2225 86.3097 64.3513 86.4465 64.4417 86.624C64.5334 86.8015 64.5797 87.0053 64.5809 87.2355V87.3952C64.5809 87.6311 64.5351 87.8378 64.4435 88.0153C64.353 88.1928 64.223 88.329 64.0536 88.4241C63.8852 88.5191 63.6889 88.5678 63.4644 88.5701H62.7722ZM63.102 86.3406V88.3004H63.449C63.7032 88.3004 63.9007 88.2214 64.0415 88.0634C64.1835 87.9053 64.2545 87.6803 64.2545 87.3883V87.2423C64.2545 86.9584 64.1875 86.7379 64.0536 86.5811C63.9207 86.423 63.7318 86.3429 63.4867 86.3406H63.102ZM66.4239 87.9174H65.3761L65.1408 88.5701H64.8007L65.7557 86.0692H66.0443L67.001 88.5701H66.6626L66.4239 87.9174ZM65.4758 87.646H66.326L65.9 86.4763L65.4758 87.646ZM68.8423 86.3406H68.0385V88.5701H67.7104V86.3406H66.9083V86.0692H68.8423V86.3406ZM70.4569 87.9174H69.4091L69.1738 88.5701H68.8337L69.7887 86.0692H70.0773L71.034 88.5701H70.6956L70.4569 87.9174ZM69.5087 87.646H70.359L69.933 86.4763L69.5087 87.646ZM73.7289 87.5034C73.7289 87.8756 73.6654 88.1521 73.5383 88.333C73.4112 88.514 73.2125 88.6044 72.9423 88.6044C72.6755 88.6044 72.4779 88.5162 72.3497 88.3399C72.2214 88.1624 72.155 87.8979 72.1504 87.5464V87.1221C72.1504 86.7545 72.214 86.4814 72.3411 86.3028C72.4682 86.1242 72.6674 86.0349 72.9388 86.0349C73.2079 86.0349 73.406 86.1213 73.5331 86.2942C73.6602 86.466 73.7255 86.7316 73.7289 87.0912V87.5034ZM73.4112 87.0689C73.4112 86.7998 73.3734 86.604 73.2978 86.4814C73.2222 86.3578 73.1026 86.2959 72.9388 86.2959C72.7762 86.2959 72.6577 86.3572 72.5833 86.4797C72.5089 86.6022 72.4705 86.7906 72.4682 87.0448V87.5532C72.4682 87.8235 72.5071 88.0233 72.585 88.1527C72.664 88.2809 72.7831 88.3451 72.9423 88.3451C73.0991 88.3451 73.2154 88.2844 73.2909 88.163C73.3677 88.0416 73.4077 87.8504 73.4112 87.5893V87.0689ZM74.5981 87.1651H74.8368C74.9868 87.1628 75.1048 87.1233 75.1906 87.0465C75.2765 86.9698 75.3195 86.8662 75.3195 86.7356C75.3195 86.4425 75.1735 86.2959 74.8815 86.2959C74.7441 86.2959 74.6341 86.3354 74.5517 86.4144C74.4704 86.4923 74.4297 86.5959 74.4297 86.7253H74.112C74.112 86.5272 74.1841 86.3629 74.3284 86.2324C74.4738 86.1007 74.6582 86.0349 74.8815 86.0349C75.1174 86.0349 75.3023 86.0973 75.4363 86.2221C75.5702 86.3469 75.6372 86.5204 75.6372 86.7425C75.6372 86.8513 75.6017 86.9566 75.5307 87.0586C75.4609 87.1605 75.3653 87.2366 75.2439 87.287C75.3813 87.3305 75.4872 87.4027 75.5616 87.5034C75.6372 87.6042 75.675 87.7273 75.675 87.8727C75.675 88.0971 75.6017 88.2752 75.4552 88.4069C75.3086 88.5386 75.1179 88.6044 74.8832 88.6044C74.6484 88.6044 74.4572 88.5409 74.3095 88.4138C74.1629 88.2867 74.0896 88.1189 74.0896 87.9105H74.4091C74.4091 88.0422 74.4521 88.1475 74.5379 88.2265C74.6238 88.3056 74.7389 88.3451 74.8832 88.3451C75.0366 88.3451 75.154 88.305 75.2353 88.2248C75.3166 88.1447 75.3573 88.0296 75.3573 87.8796C75.3573 87.7342 75.3126 87.6225 75.2233 87.5446C75.134 87.4668 75.0051 87.4267 74.8368 87.4244H74.5981V87.1651Z" fill="#F5F7F6"/>
<path d="M82.5437 88.5701V86.0692H83.2496C83.4672 86.0692 83.6596 86.1173 83.8268 86.2135C83.9939 86.3097 84.1228 86.4465 84.2132 86.624C84.3048 86.8015 84.3512 87.0053 84.3524 87.2355V87.3952C84.3524 87.6311 84.3066 87.8378 84.2149 88.0153C84.1245 88.1928 83.9945 88.329 83.825 88.4241C83.6567 88.5191 83.4603 88.5678 83.2359 88.5701H82.5437ZM82.8735 86.3406V88.3004H83.2204C83.4746 88.3004 83.6722 88.2214 83.813 88.0634C83.955 87.9053 84.026 87.6803 84.026 87.3883V87.2423C84.026 86.9584 83.959 86.7379 83.825 86.5811C83.6922 86.423 83.5033 86.3429 83.2582 86.3406H82.8735ZM86.1954 87.9174H85.1476L84.9123 88.5701H84.5722L85.5272 86.0692H85.8158L86.7725 88.5701H86.4341L86.1954 87.9174ZM85.2472 87.646H86.0975L85.6715 86.4763L85.2472 87.646ZM88.6138 86.3406H87.8099V88.5701H87.4819V86.3406H86.6797V86.0692H88.6138V86.3406ZM90.2284 87.9174H89.1806L88.9453 88.5701H88.6052L89.5602 86.0692H89.8488L90.8055 88.5701H90.4671L90.2284 87.9174ZM89.2802 87.646H90.1304L89.7045 86.4763L89.2802 87.646ZM93.5004 87.5034C93.5004 87.8756 93.4369 88.1521 93.3098 88.333C93.1827 88.514 92.984 88.6044 92.7138 88.6044C92.4469 88.6044 92.2494 88.5162 92.1212 88.3399C91.9929 88.1624 91.9265 87.8979 91.9219 87.5464V87.1221C91.9219 86.7545 91.9855 86.4814 92.1126 86.3028C92.2397 86.1242 92.4389 86.0349 92.7103 86.0349C92.9794 86.0349 93.1775 86.1213 93.3046 86.2942C93.4317 86.466 93.497 86.7316 93.5004 87.0912V87.5034ZM93.1827 87.0689C93.1827 86.7998 93.1449 86.604 93.0693 86.4814C92.9937 86.3578 92.8741 86.2959 92.7103 86.2959C92.5477 86.2959 92.4292 86.3572 92.3548 86.4797C92.2803 86.6022 92.242 86.7906 92.2397 87.0448V87.5532C92.2397 87.8235 92.2786 88.0233 92.3565 88.1527C92.4355 88.2809 92.5546 88.3451 92.7138 88.3451C92.8706 88.3451 92.9869 88.2844 93.0624 88.163C93.1392 88.0416 93.1792 87.8504 93.1827 87.5893V87.0689ZM95.249 87.7301H95.5959V87.9895H95.249V88.5701H94.9295V87.9895H93.7907V87.8023L94.9106 86.0692H95.249V87.7301ZM94.1514 87.7301H94.9295V86.5038L94.8917 86.5725L94.1514 87.7301Z" fill="#F5F7F6"/>
<path d="M102.075 88.5701V86.0692H102.781C102.999 86.0692 103.191 86.1173 103.358 86.2135C103.525 86.3097 103.654 86.4465 103.745 86.624C103.836 86.8015 103.883 87.0053 103.884 87.2355V87.3952C103.884 87.6311 103.838 87.8378 103.746 88.0153C103.656 88.1928 103.526 88.329 103.357 88.4241C103.188 88.5191 102.992 88.5678 102.767 88.5701H102.075ZM102.405 86.3406V88.3004H102.752C103.006 88.3004 103.204 88.2214 103.345 88.0634C103.487 87.9053 103.558 87.6803 103.558 87.3883V87.2423C103.558 86.9584 103.491 86.7379 103.357 86.5811C103.224 86.423 103.035 86.3429 102.79 86.3406H102.405ZM105.727 87.9174H104.679L104.444 88.5701H104.104L105.059 86.0692H105.347L106.304 88.5701H105.966L105.727 87.9174ZM104.779 87.646H105.629L105.203 86.4763L104.779 87.646ZM108.145 86.3406H107.341V88.5701H107.013V86.3406H106.211V86.0692H108.145V86.3406ZM109.76 87.9174H108.712L108.477 88.5701H108.137L109.092 86.0692H109.38L110.337 88.5701H109.999L109.76 87.9174ZM108.812 87.646H109.662L109.236 86.4763L108.812 87.646ZM113.032 87.5034C113.032 87.8756 112.968 88.1521 112.841 88.333C112.714 88.514 112.515 88.6044 112.245 88.6044C111.978 88.6044 111.781 88.5162 111.653 88.3399C111.524 88.1624 111.458 87.8979 111.453 87.5464V87.1221C111.453 86.7545 111.517 86.4814 111.644 86.3028C111.771 86.1242 111.97 86.0349 112.242 86.0349C112.511 86.0349 112.709 86.1213 112.836 86.2942C112.963 86.466 113.028 86.7316 113.032 87.0912V87.5034ZM112.714 87.0689C112.714 86.7998 112.676 86.604 112.601 86.4814C112.525 86.3578 112.406 86.2959 112.242 86.2959C112.079 86.2959 111.961 86.3572 111.886 86.4797C111.812 86.6022 111.773 86.7906 111.771 87.0448V87.5532C111.771 87.8235 111.81 88.0233 111.888 88.1527C111.967 88.2809 112.086 88.3451 112.245 88.3451C112.402 88.3451 112.518 88.2844 112.594 88.163C112.671 88.0416 112.711 87.8504 112.714 87.5893V87.0689ZM113.585 87.3162L113.712 86.0692H114.993V86.3629H113.982L113.906 87.0448C114.029 86.9727 114.168 86.9366 114.324 86.9366C114.551 86.9366 114.732 87.0122 114.866 87.1633C115 87.3133 115.067 87.5166 115.067 87.7731C115.067 88.0307 114.997 88.234 114.858 88.3828C114.719 88.5306 114.525 88.6044 114.275 88.6044C114.054 88.6044 113.874 88.5432 113.734 88.4206C113.595 88.2981 113.515 88.1286 113.496 87.9122H113.796C113.816 88.0554 113.867 88.1636 113.949 88.2368C114.032 88.309 114.14 88.3451 114.275 88.3451C114.423 88.3451 114.539 88.2947 114.622 88.1939C114.707 88.0931 114.75 87.954 114.75 87.7765C114.75 87.6093 114.704 87.4754 114.612 87.3746C114.522 87.2727 114.401 87.2217 114.25 87.2217C114.111 87.2217 114.002 87.2521 113.923 87.3128L113.839 87.3815L113.585 87.3162Z" fill="#F5F7F6"/>
<path d="M121.433 88.5701V86.0692H122.139C122.357 86.0692 122.549 86.1173 122.716 86.2135C122.883 86.3097 123.012 86.4465 123.103 86.624C123.194 86.8015 123.241 87.0053 123.242 87.2355V87.3952C123.242 87.6311 123.196 87.8378 123.104 88.0153C123.014 88.1928 122.884 88.329 122.714 88.4241C122.546 88.5191 122.35 88.5678 122.125 88.5701H121.433ZM121.763 86.3406V88.3004H122.11C122.364 88.3004 122.562 88.2214 122.702 88.0634C122.844 87.9053 122.915 87.6803 122.915 87.3883V87.2423C122.915 86.9584 122.848 86.7379 122.714 86.5811C122.582 86.423 122.393 86.3429 122.148 86.3406H121.763ZM125.085 87.9174H124.037L123.802 88.5701H123.462L124.417 86.0692H124.705L125.662 88.5701H125.324L125.085 87.9174ZM124.137 87.646H124.987L124.561 86.4763L124.137 87.646ZM127.503 86.3406H126.699V88.5701H126.371V86.3406H125.569V86.0692H127.503V86.3406ZM129.118 87.9174H128.07L127.835 88.5701H127.495L128.45 86.0692H128.738L129.695 88.5701H129.357L129.118 87.9174ZM128.17 87.646H129.02L128.594 86.4763L128.17 87.646ZM132.39 87.5034C132.39 87.8756 132.326 88.1521 132.199 88.333C132.072 88.514 131.873 88.6044 131.603 88.6044C131.336 88.6044 131.139 88.5162 131.011 88.3399C130.882 88.1624 130.816 87.8979 130.811 87.5464V87.1221C130.811 86.7545 130.875 86.4814 131.002 86.3028C131.129 86.1242 131.328 86.0349 131.6 86.0349C131.869 86.0349 132.067 86.1213 132.194 86.2942C132.321 86.466 132.386 86.7316 132.39 87.0912V87.5034ZM132.072 87.0689C132.072 86.7998 132.034 86.604 131.959 86.4814C131.883 86.3578 131.763 86.2959 131.6 86.2959C131.437 86.2959 131.319 86.3572 131.244 86.4797C131.17 86.6022 131.131 86.7906 131.129 87.0448V87.5532C131.129 87.8235 131.168 88.0233 131.246 88.1527C131.325 88.2809 131.444 88.3451 131.603 88.3451C131.76 88.3451 131.876 88.2844 131.952 88.163C132.029 88.0416 132.069 87.8504 132.072 87.5893V87.0689ZM134.044 86.0675V86.3372H133.986C133.738 86.3417 133.541 86.415 133.395 86.557C133.248 86.699 133.163 86.8988 133.14 87.1565C133.272 87.0053 133.452 86.9297 133.68 86.9297C133.897 86.9297 134.071 87.0065 134.2 87.1599C134.331 87.3133 134.396 87.5114 134.396 87.7542C134.396 88.0118 134.326 88.218 134.185 88.3725C134.045 88.5271 133.857 88.6044 133.621 88.6044C133.382 88.6044 133.188 88.5128 133.039 88.3296C132.89 88.1452 132.816 87.9082 132.816 87.6185V87.4966C132.816 87.0362 132.914 86.6847 133.11 86.4419C133.306 86.198 133.599 86.0732 133.987 86.0675H134.044ZM133.627 87.1943C133.518 87.1943 133.418 87.2269 133.326 87.2922C133.234 87.3574 133.171 87.4393 133.135 87.5378V87.6546C133.135 87.8607 133.182 88.0267 133.274 88.1527C133.367 88.2786 133.483 88.3416 133.621 88.3416C133.765 88.3416 133.877 88.289 133.958 88.1836C134.04 88.0783 134.082 87.9403 134.082 87.7697C134.082 87.5979 134.04 87.4593 133.956 87.354C133.874 87.2475 133.764 87.1943 133.627 87.1943Z" fill="#F5F7F6"/>
<path d="M140.69 88.5701V86.0692H141.396C141.613 86.0692 141.806 86.1173 141.973 86.2135C142.14 86.3097 142.269 86.4465 142.359 86.624C142.451 86.8015 142.497 87.0053 142.498 87.2355V87.3952C142.498 87.6311 142.453 87.8378 142.361 88.0153C142.27 88.1928 142.141 88.329 141.971 88.4241C141.803 88.5191 141.606 88.5678 141.382 88.5701H140.69ZM141.019 86.3406V88.3004H141.366C141.621 88.3004 141.818 88.2214 141.959 88.0634C142.101 87.9053 142.172 87.6803 142.172 87.3883V87.2423C142.172 86.9584 142.105 86.7379 141.971 86.5811C141.838 86.423 141.649 86.3429 141.404 86.3406H141.019ZM144.341 87.9174H143.294L143.058 88.5701H142.718L143.673 86.0692H143.962L144.918 88.5701H144.58L144.341 87.9174ZM143.393 87.646H144.243L143.817 86.4763L143.393 87.646ZM146.76 86.3406H145.956V88.5701H145.628V86.3406H144.826V86.0692H146.76V86.3406ZM148.374 87.9174H147.327L147.091 88.5701H146.751L147.706 86.0692H147.995L148.951 88.5701H148.613L148.374 87.9174ZM147.426 87.646H148.276L147.85 86.4763L147.426 87.646ZM151.646 87.5034C151.646 87.8756 151.583 88.1521 151.456 88.333C151.329 88.514 151.13 88.6044 150.86 88.6044C150.593 88.6044 150.395 88.5162 150.267 88.3399C150.139 88.1624 150.073 87.8979 150.068 87.5464V87.1221C150.068 86.7545 150.131 86.4814 150.259 86.3028C150.386 86.1242 150.585 86.0349 150.856 86.0349C151.125 86.0349 151.324 86.1213 151.451 86.2942C151.578 86.466 151.643 86.7316 151.646 87.0912V87.5034ZM151.329 87.0689C151.329 86.7998 151.291 86.604 151.215 86.4814C151.14 86.3578 151.02 86.2959 150.856 86.2959C150.694 86.2959 150.575 86.3572 150.501 86.4797C150.426 86.6022 150.388 86.7906 150.386 87.0448V87.5532C150.386 87.8235 150.425 88.0233 150.502 88.1527C150.581 88.2809 150.701 88.3451 150.86 88.3451C151.017 88.3451 151.133 88.2844 151.208 88.163C151.285 88.0416 151.325 87.8504 151.329 87.5893V87.0689ZM153.668 86.2478L152.632 88.5701H152.299L153.331 86.3303H151.978V86.0692H153.668V86.2478Z" fill="#F5F7F6"/>
<path d="M159.637 88.5701V86.0692H160.343C160.56 86.0692 160.753 86.1173 160.92 86.2135C161.087 86.3097 161.216 86.4465 161.306 86.624C161.398 86.8015 161.444 87.0053 161.445 87.2355V87.3952C161.445 87.6311 161.4 87.8378 161.308 88.0153C161.218 88.1928 161.088 88.329 160.918 88.4241C160.75 88.5191 160.553 88.5678 160.329 88.5701H159.637ZM159.966 86.3406V88.3004H160.313C160.568 88.3004 160.765 88.2214 160.906 88.0634C161.048 87.9053 161.119 87.6803 161.119 87.3883V87.2423C161.119 86.9584 161.052 86.7379 160.918 86.5811C160.785 86.423 160.596 86.3429 160.351 86.3406H159.966ZM163.288 87.9174H162.241L162.005 88.5701H161.665L162.62 86.0692H162.909L163.866 88.5701H163.527L163.288 87.9174ZM162.34 87.646H163.19L162.765 86.4763L162.34 87.646ZM165.707 86.3406H164.903V88.5701H164.575V86.3406H163.773V86.0692H165.707V86.3406ZM167.321 87.9174H166.274L166.038 88.5701H165.698L166.653 86.0692H166.942L167.898 88.5701H167.56L167.321 87.9174ZM166.373 87.646H167.223L166.797 86.4763L166.373 87.646ZM170.593 87.5034C170.593 87.8756 170.53 88.1521 170.403 88.333C170.276 88.514 170.077 88.6044 169.807 88.6044C169.54 88.6044 169.342 88.5162 169.214 88.3399C169.086 88.1624 169.02 87.8979 169.015 87.5464V87.1221C169.015 86.7545 169.078 86.4814 169.206 86.3028C169.333 86.1242 169.532 86.0349 169.803 86.0349C170.072 86.0349 170.271 86.1213 170.398 86.2942C170.525 86.466 170.59 86.7316 170.593 87.0912V87.5034ZM170.276 87.0689C170.276 86.7998 170.238 86.604 170.162 86.4814C170.087 86.3578 169.967 86.2959 169.803 86.2959C169.641 86.2959 169.522 86.3572 169.448 86.4797C169.373 86.6022 169.335 86.7906 169.333 87.0448V87.5532C169.333 87.8235 169.372 88.0233 169.45 88.1527C169.529 88.2809 169.648 88.3451 169.807 88.3451C169.964 88.3451 170.08 88.2844 170.155 88.163C170.232 88.0416 170.272 87.8504 170.276 87.5893V87.0689ZM172.517 86.7219C172.517 86.8467 172.484 86.9578 172.418 87.0551C172.352 87.1525 172.264 87.2286 172.151 87.2836C172.282 87.3397 172.385 87.4215 172.461 87.5292C172.537 87.6368 172.576 87.7588 172.576 87.895C172.576 88.1115 172.502 88.2838 172.356 88.412C172.21 88.5403 172.019 88.6044 171.78 88.6044C171.54 88.6044 171.347 88.5403 171.201 88.412C171.057 88.2827 170.985 88.1103 170.985 87.895C170.985 87.7599 171.022 87.638 171.095 87.5292C171.169 87.4204 171.272 87.338 171.402 87.2818C171.291 87.2269 171.204 87.1507 171.14 87.0534C171.076 86.9561 171.043 86.8456 171.043 86.7219C171.043 86.5112 171.111 86.344 171.246 86.2204C171.381 86.0967 171.559 86.0349 171.78 86.0349C172 86.0349 172.178 86.0967 172.313 86.2204C172.449 86.344 172.517 86.5112 172.517 86.7219ZM172.258 87.8882C172.258 87.7485 172.213 87.6345 172.124 87.5464C172.036 87.4582 171.92 87.4141 171.777 87.4141C171.634 87.4141 171.519 87.4576 171.432 87.5446C171.346 87.6317 171.303 87.7462 171.303 87.8882C171.303 88.0302 171.345 88.1418 171.428 88.2231C171.513 88.3044 171.63 88.3451 171.78 88.3451C171.929 88.3451 172.046 88.3044 172.131 88.2231C172.215 88.1407 172.258 88.029 172.258 87.8882ZM171.78 86.2959C171.656 86.2959 171.554 86.3349 171.476 86.4127C171.4 86.4895 171.361 86.5942 171.361 86.7271C171.361 86.8542 171.399 86.9572 171.475 87.0362C171.551 87.1141 171.653 87.153 171.78 87.153C171.907 87.153 172.009 87.1141 172.084 87.0362C172.161 86.9572 172.199 86.8542 172.199 86.7271C172.199 86.6 172.16 86.4963 172.081 86.4162C172.002 86.336 171.902 86.2959 171.78 86.2959Z" fill="#F5F7F6"/>
<defs>
<linearGradient id="paint0_linear_479_2677" x1="27.131" y1="97.6365" x2="27.131" y2="37.761" gradientUnits="userSpaceOnUse">
<stop stop-color="#27B7FF"/>
<stop offset="0.9899" stop-color="#F408AB"/>
</linearGradient>
<linearGradient id="paint1_linear_479_2677" x1="33.6316" y1="97.6362" x2="33.6316" y2="37.7608" gradientUnits="userSpaceOnUse">
<stop stop-color="#27B7FF"/>
<stop offset="0.9899" stop-color="#F408AB"/>
</linearGradient>
<linearGradient id="paint2_linear_479_2677" x1="46.6328" y1="97.6363" x2="46.6328" y2="37.7609" gradientUnits="userSpaceOnUse">
<stop stop-color="#27B7FF"/>
<stop offset="0.9899" stop-color="#F408AB"/>
</linearGradient>
<linearGradient id="paint3_linear_479_2677" x1="53.1332" y1="97.6364" x2="53.1332" y2="37.7611" gradientUnits="userSpaceOnUse">
<stop stop-color="#27B7FF"/>
<stop offset="0.9899" stop-color="#F408AB"/>
</linearGradient>
<linearGradient id="paint4_linear_479_2677" x1="66.1345" y1="97.6364" x2="66.1345" y2="37.7612" gradientUnits="userSpaceOnUse">
<stop stop-color="#27B7FF"/>
<stop offset="0.9899" stop-color="#F408AB"/>
</linearGradient>
<linearGradient id="paint5_linear_479_2677" x1="72.6351" y1="97.6364" x2="72.6351" y2="37.761" gradientUnits="userSpaceOnUse">
<stop stop-color="#27B7FF"/>
<stop offset="0.9899" stop-color="#F408AB"/>
</linearGradient>
<linearGradient id="paint6_linear_479_2677" x1="85.6363" y1="97.6363" x2="85.6363" y2="37.761" gradientUnits="userSpaceOnUse">
<stop stop-color="#27B7FF"/>
<stop offset="0.9899" stop-color="#F408AB"/>
</linearGradient>
<linearGradient id="paint7_linear_479_2677" x1="92.1367" y1="97.6364" x2="92.1367" y2="37.7609" gradientUnits="userSpaceOnUse">
<stop stop-color="#27B7FF"/>
<stop offset="0.9899" stop-color="#F408AB"/>
</linearGradient>
<linearGradient id="paint8_linear_479_2677" x1="105.138" y1="97.6363" x2="105.138" y2="37.7611" gradientUnits="userSpaceOnUse">
<stop stop-color="#27B7FF"/>
<stop offset="0.9899" stop-color="#F408AB"/>
</linearGradient>
<linearGradient id="paint9_linear_479_2677" x1="111.638" y1="97.6365" x2="111.638" y2="37.7611" gradientUnits="userSpaceOnUse">
<stop stop-color="#27B7FF"/>
<stop offset="0.9899" stop-color="#F408AB"/>
</linearGradient>
<linearGradient id="paint10_linear_479_2677" x1="124.64" y1="97.6365" x2="124.64" y2="37.7609" gradientUnits="userSpaceOnUse">
<stop stop-color="#27B7FF"/>
<stop offset="0.9899" stop-color="#F408AB"/>
</linearGradient>
<linearGradient id="paint11_linear_479_2677" x1="131.14" y1="97.6363" x2="131.14" y2="37.7609" gradientUnits="userSpaceOnUse">
<stop stop-color="#27B7FF"/>
<stop offset="0.9899" stop-color="#F408AB"/>
</linearGradient>
<linearGradient id="paint12_linear_479_2677" x1="144.141" y1="97.6363" x2="144.141" y2="37.7611" gradientUnits="userSpaceOnUse">
<stop stop-color="#27B7FF"/>
<stop offset="0.9899" stop-color="#F408AB"/>
</linearGradient>
<linearGradient id="paint13_linear_479_2677" x1="150.642" y1="97.6364" x2="150.642" y2="37.7609" gradientUnits="userSpaceOnUse">
<stop stop-color="#27B7FF"/>
<stop offset="0.9899" stop-color="#F408AB"/>
</linearGradient>
<linearGradient id="paint14_linear_479_2677" x1="163.643" y1="97.6363" x2="163.643" y2="37.7609" gradientUnits="userSpaceOnUse">
<stop stop-color="#27B7FF"/>
<stop offset="0.9899" stop-color="#F408AB"/>
</linearGradient>
<linearGradient id="paint15_linear_479_2677" x1="170.144" y1="97.6365" x2="170.144" y2="37.7611" gradientUnits="userSpaceOnUse">
<stop stop-color="#27B7FF"/>
<stop offset="0.9899" stop-color="#F408AB"/>
</linearGradient>
</defs>
</svg>
