<svg width="195" height="119" viewBox="0 0 195 119" fill="none" xmlns="http://www.w3.org/2000/svg">
<rect x="0.67627" y="0.796875" width="193.846" height="117.605" rx="14.7953" fill="black"/>
<rect x="0.984505" y="1.10511" width="193.229" height="116.989" rx="14.4871" stroke="white" stroke-opacity="0.5" stroke-width="0.616471"/>
<path d="M171.107 50.9131V93.7214H24.5542V40.353C31.2131 40.353 31.2131 50.905 37.872 50.905C44.539 50.905 44.539 29.0466 51.1979 29.0466C57.8568 29.0466 57.8567 65.6097 64.5238 65.6097C71.1826 65.6097 71.1826 40.353 77.8415 40.353C84.5004 40.353 84.5005 57.3124 91.1593 57.3124C97.8263 57.3124 97.8263 50.1507 104.485 50.1507C111.144 50.1507 111.144 60.3296 117.811 60.3296C124.47 60.3296 124.47 49.9641 131.137 49.9641C137.796 49.9641 137.796 73.8989 144.455 73.8989C151.122 73.8989 151.122 30.3606 157.781 30.3606C164.44 30.3687 164.44 50.9131 171.107 50.9131Z" fill="url(#paint0_linear_479_2810)"/>
<path d="M144.455 74.28C140.837 74.28 139.183 68.3349 137.431 62.0409C135.833 56.2905 134.178 50.3534 131.137 50.3534C128.006 50.3534 126.449 52.7866 124.786 55.3658C123.091 58.0018 121.347 60.7189 117.811 60.7189C114.275 60.7189 112.523 58.0424 110.836 55.455C109.181 52.9245 107.616 50.54 104.493 50.54C101.33 50.54 99.7648 52.2189 98.1102 54.0032C96.415 55.82 94.6631 57.7017 91.1674 57.7017C87.5824 57.7017 85.8387 53.2651 84.1597 48.9827C82.57 44.9273 80.9235 40.7422 77.8496 40.7422C74.8081 40.7422 73.1535 47.0199 71.5557 53.0867C69.8038 59.7213 68.1492 65.9909 64.5318 65.9909C60.882 65.9909 59.2355 56.9555 57.4998 47.393C55.9669 38.9741 54.2231 29.4278 51.214 29.4278C48.1644 29.4278 46.5098 34.8457 44.912 40.0934C43.1601 45.852 41.4974 51.2942 37.8881 51.2942C34.3519 51.2942 32.5999 48.5204 30.9129 45.8438C29.2583 43.2241 27.693 40.7422 24.5703 40.7422C24.3594 40.7422 24.1973 40.5719 24.1973 40.3691C24.1973 40.1582 24.3676 39.996 24.5703 39.996C28.1066 39.996 29.8585 42.7699 31.5456 45.4464C33.2002 48.0662 34.7655 50.5481 37.8881 50.5481C40.9378 50.5481 42.5923 45.122 44.1901 39.8825C45.9421 34.1239 47.6048 28.6897 51.214 28.6897C54.8557 28.6897 56.5022 37.7169 58.246 47.2794C59.7789 55.7065 61.5227 65.2528 64.5399 65.2528C67.5814 65.2528 69.236 58.9751 70.8339 52.9083C72.5858 46.2737 74.2403 40.0041 77.8577 40.0041C81.4426 40.0041 83.1865 44.4407 84.8654 48.7231C86.4551 52.7785 88.1015 56.9636 91.1755 56.9636C94.3468 56.9636 95.904 55.2847 97.5667 53.5004C99.2619 51.6836 101.006 49.8019 104.501 49.8019C108.038 49.8019 109.781 52.4784 111.477 55.0576C113.131 57.5882 114.697 59.9727 117.827 59.9727C120.95 59.9727 122.515 57.5395 124.17 54.9684C125.865 52.3324 127.617 49.6153 131.153 49.6153C134.771 49.6153 136.425 55.5605 138.177 61.8544C139.775 67.6049 141.429 73.55 144.471 73.55C147.48 73.55 149.224 62.1545 150.765 52.1053C152.809 38.7632 154.398 30.0199 157.805 30.0199C161.406 30.0199 163.142 35.3729 164.821 40.5476C166.419 45.4708 168.065 50.5562 171.123 50.5562C171.334 50.5562 171.496 50.7265 171.496 50.9293C171.496 51.1401 171.326 51.3023 171.123 51.3023C167.513 51.3023 165.778 45.9493 164.099 40.7665C162.501 35.8433 160.855 30.7579 157.797 30.7579C154.788 30.7579 153.044 42.1535 151.503 52.2026C149.451 65.5366 147.853 74.28 144.455 74.28Z" fill="white"/>
<path d="M54.1096 28.9574C54.1096 30.6201 52.7632 31.9746 51.0924 31.9746C49.4297 31.9746 48.0752 30.6282 48.0752 28.9574C48.0752 27.2947 49.4215 25.9402 51.0924 25.9402C52.7551 25.9402 54.1096 27.2947 54.1096 28.9574Z" fill="#018DCE"/>
<path d="M40.1591 50.5399C40.1591 52.2026 38.8127 53.5571 37.1419 53.5571C35.4792 53.5571 34.1248 52.2107 34.1248 50.5399C34.1248 48.8772 35.4711 47.5227 37.1419 47.5227C38.8127 47.5227 40.1591 48.8691 40.1591 50.5399Z" fill="#018DCE"/>
<path d="M67.2814 65.4149C67.2814 67.0776 65.935 68.4321 64.2642 68.4321C62.6015 68.4321 61.2471 67.0857 61.2471 65.4149C61.2471 63.7522 62.5934 62.3977 64.2642 62.3977C65.935 62.4058 67.2814 63.7522 67.2814 65.4149Z" fill="#018DCE"/>
<path d="M80.6315 40.5719C80.6315 42.2346 79.2852 43.5891 77.6144 43.5891C75.9517 43.5891 74.5972 42.2427 74.5972 40.5719C74.5972 38.9092 75.9436 37.5547 77.6144 37.5547C79.2771 37.5628 80.6315 38.9092 80.6315 40.5719Z" fill="#018DCE"/>
<path d="M94.4929 57.0204C94.4929 58.6831 93.1465 60.0376 91.4757 60.0376C89.813 60.0376 88.4585 58.6912 88.4585 57.0204C88.4585 55.3577 89.8049 54.0032 91.4757 54.0032C93.1384 54.0032 94.4929 55.3496 94.4929 57.0204Z" fill="#018DCE"/>
<path d="M107.51 50.6617C107.51 52.3244 106.164 53.6789 104.493 53.6789C102.831 53.6789 101.476 52.3325 101.476 50.6617C101.476 48.999 102.822 47.6445 104.493 47.6445C106.164 47.6445 107.51 48.999 107.51 50.6617Z" fill="#018DCE"/>
<path d="M120.333 60.0052C120.333 61.6679 118.987 63.0224 117.316 63.0224C115.654 63.0224 114.299 61.676 114.299 60.0052C114.299 58.3425 115.645 56.988 117.316 56.988C118.987 56.988 120.333 58.3425 120.333 60.0052Z" fill="#018DCE"/>
<path d="M134.397 49.8587C134.397 51.5214 133.051 52.8759 131.38 52.8759C129.718 52.8759 128.363 51.5295 128.363 49.8587C128.363 48.196 129.709 46.8416 131.38 46.8416C133.051 46.8416 134.397 48.196 134.397 49.8587Z" fill="#018DCE"/>
<path d="M147.131 73.5826C147.131 75.2453 145.785 76.5998 144.114 76.5998C142.451 76.5998 141.097 75.2534 141.097 73.5826C141.097 71.9199 142.443 70.5654 144.114 70.5654C145.777 70.5654 147.131 71.9118 147.131 73.5826Z" fill="#018DCE"/>
<path d="M161.106 30.6524C161.106 32.3151 159.76 33.6696 158.089 33.6696C156.426 33.6696 155.072 32.3232 155.072 30.6524C155.072 28.9897 156.418 27.6353 158.089 27.6353C159.752 27.6353 161.106 28.9816 161.106 30.6524Z" fill="#018DCE"/>
<defs>
<linearGradient id="paint0_linear_479_2810" x1="97.8303" y1="95.1048" x2="97.8303" y2="28.1653" gradientUnits="userSpaceOnUse">
<stop offset="0.0101" stop-opacity="0"/>
<stop offset="1" stop-color="#0198CE"/>
</linearGradient>
</defs>
</svg>
